<?xml version="1.0" encoding="utf-8"?>
<!-- Generator: Adobe Illustrator 16.0.0, SVG Export Plug-In . SVG Version: 6.00 Build 0)  -->
<!DOCTYPE svg PUBLIC "-//W3C//DTD SVG 1.1//EN" "http://www.w3.org/Graphics/SVG/1.1/DTD/svg11.dtd">
<svg version="1.1" id="圖層_1" xmlns="http://www.w3.org/2000/svg" xmlns:xlink="http://www.w3.org/1999/xlink" x="0px" y="0px"
	 width="425.197px" height="113.385px" viewBox="0 0 425.197 113.385" enable-background="new 0 0 425.197 113.385"
	 xml:space="preserve">
<g>
	<g>
		<g>
			<g>
				<path d="M206.15,59.895l6.889-19.114h28.784l1.391,0.634L239.23,52.95l10.514-0.015c7.484,0,12.162-1.564,13.269-4.772
					l2.513-7.413l1.009,0.065c7.208,0.485,11.04,1.035,15.199,2.527l1.021,1.036c0,0-2.128,7.827-5.666,10.677
					c-4.524,3.659-11.638,5.636-23.017,5.636h-47.155L206.15,59.895z"/>
			</g>
			<g>
				<path d="M284.075,40.667c0,0-16.817-1.43-16.935-1.437l-0.81-0.838l0.22-0.623c0.123-0.36,0.226-0.554,0.21-1
					c-0.027-0.722-1.813-1.828-4.326-1.828h-16.939l-1.481,4.19h-29.712l-0.584-0.612l3.72-10.657h47.175
					c11.743,0,18.394,2.75,19.655,9.666C284.533,39.023,284.075,40.667,284.075,40.667z"/>
			</g>
		</g>
		<g>
			<g>
				<path d="M177.444,60.691h-46.917l-0.772-0.797L132.429,53l41.915-0.064c6.259,0,9.212-0.382,12.525-4.624
					c0.05-0.061,0.033-0.668,0.045-0.706c-0.172-0.108-0.64-0.286-1.517-0.286l-50.213-0.05l-0.679-0.752l2.034-5.732l70.848-0.005
					c0,0-1.71,2.832-2.271,3.426c0.148,2.026-0.573,5.178-3.302,8.829c-3.697,4.955-12.16,7.556-24.357,7.656H177.444z"/>
			</g>
			<g>
				<path d="M207.99,39.23h-16.857l-0.678-0.896c-0.292-1.937-3.052-3.393-9.02-3.393H139.57l-0.74-0.728l2.739-6.352l46.705-0.591
					c14.896,0.047,18.295,3.819,19.391,7.567C208.437,37.487,207.99,39.23,207.99,39.23z"/>
			</g>
		</g>
	</g>
	<g>
		<path d="M308.94,91.445h-23.156l-1.538-0.738c-17.568-15.049-35.049-14.202-53.856-15.335l-106.48-3.411l-0.91-1.012l1.433-4.049
			h108.295c32.432,1.264,57.631,0,78.545,24.545H308.94z"/>
	</g>
	<g>
		<g>
			<linearGradient id="SVGID_1_" gradientUnits="userSpaceOnUse" x1="132.3887" y1="50.3086" x2="310.7875" y2="50.3086">
				<stop  offset="0" style="stop-color:#0D0D0D"/>
				<stop  offset="0.5674" style="stop-color:#A5A5A5"/>
				<stop  offset="0.7322" style="stop-color:#303030"/>
				<stop  offset="0.9563" style="stop-color:#2B2B2B"/>
			</linearGradient>
			<path fill="url(#SVGID_1_)" d="M206.15,59.895l6.724-19.109h29.099l-4.231,12.189l11.683-0.024
				c7.831,0,12.189-1.459,13.336-4.459l2.733-7.769l0.436,0.03c7.132,0.476,11.247,0.963,15.33,2.426l0.568,0.203l-0.217,0.578
				c-0.296,0.769-0.543,1.509-0.791,2.224c-1.02,3.025-1.896,5.633-4.932,8.269c-4.398,3.762-11.343,5.442-22.523,5.442H206.15z"/>
		</g>
		<g>
			<linearGradient id="SVGID_2_" gradientUnits="userSpaceOnUse" x1="132.3887" y1="33.4951" x2="310.7896" y2="33.4951">
				<stop  offset="0" style="stop-color:#0D0D0D"/>
				<stop  offset="0.5674" style="stop-color:#A5A5A5"/>
				<stop  offset="0.7322" style="stop-color:#303030"/>
				<stop  offset="0.9563" style="stop-color:#2B2B2B"/>
			</linearGradient>
			<path fill="url(#SVGID_2_)" d="M283.149,39.673l-0.597-0.072c-4.854-0.608-15.334-1.165-15.44-1.171l-0.781-0.037l0.265-0.762
				c0.258-0.716,0.216-1.324-0.116-1.823c-0.667-0.987-2.496-1.581-4.877-1.581h-17.287l-1.487,4.203l-29.041,0.006l3.858-11.114
				l45.446-0.003c6.05,0.003,20.131,1.085,20.131,11.058c0,0.118-0.018,0.567-0.022,0.688L283.149,39.673z"/>
		</g>
	</g>
	<g>
		<g>
			<linearGradient id="SVGID_3_" gradientUnits="userSpaceOnUse" x1="131.4561" y1="50.3369" x2="309.8583" y2="50.3369">
				<stop  offset="0" style="stop-color:#0D0D0D"/>
				<stop  offset="0.5674" style="stop-color:#A5A5A5"/>
				<stop  offset="0.7322" style="stop-color:#303030"/>
				<stop  offset="0.9563" style="stop-color:#2B2B2B"/>
			</linearGradient>
			<path fill="url(#SVGID_3_)" d="M176.668,59.895h-46.913l2.452-6.944h41.705c6.53,0,10.712-1.552,12.775-4.742
				c0.175-0.261,0.347-0.637,0.185-0.938c-0.185-0.361-0.875-0.746-2.248-0.746l-50.12-0.006l1.963-5.732l69.683-0.005l-0.546,0.909
				c-0.506,0.86-1.239,1.627-1.813,2.236c0.298,1.712,0.171,4.854-3.13,8.57C196.258,57.445,188.633,59.798,176.668,59.895
				L176.668,59.895z"/>
		</g>
		<g>
			<linearGradient id="SVGID_4_" gradientUnits="userSpaceOnUse" x1="131.4326" y1="32.8506" x2="310.3706" y2="32.8506">
				<stop  offset="0" style="stop-color:#0D0D0D"/>
				<stop  offset="0.5674" style="stop-color:#A5A5A5"/>
				<stop  offset="0.7322" style="stop-color:#303030"/>
				<stop  offset="0.9563" style="stop-color:#2B2B2B"/>
			</linearGradient>
			<path fill="url(#SVGID_4_)" d="M207.175,38.43h-16.708l-0.078-0.506c-0.451-3.069-5.388-3.71-9.446-3.71H138.83l2.455-6.942
				h46.493c7.487,0.05,17.308,0.988,19.033,7.676C207.386,37.139,207.175,38.43,207.175,38.43z"/>
		</g>
	</g>
	<g>
		<linearGradient id="SVGID_5_" gradientUnits="userSpaceOnUse" x1="122.999" y1="78.8037" x2="309.8389" y2="78.8037">
			<stop  offset="0" style="stop-color:#0D0D0D"/>
			<stop  offset="0.5674" style="stop-color:#A5A5A5"/>
			<stop  offset="0.7322" style="stop-color:#303030"/>
			<stop  offset="0.9563" style="stop-color:#2B2B2B"/>
		</linearGradient>
		<path fill="url(#SVGID_5_)" d="M309.839,90.707h-25.593l-0.457-0.369c-16.687-13.191-29.982-14.993-54.33-15.756l-106.46-3.633
			l1.433-4.049h107.341c37.358,0,56.95,2.061,75.228,20.875L309.839,90.707z"/>
	</g>
	<g>
		<g>
			<linearGradient id="SVGID_6_" gradientUnits="userSpaceOnUse" x1="243.8613" y1="62.4727" x2="243.8613" y2="23.1157">
				<stop  offset="0" style="stop-color:#1A1A1A"/>
				<stop  offset="0.2809" style="stop-color:#FFFFFF"/>
				<stop  offset="0.5674" style="stop-color:#A5A5A5"/>
				<stop  offset="0.7049" style="stop-color:#4A4A4A"/>
				<stop  offset="0.847" style="stop-color:#636363"/>
				<stop  offset="1" style="stop-color:#8C8C8C"/>
			</linearGradient>
			<path fill="url(#SVGID_6_)" d="M253.21,59.295h-46.399l6.317-17.913h27.863l-4.236,12.192l12.509-0.023
				c8.448,0,12.659-1.646,13.882-4.841l2.584-7.362c7.127,0.475,11.153,0.951,15.183,2.39c-1.492,3.961-1.928,7.11-5.556,10.256
				C270.97,57.746,263.987,59.295,253.21,59.295z"/>
			<linearGradient id="SVGID_7_" gradientUnits="userSpaceOnUse" x1="248.4717" y1="62.4795" x2="248.4717" y2="23.1126">
				<stop  offset="0" style="stop-color:#1A1A1A"/>
				<stop  offset="0.2809" style="stop-color:#FFFFFF"/>
				<stop  offset="0.5674" style="stop-color:#A5A5A5"/>
				<stop  offset="0.7049" style="stop-color:#4A4A4A"/>
				<stop  offset="0.847" style="stop-color:#636363"/>
				<stop  offset="1" style="stop-color:#8C8C8C"/>
			</linearGradient>
			<path fill="url(#SVGID_7_)" d="M242.266,37.841l1.487-4.207h17.689c4.096,0,6.476,1.612,5.544,4.207
				c0,0,10.541,0.552,15.485,1.168c0.007-0.108,0.018-0.524,0.018-0.633c0-9.046-12.472-10.459-19.552-10.462h-45.034l-3.449,9.927
				H242.266z"/>
		</g>
		<g>
			<linearGradient id="SVGID_8_" gradientUnits="userSpaceOnUse" x1="167.8486" y1="62.4746" x2="167.8486" y2="23.1194">
				<stop  offset="0" style="stop-color:#1A1A1A"/>
				<stop  offset="0.2809" style="stop-color:#FFFFFF"/>
				<stop  offset="0.5674" style="stop-color:#A5A5A5"/>
				<stop  offset="0.7049" style="stop-color:#4A4A4A"/>
				<stop  offset="0.847" style="stop-color:#636363"/>
				<stop  offset="1" style="stop-color:#8C8C8C"/>
			</linearGradient>
			<path fill="url(#SVGID_8_)" d="M200.243,52.091c3.086-3.482,3.334-6.511,2.927-8.354c0.6-0.636,1.41-1.452,1.945-2.355h-68.234
				l-1.558,4.541l49.302,0.009c2.476,0,3.483,1.164,2.548,2.604c-2.26,3.501-6.828,5.016-13.26,5.016h-41.292l-2.039,5.744h46.086
				C186.676,59.212,195.307,57.638,200.243,52.091z"/>
			<linearGradient id="SVGID_9_" gradientUnits="userSpaceOnUse" x1="173.1304" y1="62.4912" x2="173.1304" y2="23.1102">
				<stop  offset="0" style="stop-color:#1A1A1A"/>
				<stop  offset="0.2809" style="stop-color:#FFFFFF"/>
				<stop  offset="0.5674" style="stop-color:#A5A5A5"/>
				<stop  offset="0.7049" style="stop-color:#4A4A4A"/>
				<stop  offset="0.847" style="stop-color:#636363"/>
				<stop  offset="1" style="stop-color:#8C8C8C"/>
			</linearGradient>
			<path fill="url(#SVGID_9_)" d="M190.964,37.841h15.605c0.104-0.828-0.121-1.853-0.319-2.766c-1.152-5.47-8.51-7.132-18.472-7.213
				h-46.086l-2.028,5.751h41.291C186.847,33.613,190.534,34.941,190.964,37.841z"/>
		</g>
	</g>
	<linearGradient id="SVGID_10_" gradientUnits="userSpaceOnUse" x1="216.3159" y1="66.5059" x2="216.3159" y2="87.1277">
		<stop  offset="0" style="stop-color:#1A1A1A"/>
		<stop  offset="0.2809" style="stop-color:#FFFFFF"/>
		<stop  offset="0.5674" style="stop-color:#A5A5A5"/>
		<stop  offset="0.7049" style="stop-color:#4A4A4A"/>
		<stop  offset="0.847" style="stop-color:#636363"/>
		<stop  offset="1" style="stop-color:#8C8C8C"/>
	</linearGradient>
	<path fill="url(#SVGID_10_)" d="M308.631,90.108h-24.004l-0.3-0.253c-7.383-5.828-14.078-9.448-21.302-11.739
		c-9.348-2.963-19.585-3.708-33.369-4.131l-105.654-3.614l1.025-2.872h106.934c37.01,0,56.769,2.125,74.813,20.699L308.631,90.108z"
		/>
	<path fill="#FFFFFF" d="M288.604,21.94c-2.363-0.007-4.292,1.982-4.292,4.419c0,2.439,1.929,4.41,4.292,4.41
		c2.365,0,4.288-1.978,4.288-4.41C292.893,23.923,290.97,21.94,288.604,21.94z M288.604,30.214c-2.06,0-3.735-1.736-3.735-3.854
		c0-2.122,1.676-3.858,3.735-3.858c2.063,0,3.743,1.736,3.743,3.858C292.348,28.478,290.667,30.214,288.604,30.214z"/>
	<path fill="#FFFFFF" d="M289.691,26.853c-0.09-0.082-0.216-0.166-0.376-0.249c0.451-0.059,0.776-0.215,0.998-0.454
		c0.216-0.236,0.319-0.533,0.319-0.871c0-0.271-0.06-0.519-0.187-0.739c-0.133-0.216-0.32-0.364-0.53-0.459
		c-0.214-0.086-0.532-0.126-0.952-0.126h-2.083l-0.005,4.845h0.632v-2.143h0.723c0.153-0.003,0.266,0.004,0.336,0.022
		c0.101,0.021,0.197,0.066,0.282,0.131c0.095,0.059,0.21,0.17,0.323,0.321c0.118,0.151,0.26,0.376,0.446,0.666l0.619,1.002h0.787
		l-0.821-1.31C290.041,27.229,289.873,27.019,289.691,26.853z M288.849,26.102h-1.341v-1.617h1.482c0.348,0,0.607,0.075,0.771,0.231
		c0.154,0.14,0.237,0.333,0.237,0.563c0,0.162-0.055,0.303-0.126,0.444c-0.09,0.124-0.211,0.22-0.375,0.283
		C289.344,26.067,289.124,26.102,288.849,26.102z"/>
</g>
</svg>
