<?xml version="1.0" encoding="utf-8"?>
<!-- Generator: Adobe Illustrator 16.0.0, SVG Export Plug-In . SVG Version: 6.00 Build 0)  -->
<!DOCTYPE svg PUBLIC "-//W3C//DTD SVG 1.1//EN" "http://www.w3.org/Graphics/SVG/1.1/DTD/svg11.dtd">
<svg version="1.1" id="圖層_1" xmlns="http://www.w3.org/2000/svg" xmlns:xlink="http://www.w3.org/1999/xlink" x="0px" y="0px"
	 width="150px" height="40px" viewBox="0 0 150 40" enable-background="new 0 0 150 40" xml:space="preserve">
<g>
	<g>
		<g>
			<path fill="#FFFFFF" d="M18.739,28.75l1.856-1.946l0.217,0.378l-1.093,1.086l-0.406,0.401c0.027-0.007,0.202-0.06,0.525-0.153
				l1.505-0.412l0.216,0.374l-1.111,1.068l-0.365,0.354l0.502-0.125l1.504-0.375l0.205,0.354l-2.622,0.614l-0.218-0.378l1.141-1.114
				l0.334-0.302l-1.97,0.556L18.739,28.75z"/>
			<path fill="#FFFFFF" d="M21.717,32.173l0.686-2.601l0.371,0.226l-0.432,1.478l-0.161,0.551c0.02-0.021,0.148-0.151,0.386-0.388
				l1.12-1.089l0.37,0.224L23.6,32.047l-0.15,0.485l0.38-0.353l1.136-1.056l0.35,0.212l-2,1.805l-0.374-0.226l0.461-1.524
				l0.145-0.426l-1.457,1.438L21.717,32.173z"/>
			<path fill="#FFFFFF" d="M25.125,33.99l0.2-2.682l0.407,0.15l-0.156,1.533l-0.059,0.57c0.016-0.022,0.119-0.174,0.309-0.452
				l0.903-1.274l0.403,0.153l-0.18,1.532l-0.059,0.505l0.31-0.416l0.924-1.244l0.383,0.145l-1.638,2.139l-0.408-0.153l0.177-1.585
				l0.065-0.444l-1.172,1.678L25.125,33.99z"/>
			<path fill="#FFFFFF" d="M28.246,35.071l0.137-0.479l0.46,0.133l-0.137,0.478L28.246,35.071z"/>
			<path fill="#FFFFFF" d="M31.157,35.473c-0.182,0.101-0.351,0.163-0.503,0.187c-0.152,0.021-0.31,0.017-0.472-0.021
				c-0.266-0.06-0.455-0.175-0.567-0.341c-0.112-0.168-0.145-0.355-0.097-0.565c0.027-0.125,0.08-0.229,0.158-0.319
				c0.077-0.09,0.166-0.156,0.268-0.197c0.101-0.042,0.21-0.065,0.327-0.071c0.086-0.006,0.211,0.002,0.379,0.019
				c0.34,0.032,0.595,0.039,0.765,0.019c0.014-0.061,0.023-0.095,0.028-0.111c0.04-0.173,0.028-0.305-0.033-0.394
				c-0.082-0.117-0.228-0.203-0.434-0.249c-0.194-0.046-0.344-0.043-0.45,0.008c-0.109,0.048-0.205,0.158-0.29,0.326l-0.389-0.146
				c0.078-0.17,0.17-0.3,0.279-0.391c0.108-0.092,0.248-0.149,0.42-0.172c0.171-0.025,0.361-0.013,0.569,0.034
				c0.207,0.047,0.369,0.113,0.487,0.189c0.118,0.079,0.198,0.167,0.242,0.256c0.043,0.091,0.064,0.195,0.061,0.319
				c-0.003,0.076-0.025,0.208-0.068,0.397l-0.13,0.569c-0.09,0.395-0.138,0.649-0.143,0.758c-0.007,0.109,0.004,0.218,0.035,0.326
				l-0.429-0.098C31.147,35.705,31.143,35.593,31.157,35.473z M31.339,34.515c-0.162,0.029-0.398,0.033-0.707,0.01
				c-0.175-0.014-0.3-0.014-0.377,0.005c-0.077,0.016-0.142,0.049-0.193,0.101c-0.052,0.053-0.086,0.116-0.103,0.189
				c-0.026,0.113-0.006,0.217,0.06,0.313c0.065,0.093,0.177,0.16,0.337,0.196c0.158,0.034,0.308,0.029,0.446-0.015
				c0.14-0.042,0.252-0.119,0.338-0.232c0.066-0.088,0.121-0.223,0.162-0.41L31.339,34.515z"/>
			<path fill="#FFFFFF" d="M33.85,36.276l0.06-0.374c-0.237,0.256-0.518,0.359-0.846,0.308c-0.144-0.021-0.275-0.073-0.392-0.15
				c-0.116-0.08-0.196-0.167-0.244-0.262c-0.046-0.098-0.073-0.212-0.077-0.341c-0.003-0.087,0.009-0.222,0.039-0.408l0.253-1.577
				l0.416,0.066l-0.227,1.412c-0.036,0.223-0.051,0.378-0.048,0.46c0.008,0.116,0.049,0.216,0.124,0.293
				c0.075,0.08,0.174,0.128,0.298,0.148c0.125,0.02,0.246,0.005,0.367-0.044c0.119-0.047,0.211-0.127,0.275-0.233
				s0.113-0.269,0.148-0.485l0.219-1.365l0.415,0.066l-0.41,2.546L33.85,36.276z"/>
			<path fill="#FFFFFF" d="M35.931,36.146l0.016,0.393c-0.121,0.011-0.229,0.011-0.321,0c-0.15-0.02-0.266-0.059-0.343-0.118
				c-0.078-0.059-0.129-0.131-0.154-0.216c-0.024-0.086-0.021-0.258,0.008-0.519l0.173-1.473l-0.306-0.035l0.04-0.34l0.305,0.036
				l0.075-0.633l0.446-0.214l-0.105,0.896l0.42,0.05l-0.04,0.337l-0.419-0.051l-0.177,1.499c-0.015,0.124-0.017,0.206-0.007,0.241
				c0.012,0.04,0.032,0.069,0.063,0.095c0.031,0.024,0.077,0.039,0.139,0.047C35.791,36.147,35.853,36.147,35.931,36.146z"/>
			<path fill="#FFFFFF" d="M36.332,35.295c0.037-0.476,0.191-0.818,0.463-1.03c0.227-0.174,0.494-0.249,0.8-0.226
				c0.339,0.028,0.609,0.166,0.807,0.413c0.198,0.248,0.282,0.576,0.25,0.984c-0.025,0.332-0.093,0.588-0.204,0.77
				c-0.109,0.182-0.259,0.319-0.451,0.409c-0.19,0.093-0.394,0.131-0.61,0.113c-0.346-0.025-0.617-0.164-0.813-0.411
				S36.299,35.729,36.332,35.295z M36.764,35.329c-0.025,0.329,0.024,0.581,0.151,0.754c0.125,0.175,0.293,0.271,0.503,0.288
				c0.207,0.016,0.386-0.056,0.538-0.21c0.15-0.152,0.239-0.398,0.265-0.736c0.024-0.318-0.027-0.565-0.153-0.736
				c-0.126-0.178-0.293-0.271-0.5-0.289c-0.209-0.015-0.39,0.055-0.54,0.206C36.876,34.758,36.788,34.999,36.764,35.329z"/>
			<path fill="#FFFFFF" d="M40.792,35.882l0.41,0.068c-0.053,0.295-0.175,0.522-0.366,0.685c-0.191,0.163-0.421,0.24-0.692,0.231
				c-0.34-0.009-0.609-0.131-0.809-0.368c-0.199-0.236-0.293-0.569-0.281-1.001c0.008-0.278,0.06-0.521,0.155-0.728
				c0.094-0.207,0.235-0.358,0.418-0.457c0.185-0.098,0.383-0.145,0.596-0.139c0.27,0.006,0.487,0.083,0.656,0.23
				c0.166,0.147,0.271,0.35,0.311,0.613l-0.411,0.052c-0.033-0.172-0.098-0.306-0.195-0.396c-0.097-0.089-0.215-0.137-0.355-0.14
				c-0.212-0.006-0.386,0.068-0.523,0.221c-0.136,0.154-0.211,0.402-0.219,0.743c-0.01,0.347,0.046,0.601,0.17,0.763
				c0.123,0.159,0.287,0.243,0.492,0.249c0.166,0.004,0.305-0.044,0.417-0.147C40.68,36.26,40.755,36.102,40.792,35.882z"/>
			<path fill="#FFFFFF" d="M43.208,36.494c-0.153,0.139-0.302,0.237-0.445,0.296c-0.143,0.062-0.297,0.091-0.462,0.095
				c-0.273,0.006-0.483-0.062-0.631-0.197c-0.149-0.136-0.226-0.312-0.229-0.527c-0.003-0.126,0.022-0.242,0.077-0.348
				c0.053-0.104,0.125-0.188,0.213-0.257c0.089-0.063,0.188-0.109,0.3-0.145c0.082-0.022,0.206-0.048,0.373-0.072
				c0.339-0.046,0.587-0.102,0.747-0.165c0-0.059,0-0.097,0-0.112c-0.003-0.178-0.044-0.304-0.125-0.373
				c-0.11-0.098-0.271-0.144-0.481-0.14c-0.198,0.004-0.343,0.041-0.436,0.114c-0.093,0.074-0.16,0.202-0.202,0.386l-0.413-0.051
				c0.034-0.183,0.093-0.333,0.177-0.446c0.083-0.115,0.206-0.204,0.367-0.266c0.161-0.064,0.349-0.099,0.562-0.101
				c0.212-0.004,0.384,0.02,0.516,0.067c0.135,0.052,0.233,0.114,0.295,0.19c0.064,0.081,0.109,0.177,0.137,0.296
				c0.015,0.073,0.025,0.209,0.027,0.402l0.011,0.583c0.007,0.408,0.02,0.663,0.04,0.771c0.021,0.104,0.058,0.211,0.112,0.306
				l-0.438,0.01C43.252,36.721,43.224,36.614,43.208,36.494z M43.157,35.52c-0.152,0.066-0.379,0.124-0.684,0.176
				c-0.173,0.028-0.294,0.06-0.366,0.093c-0.071,0.035-0.126,0.081-0.164,0.146c-0.038,0.063-0.056,0.131-0.055,0.21
				c0.002,0.114,0.045,0.213,0.132,0.288c0.086,0.075,0.211,0.112,0.375,0.109c0.161-0.001,0.305-0.041,0.43-0.115
				c0.125-0.076,0.216-0.179,0.274-0.307c0.043-0.101,0.065-0.248,0.06-0.441L43.157,35.52z"/>
			<path fill="#FFFFFF" d="M44.343,36.767l-0.146-2.575l0.377-0.021l0.022,0.391c0.086-0.188,0.167-0.312,0.247-0.375
				c0.079-0.063,0.167-0.099,0.265-0.103c0.142-0.008,0.289,0.032,0.439,0.116l-0.121,0.413c-0.108-0.058-0.211-0.083-0.314-0.076
				c-0.091,0.004-0.172,0.038-0.242,0.101c-0.07,0.06-0.118,0.143-0.143,0.247c-0.037,0.158-0.051,0.327-0.041,0.514l0.076,1.348
				L44.343,36.767z"/>
			<path fill="#FFFFFF" d="M47.649,35.674l0.438,0.013c-0.042,0.269-0.148,0.487-0.319,0.647c-0.171,0.166-0.399,0.26-0.685,0.289
				c-0.361,0.036-0.659-0.052-0.893-0.261c-0.235-0.21-0.374-0.523-0.415-0.943c-0.042-0.43,0.033-0.777,0.223-1.034
				c0.191-0.263,0.456-0.408,0.796-0.441c0.331-0.033,0.611,0.06,0.844,0.271s0.37,0.53,0.412,0.953
				c0.002,0.027,0.006,0.063,0.009,0.116l-1.841,0.182c0.042,0.282,0.142,0.49,0.293,0.624c0.153,0.138,0.332,0.196,0.539,0.176
				c0.154-0.017,0.281-0.07,0.38-0.164C47.531,36.006,47.604,35.864,47.649,35.674z M46.205,35.106l1.379-0.138
				c-0.04-0.215-0.11-0.371-0.206-0.468c-0.151-0.155-0.332-0.222-0.543-0.202c-0.191,0.02-0.348,0.104-0.465,0.249
				C46.252,34.695,46.197,34.882,46.205,35.106z"/>
			<path fill="#FFFFFF" d="M48.897,36.354l-0.069-0.493l0.475-0.064l0.069,0.491L48.897,36.354z"/>
			<path fill="#FFFFFF" d="M51.608,34.946l0.417-0.021c0.01,0.3-0.063,0.549-0.214,0.748c-0.153,0.199-0.364,0.322-0.629,0.372
				c-0.334,0.062-0.624-0.003-0.867-0.193c-0.246-0.189-0.407-0.495-0.485-0.92c-0.049-0.274-0.05-0.522,0-0.744
				c0.049-0.221,0.155-0.397,0.315-0.534c0.159-0.136,0.343-0.222,0.552-0.26c0.265-0.05,0.494-0.02,0.689,0.09
				c0.194,0.109,0.337,0.285,0.432,0.533l-0.391,0.138c-0.069-0.164-0.159-0.28-0.273-0.349c-0.113-0.067-0.238-0.088-0.376-0.064
				c-0.208,0.041-0.363,0.146-0.465,0.327c-0.101,0.182-0.121,0.438-0.061,0.773c0.063,0.341,0.172,0.576,0.326,0.71
				c0.154,0.131,0.332,0.177,0.533,0.14c0.162-0.029,0.289-0.105,0.378-0.23C51.58,35.339,51.619,35.167,51.608,34.946z"/>
			<path fill="#FFFFFF" d="M52.192,34.485c-0.117-0.465-0.078-0.839,0.113-1.122c0.162-0.238,0.39-0.394,0.688-0.469
				c0.332-0.082,0.629-0.038,0.896,0.135c0.266,0.174,0.451,0.458,0.55,0.856c0.079,0.323,0.097,0.587,0.05,0.795
				c-0.047,0.206-0.145,0.384-0.298,0.53c-0.151,0.146-0.333,0.247-0.542,0.299c-0.337,0.085-0.639,0.043-0.901-0.131
				C52.482,35.202,52.298,34.905,52.192,34.485z M52.61,34.38c0.082,0.319,0.208,0.542,0.382,0.668
				c0.175,0.126,0.364,0.163,0.568,0.114c0.203-0.052,0.352-0.175,0.445-0.37c0.095-0.192,0.103-0.454,0.02-0.782
				c-0.078-0.31-0.205-0.528-0.379-0.651c-0.175-0.126-0.363-0.165-0.564-0.114c-0.205,0.053-0.354,0.174-0.448,0.366
				C52.539,33.801,52.531,34.058,52.61,34.38z"/>
			<path fill="#FFFFFF" d="M55.475,34.99l-0.888-2.42l0.354-0.131l0.124,0.339c0.029-0.146,0.091-0.275,0.187-0.392
				c0.094-0.118,0.22-0.205,0.375-0.262c0.172-0.063,0.326-0.078,0.465-0.043c0.137,0.03,0.254,0.108,0.347,0.226
				c0.08-0.351,0.269-0.581,0.563-0.688c0.232-0.084,0.433-0.082,0.608,0.002c0.172,0.089,0.312,0.271,0.412,0.548l0.61,1.662
				l-0.394,0.144l-0.56-1.525c-0.06-0.162-0.116-0.276-0.167-0.338c-0.053-0.063-0.121-0.104-0.204-0.124s-0.17-0.012-0.26,0.02
				c-0.164,0.061-0.278,0.167-0.346,0.32c-0.067,0.153-0.054,0.354,0.037,0.604l0.516,1.406l-0.394,0.144l-0.579-1.572
				c-0.066-0.184-0.149-0.308-0.246-0.375c-0.098-0.066-0.22-0.075-0.367-0.021c-0.112,0.04-0.202,0.108-0.274,0.206
				c-0.073,0.094-0.108,0.209-0.107,0.341c0,0.133,0.042,0.31,0.122,0.529l0.461,1.257L55.475,34.99z"/>
			<path fill="#FFFFFF" d="M59.518,33.354l-0.229-0.44l0.426-0.22l0.228,0.441L59.518,33.354z"/>
			<path fill="#FFFFFF" d="M61.323,31.855l0.257,0.292c-0.086,0.087-0.169,0.155-0.247,0.205c-0.129,0.081-0.243,0.124-0.341,0.126
				c-0.098,0.004-0.182-0.021-0.255-0.072c-0.073-0.051-0.178-0.186-0.32-0.406l-0.797-1.252l-0.258,0.166l-0.182-0.29l0.26-0.165
				l-0.343-0.539l0.212-0.445l0.484,0.761l0.356-0.227l0.182,0.287l-0.357,0.228l0.81,1.272c0.067,0.104,0.116,0.168,0.147,0.191
				c0.031,0.021,0.068,0.032,0.107,0.032s0.085-0.015,0.138-0.05C61.213,31.942,61.264,31.905,61.323,31.855z"/>
			<path fill="#FFFFFF" d="M62.759,31.27l-2.447-1.113l0.284-0.331l1.384,0.677l0.514,0.252c-0.017-0.023-0.123-0.171-0.317-0.447
				l-0.883-1.285l0.283-0.328l1.374,0.7l0.453,0.227l-0.283-0.434l-0.848-1.297l0.268-0.309l1.44,2.274l-0.285,0.329l-1.425-0.711
				l-0.395-0.215l1.17,1.676L62.759,31.27z"/>
		</g>
		<g>
			<g>
				<path fill="#005395" d="M19.647,3.345h44.004c1.07,0,1.945,0.934,1.945,2.081v16.652c0,1.147-0.875,2.084-1.945,2.084H19.647
					c-1.071,0-1.946-0.937-1.946-2.084V5.426C17.701,4.278,18.576,3.345,19.647,3.345z"/>
				<path fill="#FFFFFF" d="M63.652,24.392H19.647c-1.199,0-2.175-1.037-2.175-2.313V5.426c0-1.274,0.977-2.311,2.175-2.311h44.004
					c1.198,0,2.174,1.037,2.174,2.311v16.652C65.826,23.354,64.85,24.392,63.652,24.392z M19.647,3.572
					c-0.948,0-1.718,0.829-1.718,1.852v16.653c0,1.023,0.77,1.856,1.718,1.856h44.004c0.946,0,1.715-0.833,1.715-1.856V5.426
					c0-1.023-0.769-1.853-1.715-1.853L19.647,3.572L19.647,3.572z"/>
			</g>
			<g>
				<polygon fill="#FFFFFF" points="50.026,16.332 50.013,13.512 48.735,13.52 48.671,13.52 48.672,13.456 48.711,10.582 
					48.713,10.519 48.774,10.519 50.009,10.527 50.027,7.908 48.792,7.908 48.73,7.908 48.73,7.846 48.713,5.658 45.696,6.295 
					45.739,7.844 45.743,7.908 45.677,7.906 44.541,7.898 44.534,10.519 45.63,10.519 45.694,10.519 45.694,10.582 45.738,16.325 
									"/>
				<path fill="#FFFFFF" d="M50.161,16.466l-4.554-0.007l-0.046-5.806H44.4l0.006-2.89l1.195,0.007L45.56,6.188l3.285-0.693
					l0.018,2.28h1.298l-0.02,2.887l-1.297-0.008l-0.038,2.733l1.34-0.008L50.161,16.466z M45.87,16.192l4.023,0.007l-0.012-2.553
					l-1.343,0.006l0.046-3.266l1.292,0.006l0.017-2.352h-1.296l-0.017-2.218l-2.749,0.579l0.05,1.643l-0.21-0.006l-0.999-0.008
					l-0.006,2.356h1.158v0.195L45.87,16.192z"/>
			</g>
			<g>
				<path fill="#FFFFFF" d="M28.499,14.787h-3.507L24.51,16.43h-3.143l3.838-10.152l3.129-0.645l3.875,10.796h-3.223L28.499,14.787
					L28.499,14.787z M27.855,12.63l-1.103-3.579l-1.094,3.579H27.855z"/>
				<path fill="#FFFFFF" d="M32.398,16.563h-3.511l-0.489-1.644h-3.307l-0.483,1.644h-3.436l3.932-10.401l3.316-0.683l0.04,0.109
					L32.398,16.563z M29.087,16.297h2.934l-3.771-10.51l-2.946,0.605l-3.744,9.904h2.851l0.483-1.644h3.706L29.087,16.297z
					 M28.036,12.764h-2.556l1.273-4.167L28.036,12.764z M25.839,12.498h1.836l-0.923-2.992L25.839,12.498z"/>
			</g>
			<g>
				<path fill="#FFFFFF" d="M42.798,16.221h-2.999v-1.356c-0.445,0.556-0.894,0.955-1.35,1.188
					c-0.455,0.238-1.014,0.356-1.675,0.356c-0.883,0-1.574-0.263-2.077-0.792c-0.501-0.527-0.756-1.34-0.751-2.44l0.019-4.676
					l3.204-0.652v4.605c0,0.524,0.096,0.896,0.29,1.118c0.197,0.22,0.468,0.333,0.821,0.333c0.386,0,0.698-0.147,0.942-0.442
					c0.246-0.295,0.366-0.824,0.366-1.584V7.851h3.21L42.798,16.221L42.798,16.221z"/>
				<path fill="#FFFFFF" d="M36.774,16.542c-0.917,0-1.648-0.28-2.173-0.833c-0.528-0.555-0.792-1.409-0.787-2.533l0.019-4.784
					l3.47-0.706v4.767c0,0.489,0.086,0.835,0.256,1.031c0.175,0.192,0.411,0.287,0.722,0.287c0.345,0,0.618-0.129,0.84-0.394
					c0.222-0.27,0.335-0.773,0.335-1.5V7.716h3.477v8.638h-3.265v-1.125c-0.384,0.43-0.771,0.746-1.157,0.943
					C38.042,16.417,37.458,16.542,36.774,16.542z M34.098,8.611l-0.02,4.566c-0.004,1.054,0.236,1.845,0.715,2.349
					c0.473,0.497,1.14,0.75,1.98,0.75c0.639,0,1.183-0.116,1.613-0.342c0.431-0.221,0.871-0.609,1.308-1.153l0.237-0.295v1.602
					h2.732V7.984h-2.944v3.895c0,0.801-0.13,1.347-0.397,1.669c-0.27,0.327-0.621,0.492-1.043,0.492
					c-0.385,0-0.695-0.126-0.919-0.375c-0.22-0.251-0.325-0.646-0.325-1.208V8.012L34.098,8.611z"/>
			</g>
			<g>
				<path fill="#FFFFFF" d="M52.338,12.215c0-1.272,0.429-2.325,1.288-3.148c0.861-0.827,2.021-1.242,3.486-1.242
					c1.672,0,2.936,0.486,3.791,1.455c0.688,0.782,1.031,1.746,1.031,2.89c0,1.282-0.428,2.336-1.277,3.156
					c-0.852,0.819-2.032,1.231-3.537,1.231c-1.341,0-2.428-0.341-3.256-1.022C52.845,14.69,52.338,13.583,52.338,12.215
					L52.338,12.215z M55.546,12.207c0,0.749,0.149,1.297,0.454,1.65c0.3,0.358,0.678,0.54,1.136,0.54
					c0.461,0,0.84-0.178,1.135-0.529c0.298-0.353,0.446-0.912,0.446-1.692c0-0.725-0.151-1.26-0.449-1.617
					c-0.297-0.352-0.668-0.528-1.109-0.528c-0.466,0-0.854,0.177-1.158,0.535C55.7,10.927,55.546,11.475,55.546,12.207z"/>
				<path fill="#FFFFFF" d="M57.12,16.69c-1.369,0-2.492-0.354-3.341-1.053c-1.044-0.865-1.574-2.016-1.574-3.42
					c0-1.308,0.446-2.399,1.328-3.245c0.884-0.848,2.089-1.278,3.579-1.278c1.703,0,3.012,0.505,3.89,1.5
					c0.707,0.804,1.064,1.806,1.064,2.979c0,1.313-0.444,2.407-1.318,3.251C59.874,16.265,58.653,16.69,57.12,16.69z M57.113,7.958
					c-1.42,0-2.561,0.406-3.394,1.206c-0.827,0.792-1.248,1.818-1.248,3.051c0,1.323,0.497,2.404,1.477,3.217
					c0.801,0.657,1.868,0.992,3.172,0.992c1.461,0,2.62-0.402,3.445-1.193c0.821-0.792,1.237-1.821,1.237-3.06
					c0-1.106-0.335-2.048-0.998-2.802C59.978,8.434,58.737,7.958,57.113,7.958z M57.137,14.529c-0.497,0-0.912-0.196-1.238-0.586
					c-0.326-0.378-0.485-0.947-0.485-1.736c0-0.76,0.163-1.34,0.488-1.727c0.329-0.387,0.751-0.583,1.258-0.583
					c0.48,0,0.887,0.192,1.21,0.575c0.32,0.381,0.481,0.955,0.481,1.703c0,0.816-0.157,1.398-0.478,1.778
					C58.051,14.336,57.636,14.529,57.137,14.529z M57.159,10.165c-0.431,0-0.776,0.158-1.056,0.487
					c-0.28,0.336-0.423,0.86-0.423,1.555c0,0.713,0.143,1.239,0.422,1.563c0.277,0.333,0.616,0.492,1.035,0.492
					c0.422,0,0.76-0.157,1.034-0.481c0.274-0.325,0.415-0.866,0.415-1.606c0-0.684-0.141-1.201-0.418-1.532
					C57.893,10.322,57.563,10.165,57.159,10.165z"/>
			</g>
			<g>
				<path fill="#D51522" d="M41.65,17.53c9.048,0,16.427,2.896,16.427,6.445c0,3.553-7.379,6.447-16.427,6.447
					c-9.048,0-16.427-2.895-16.427-6.447C25.223,20.427,32.602,17.53,41.65,17.53z"/>
				<path fill="#FFFFFF" d="M41.65,30.649c-9.184,0-16.656-2.993-16.656-6.674c0-3.68,7.471-6.674,16.656-6.674
					c9.184,0,16.655,2.994,16.655,6.674C58.306,27.656,50.833,30.649,41.65,30.649z M41.65,17.759
					c-8.781,0-16.198,2.848-16.198,6.217c0,3.37,7.417,6.217,16.198,6.217c8.781,0,16.198-2.847,16.198-6.217
					C57.848,20.606,50.43,17.759,41.65,17.759z"/>
			</g>
			<g>
				<path fill="#FFFFFF" d="M35.694,26.349l0.001-1.771l-1.827,0.019c-0.093,0.422-0.158,0.696-0.359,0.917
					c-0.202,0.222-0.499,0.332-0.894,0.332c-0.404,0-0.718-0.136-0.944-0.413c-0.222-0.271-0.335-0.777-0.335-1.517
					c0-0.595,0.095-1.033,0.282-1.313c0.247-0.375,0.605-0.563,1.07-0.563c0.208,0,0.393,0.041,0.56,0.127
					c0.166,0.086,0.305,0.206,0.42,0.362c0.069,0.096,0.137,0.245,0.201,0.446l1.815,0.011c-0.029-0.23,0.015-0.39-0.094-0.671
					c-0.226-0.573-0.555-1.009-0.976-1.304c-0.481-0.34-1.139-0.511-1.977-0.511c-1.071,0-1.9,0.298-2.486,0.888
					c-0.586,0.592-0.879,1.439-0.879,2.539c0,0.827,0.167,1.503,0.498,2.033c0.334,0.53,0.731,0.899,1.19,1.111
					c0.458,0.208,1.048,0.314,1.772,0.314c0.594,0,1.086-0.084,1.472-0.258c0.385-0.175,0.803-0.561,0.971-0.767L35.694,26.349z"/>
				<path fill="#FFFFFF" d="M32.734,27.52c-0.737,0-1.353-0.109-1.828-0.326c-0.482-0.22-0.902-0.61-1.246-1.16
					c-0.345-0.551-0.519-1.258-0.519-2.104c0-1.132,0.31-2.02,0.916-2.633c0.611-0.616,1.479-0.928,2.582-0.928
					c0.862,0,1.553,0.179,2.053,0.534c0.448,0.313,0.792,0.772,1.024,1.367c0.082,0.21,0.085,0.36,0.09,0.506
					c0.002,0.06,0.003,0.124,0.011,0.193l0.02,0.149l-2.064-0.01l-0.029-0.094c-0.06-0.188-0.121-0.324-0.181-0.405
					c-0.104-0.142-0.226-0.249-0.375-0.326c-0.147-0.075-0.309-0.111-0.499-0.111c-0.423,0-0.737,0.165-0.959,0.503
					c-0.173,0.257-0.26,0.675-0.26,1.239c0,0.702,0.103,1.186,0.307,1.434c0.199,0.245,0.474,0.362,0.839,0.362
					c0.355,0,0.617-0.096,0.795-0.287c0.176-0.192,0.236-0.439,0.327-0.857l0.023-0.104l2.068-0.02l-0.001,2.036l-0.586,0.014
					c-0.194,0.221-0.592,0.584-0.979,0.758C33.863,27.43,33.35,27.52,32.734,27.52z M32.639,20.634
					c-1.028,0-1.833,0.286-2.392,0.848c-0.557,0.563-0.839,1.387-0.839,2.446c0,0.796,0.16,1.456,0.477,1.961
					c0.317,0.504,0.699,0.863,1.133,1.063c0.438,0.202,1.016,0.303,1.716,0.303c0.577,0,1.054-0.083,1.417-0.248
					c0.354-0.158,0.752-0.52,0.923-0.729l0.039-0.047l0.446-0.012l0.001-1.508l-1.587,0.016c-0.087,0.391-0.163,0.651-0.367,0.878
					c-0.229,0.249-0.563,0.373-0.992,0.373c-0.444,0-0.796-0.155-1.046-0.458c-0.247-0.303-0.366-0.825-0.366-1.604
					c0-0.628,0.1-1.083,0.305-1.388c0.27-0.412,0.668-0.621,1.18-0.621c0.232,0,0.435,0.046,0.621,0.142
					c0.184,0.095,0.34,0.229,0.468,0.404c0.066,0.088,0.128,0.216,0.189,0.391l1.575,0.007c-0.001-0.021-0.001-0.048-0.002-0.067
					c-0.004-0.135-0.006-0.253-0.072-0.417c-0.212-0.544-0.524-0.964-0.929-1.246C34.084,20.796,33.445,20.634,32.639,20.634z"/>
			</g>
			<g>
				<path fill="#FFFFFF" d="M42.071,27.387l-1.917,0.007l0.009-0.622c-0.226,0.2-0.432,0.291-0.692,0.397
					c-0.356,0.145-0.769,0.217-1.241,0.217c-0.626,0-1.101-0.146-1.428-0.435c-0.322-0.289-0.485-0.646-0.485-1.072
					c0-0.4,0.115-0.728,0.351-0.984c0.235-0.258,0.665-0.448,1.294-0.573c0.756-0.151,1.244-0.258,1.469-0.319
					c0.224-0.062,0.46-0.141,0.71-0.24c0-0.247-0.051-0.421-0.151-0.519c-0.104-0.097-0.283-0.148-0.541-0.148
					c-0.331,0-0.575,0.054-0.741,0.158c-0.128,0.084-0.234,0.237-0.312,0.464L37.446,23.7l-0.955-0.013l-0.001-0.324
					c-0.001-0.284,0.211-0.518,0.301-0.643c0.137-0.192,0.332-0.357,0.59-0.5c0.184-0.104,0.439-0.184,0.76-0.239
					c0.322-0.058,0.672-0.086,1.049-0.086c0.602,0,1.087,0.037,1.453,0.104c0.365,0.065,0.671,0.208,0.913,0.423
					c0.174,0.149,0.309,0.355,0.408,0.63c0.099,0.271,0.146,0.529,0.146,0.778v3.6L42.071,27.387L42.071,27.387z M40.142,24.775
					c-0.275,0.101-0.565,0.187-0.863,0.263c-0.409,0.109-0.669,0.218-0.777,0.323c-0.111,0.107-0.168,0.232-0.168,0.37
					c0,0.157,0.057,0.288,0.165,0.387c0.111,0.102,0.274,0.151,0.489,0.151c0.224,0,0.432-0.056,0.625-0.162
					c0.192-0.108,0.33-0.244,0.411-0.398c0.081-0.157,0.12-0.361,0.12-0.611L40.142,24.775L40.142,24.775z"/>
				<path fill="#FFFFFF" d="M40.019,27.528l0.007-0.485c-0.157,0.102-0.316,0.172-0.504,0.249c-0.37,0.151-0.804,0.228-1.292,0.228
					c-0.653,0-1.163-0.158-1.515-0.469c-0.352-0.313-0.53-0.706-0.53-1.172c0-0.432,0.129-0.794,0.386-1.074
					c0.255-0.281,0.703-0.482,1.366-0.614c0.747-0.149,1.238-0.255,1.46-0.316c0.201-0.056,0.407-0.124,0.609-0.201
					c-0.008-0.158-0.046-0.274-0.108-0.333c-0.076-0.072-0.23-0.11-0.447-0.11c-0.3,0-0.525,0.044-0.669,0.136
					c-0.103,0.066-0.19,0.203-0.258,0.396l-0.032,0.091l-2.132-0.032l-0.002-0.453c-0.002-0.29,0.176-0.523,0.283-0.664l0.042-0.057
					c0.149-0.209,0.356-0.385,0.635-0.54c0.195-0.111,0.459-0.193,0.804-0.254c0.329-0.06,0.688-0.087,1.071-0.087
					c0.594,0,1.092,0.035,1.478,0.104c0.387,0.071,0.715,0.223,0.977,0.453c0.189,0.164,0.34,0.395,0.444,0.686
					c0.104,0.285,0.155,0.557,0.155,0.825v3.6h-0.172l0.001,0.087L40.019,27.528z M40.3,26.475l-0.011,0.784l1.686-0.005v-3.423
					c0-0.235-0.044-0.477-0.138-0.732c-0.091-0.253-0.211-0.439-0.369-0.574c-0.226-0.198-0.512-0.33-0.851-0.394
					c-0.369-0.066-0.849-0.1-1.429-0.1c-0.366,0-0.711,0.027-1.025,0.084c-0.311,0.054-0.552,0.128-0.719,0.224
					c-0.244,0.135-0.423,0.285-0.547,0.462l-0.046,0.063c-0.092,0.119-0.23,0.302-0.229,0.499l0.001,0.193l1.682,0.025
					c0.085-0.205,0.196-0.354,0.332-0.439c0.191-0.124,0.458-0.179,0.813-0.179c0.293,0,0.499,0.059,0.631,0.181
					c0.131,0.13,0.193,0.331,0.193,0.615v0.093l-0.084,0.033c-0.24,0.096-0.484,0.178-0.724,0.245
					c-0.23,0.062-0.728,0.171-1.479,0.32c-0.598,0.119-1.009,0.298-1.222,0.532c-0.213,0.232-0.316,0.525-0.316,0.894
					c0,0.391,0.145,0.71,0.44,0.974c0.302,0.266,0.753,0.403,1.339,0.403c0.453,0,0.853-0.07,1.19-0.21
					c0.262-0.107,0.448-0.193,0.656-0.374L40.3,26.475z M38.987,26.402c-0.248,0-0.442-0.062-0.578-0.186
					c-0.139-0.127-0.208-0.291-0.208-0.486c0-0.174,0.072-0.334,0.208-0.467c0.129-0.123,0.402-0.238,0.835-0.354
					c0.324-0.082,0.602-0.167,0.853-0.258l0.178-0.064v0.511c0,0.278-0.044,0.499-0.135,0.675c-0.092,0.179-0.248,0.331-0.462,0.451
					C39.462,26.344,39.23,26.402,38.987,26.402z M40.009,24.965c-0.211,0.07-0.441,0.138-0.698,0.203
					c-0.502,0.134-0.665,0.239-0.717,0.288c-0.085,0.083-0.127,0.174-0.127,0.275c0,0.121,0.041,0.216,0.122,0.29
					c0.084,0.077,0.218,0.115,0.398,0.115c0.198,0,0.388-0.05,0.561-0.146c0.167-0.094,0.288-0.208,0.355-0.343
					c0.07-0.135,0.105-0.32,0.105-0.551L40.009,24.965L40.009,24.965z"/>
			</g>
			<g>
				<path fill="#FFFFFF" d="M42.766,21.918h0.613h1.981v0.575c0.491-0.525,1.232-0.599,1.907-0.576l0.006,1.614
					c-0.335-0.042-0.642-0.013-0.787-0.013c-0.279,0-0.495,0.109-0.648,0.333c-0.219,0.318-0.329,0.912-0.329,1.778v0.284h0.708
					v1.531h-0.708v0.006h-2.138v-0.006h-0.643v-1.531h0.646v-0.945l0.001-1.475h-0.609V21.918z"/>
				<path fill="#FFFFFF" d="M45.507,27.586l-2.912-0.008v-1.8h0.645l0.001-2.152h-0.609v-1.84h2.861v0.411
					c0.5-0.369,1.13-0.415,1.587-0.415c0.064,0,0.129,0,0.192,0.004l0.129,0.002l0.005,1.896l-0.15-0.018
					c-0.197-0.026-0.458-0.024-0.636-0.019c-0.053,0.003-0.098,0.003-0.135,0.003c-0.235,0-0.411,0.093-0.539,0.277
					c-0.203,0.294-0.305,0.867-0.305,1.703v0.148h0.708v1.8L45.507,27.586z M43.503,27.319l2.58-0.007v-1.268h-0.708V25.63
					c0-0.902,0.115-1.511,0.353-1.854c0.177-0.26,0.433-0.393,0.758-0.393c0.034,0,0.076,0,0.125-0.004
					c0.146-0.005,0.356-0.008,0.529,0.004l-0.003-1.335c-0.018-0.001-0.037-0.001-0.055-0.001c-0.764,0-1.279,0.169-1.623,0.539
					l-0.23,0.246v-0.782h-2.329v1.309h0.611l-0.004,2.687h-0.645v1.268L43.503,27.319z"/>
			</g>
			<g>
				<path fill="#FFFFFF" d="M54.019,25.147h-4.063c0.034,0.324,0.123,0.565,0.263,0.728c0.196,0.228,0.453,0.345,0.768,0.345
					c0.196,0,0.388-0.053,0.568-0.151c0.11-0.062,0.228-0.173,0.352-0.333l2.119,0.012c-0.352,0.598-0.793,1.087-1.225,1.316
					c-0.432,0.229-1.051,0.347-1.859,0.347c-0.702,0-1.252-0.099-1.656-0.297c-0.401-0.197-0.734-0.511-0.998-0.942
					c-0.264-0.431-0.396-0.935-0.396-1.516c0-0.827,0.265-1.5,0.796-2.009c0.53-0.514,1.261-0.766,2.196-0.766
					c0.755,0,1.354,0.113,1.792,0.344c0.438,0.227,0.773,0.56,1.001,0.995c0.229,0.433,0.342,1.001,0.342,1.699L54.019,25.147
					L54.019,25.147z M51.959,24.175c-0.042-0.395-0.147-0.675-0.316-0.841c-0.173-0.174-0.396-0.256-0.676-0.256
					c-0.324,0-0.579,0.129-0.773,0.383c-0.124,0.16-0.202,0.396-0.234,0.713L51.959,24.175L51.959,24.175z"/>
				<path fill="#FFFFFF" d="M50.941,27.54c-0.73,0-1.291-0.1-1.714-0.309c-0.421-0.208-0.776-0.541-1.052-0.991
					c-0.277-0.451-0.417-0.984-0.417-1.587c0-0.862,0.281-1.57,0.836-2.104c0.554-0.534,1.324-0.807,2.289-0.807
					c0.774,0,1.398,0.124,1.853,0.363c0.461,0.237,0.818,0.592,1.059,1.051c0.237,0.447,0.357,1.042,0.357,1.761v0.362h-4.044
					c0.039,0.221,0.11,0.393,0.211,0.507c0.173,0.202,0.391,0.298,0.668,0.298c0.174,0,0.342-0.044,0.502-0.131
					c0.093-0.055,0.198-0.156,0.312-0.302l0.041-0.05l2.416,0.011l-0.117,0.199c-0.373,0.636-0.838,1.134-1.278,1.367
					C52.413,27.422,51.767,27.54,50.941,27.54z M50.883,22.011c-0.893,0-1.602,0.247-2.104,0.73c-0.5,0.482-0.754,1.127-0.754,1.912
					c0,0.553,0.127,1.041,0.377,1.446c0.25,0.408,0.567,0.707,0.944,0.892c0.379,0.187,0.918,0.283,1.596,0.283
					c0.782,0,1.386-0.112,1.795-0.332c0.352-0.186,0.727-0.568,1.05-1.065l-1.817-0.009c-0.121,0.146-0.236,0.248-0.35,0.314
					c-0.202,0.112-0.414,0.168-0.634,0.168c-0.355,0-0.649-0.133-0.87-0.391c-0.158-0.182-0.257-0.452-0.294-0.8l-0.016-0.147h4.078
					v-0.097c0-0.677-0.11-1.228-0.327-1.636c-0.215-0.413-0.534-0.728-0.943-0.941C52.195,22.122,51.613,22.011,50.883,22.011z
					 M52.107,24.309h-2.296l0.016-0.146c0.035-0.345,0.121-0.602,0.26-0.78c0.218-0.291,0.513-0.437,0.878-0.437
					c0.314,0,0.573,0.098,0.769,0.295c0.193,0.188,0.31,0.491,0.356,0.922L52.107,24.309z M50.111,24.044h1.695
					c-0.046-0.286-0.133-0.491-0.257-0.615c-0.147-0.146-0.338-0.219-0.583-0.219c-0.279,0-0.498,0.111-0.667,0.334
					C50.21,23.657,50.148,23.826,50.111,24.044z"/>
			</g>
		</g>
	</g>
	<g>
		<path fill="#FFFFFF" d="M78.158,14.288l-2.813,5.587l2.787,5.587l-0.749,0.351l-2.938-5.938l2.964-5.948L78.158,14.288z
			 M80.107,14.263l-2.734,5.611l2.711,5.562l-0.739,0.365l-2.949-5.926l2.949-5.936L80.107,14.263z"/>
		<path fill="#FFFFFF" d="M82.094,23.677l-0.623-0.951c0.124-0.058,0.249-0.104,0.373-0.138c1.441-0.539,2.451-1.306,3.024-2.288
			c-0.175-0.207-0.264-0.416-0.264-0.623v-1.951h-2.31c-0.069,0.009-0.101,0.042-0.101,0.102v1.426h-0.987v-2.325
			c0-0.125,0.062-0.188,0.188-0.188h2.25c-0.259-0.383-0.49-0.679-0.701-0.888l0.64-0.5c-0.533-0.008-1.024-0.017-1.475-0.024
			l-0.09-1.039c4.217,0.093,7.425-0.05,9.624-0.424l0.125,1.036c-0.792,0.158-2.066,0.28-3.824,0.364
			c-0.375,0.008-0.729,0.024-1.062,0.05c0.216,0.291,0.438,0.667,0.661,1.124l-0.537,0.3h1.963c0.466-0.458,0.928-0.987,1.389-1.587
			l0.749,0.699c-0.126,0.159-0.355,0.43-0.688,0.813c-0.033,0.025-0.055,0.049-0.062,0.074h1.625l0.898,0.45
			c-0.019,0.583-0.15,1.276-0.401,2.075l-0.961-0.25c0.176-0.674,0.238-1.053,0.187-1.137c0-0.1-0.042-0.15-0.125-0.15h-5.988v1.4
			c0,0.16,0.057,0.292,0.164,0.401c0.107,0.098,0.238,0.154,0.388,0.162h2.273c0.093,0,0.192-0.038,0.299-0.113
			c0.034-0.023,0.056-0.066,0.064-0.125c0.024-0.158,0.061-0.438,0.112-0.837l0.962,0.262c-0.126,0.875-0.225,1.341-0.298,1.4
			c-0.252,0.267-0.489,0.4-0.714,0.4h-3.025c-0.183,0.367-0.325,0.605-0.425,0.712h5.2c0.273,0.201,0.504,0.375,0.687,0.525
			c0.067,0.04,0.071,0.093,0.015,0.149c-0.585,0.768-1.651,1.513-3.201,2.239c1.351,0.364,2.888,0.474,4.611,0.324l-0.138,1.087
			c-2.1,0.183-3.998-0.124-5.699-0.926c-1.592,0.576-3.4,0.9-5.424,0.976l-0.199-1.063c1.667-0.016,3.165-0.213,4.499-0.588
			c-0.582-0.415-1.139-0.912-1.663-1.485C83.157,23.166,82.494,23.519,82.094,23.677z M84.231,18.925
			c-0.592,0.967-1.241,1.704-1.949,2.212c-0.191-0.375-0.393-0.655-0.6-0.839c0.649-0.466,1.191-1.115,1.624-1.947L84.231,18.925z
			 M86.568,16.738c-0.233-0.433-0.441-0.767-0.624-1.001l0.661-0.423c-1.041,0.024-1.964,0.037-2.772,0.037
			c0.267,0.292,0.537,0.655,0.81,1.088l-0.448,0.3H86.568z M86.83,23.725c1.235-0.533,2.094-0.963,2.575-1.286
			c0-0.05-0.054-0.072-0.162-0.064h-4.038c0.31,0.343,0.567,0.601,0.775,0.775C86.24,23.357,86.524,23.55,86.83,23.725z
			 M87.181,17.875c0.384,0.341,0.713,0.655,0.989,0.938l-0.738,0.637c-0.232-0.266-0.55-0.563-0.947-0.888L87.181,17.875z
			 M90.745,18.2c0.674,0.909,1.186,1.7,1.535,2.377l-0.861,0.46c-0.434-0.84-0.938-1.612-1.513-2.311L90.745,18.2z"/>
		<path fill="#FFFFFF" d="M93.831,24.099v-1.036h5.298v-1.012h-4.16c-0.192,0-0.288-0.101-0.288-0.3V17.15
			c0.008-0.191,0.104-0.288,0.288-0.288h4.16V15.85h-4.897v-1.037h4.897v-0.9h1.138v0.9h4.823v1.037h-4.823v1.012h4.149
			c0.2,0.01,0.3,0.105,0.3,0.288v4.601c0,0.199-0.1,0.3-0.3,0.3h-4.149v1.012h5.224v1.036h-5.224v1.677h-1.138v-1.677H93.831z
			 M99.129,17.9h-3.262c-0.04,0-0.058,0.017-0.051,0.049v0.963h3.313V17.9z M99.129,19.95h-3.313v1c0,0.034,0.019,0.054,0.051,0.062
			h3.262V19.95z M100.267,18.914h3.312v-0.963c0-0.032-0.016-0.049-0.049-0.049h-3.263V18.914z M100.267,21.012h3.263
			c0.033-0.009,0.049-0.027,0.049-0.062v-1h-3.312V21.012z"/>
		<path fill="#FFFFFF" d="M108.667,25.724h-0.938v-5.386c-0.16,0.209-0.317,0.429-0.476,0.663l-0.813-0.687
			c1.109-1.16,1.863-2.364,2.263-3.614c0.041-0.165-0.019-0.249-0.176-0.249h-1.986v-1.038h1.312v-1.351h0.989v1.351h0.486
			l0.5,0.324c-0.226,1.001-0.612,2.043-1.162,3.126v0.649c0.501,0.482,0.986,0.994,1.464,1.524l-0.725,0.664
			c-0.219-0.284-0.465-0.588-0.739-0.913V25.724L108.667,25.724z M110.429,18.025c-0.177,0.468-0.442,0.98-0.801,1.538l-0.786-0.451
			c0.382-0.601,0.642-1.092,0.774-1.475L110.429,18.025z M110.702,20.4l-1.012-0.325c1.06-1.817,1.644-3.741,1.75-5.776l1.038,0.088
			c-0.116,1.068-0.278,2.018-0.487,2.85v8.486h-0.987v-5.849C110.902,20.066,110.803,20.242,110.702,20.4z M115.716,25.825h-1.039
			V22.7c-0.492,0.768-1.049,1.402-1.675,1.911l-0.837-0.662c1.065-0.891,1.889-1.924,2.461-3.1h-2.299v-1.037h2.35V18.65h-1.85
			c-0.1,0-0.151-0.051-0.151-0.15v-3.887c0-0.1,0.052-0.15,0.151-0.15h4.936c0.099,0,0.148,0.05,0.148,0.15V18.5
			c0,0.1-0.05,0.15-0.148,0.15h-2.049v1.163h2.623v1.037h-2.574c0.608,1.217,1.513,2.3,2.712,3.248l-0.886,0.6
			c-0.801-0.729-1.425-1.409-1.874-2.036L115.716,25.825L115.716,25.825z M113.753,15.5c-0.025,0-0.037,0.014-0.037,0.039v2.025
			c0,0.035,0.012,0.049,0.037,0.049h3.075c0.033,0,0.049-0.015,0.049-0.049v-2.025c0-0.025-0.016-0.039-0.049-0.039H113.753z"/>
		<path fill="#FFFFFF" d="M129.975,22.538H131v1.087h-1.188c-0.182,0.974-0.528,1.625-1.037,1.948
			c-0.644,0.333-1.749,0.326-3.324-0.024l0.073-1.275c0.81,0.251,1.427,0.375,1.851,0.375c0.401-0.019,0.606-0.051,0.612-0.101
			c0.267-0.092,0.452-0.379,0.563-0.862c0-0.032,0.004-0.053,0.014-0.061h-7.362c-0.033,0.125-0.063,0.254-0.088,0.387l-1.088-0.175
			c0.401-1.817,0.692-3.287,0.877-4.413h-1.425v-1.088h1.586c0.15-0.991,0.2-2.224,0.15-3.699c0-0.133,0.025-0.229,0.075-0.289
			c0.059-0.065,0.142-0.099,0.251-0.099h8.386c0.117,0.007,0.206,0.041,0.263,0.099c0.141,0.151,0.176,1.481,0.1,3.988h0.85v1.088
			h-0.9C130.197,20.4,130.109,21.438,129.975,22.538z M122.001,19.425c-0.008,0.033-0.012,0.067-0.012,0.1
			c-0.108,0.901-0.288,1.903-0.538,3.013h7.325c0.101-0.627,0.198-1.663,0.3-3.113L122.001,19.425L122.001,19.425z M129.139,18.337
			c0.059-1.883,0.05-2.863-0.026-2.937c-0.023-0.05-0.071-0.075-0.148-0.075h-6.462c-0.059,0-0.104,0.013-0.138,0.037
			c-0.033,0.024-0.05,0.076-0.05,0.15c0.023,0.651-0.037,1.592-0.188,2.824H129.139z M125.388,15.676
			c0.691,1.182,1.055,1.812,1.088,1.887l-0.976,0.45c-0.274-0.567-0.626-1.175-1.062-1.826L125.388,15.676z M125.452,19.788
			c0.434,0.708,0.791,1.392,1.076,2.049l-0.989,0.413c-0.249-0.567-0.601-1.229-1.051-1.988L125.452,19.788z"/>
		<path fill="#FFFFFF" d="M135.9,19.925l-2.888,5.975l-0.749-0.351l2.674-5.625l-2.712-5.611l0.773-0.3L135.9,19.925z
			 M137.85,19.925l-2.949,5.962l-0.737-0.364l2.8-5.599l-2.837-5.611l0.774-0.3L137.85,19.925z"/>
	</g>
</g>
</svg>
