<?xml version="1.0" encoding="utf-8"?>
<!-- Generator: Adobe Illustrator 16.0.0, SVG Export Plug-In . SVG Version: 6.00 Build 0)  -->
<!DOCTYPE svg PUBLIC "-//W3C//DTD SVG 1.1//EN" "http://www.w3.org/Graphics/SVG/1.1/DTD/svg11.dtd">
<svg version="1.1" id="圖層_1" xmlns="http://www.w3.org/2000/svg" xmlns:xlink="http://www.w3.org/1999/xlink" x="0px" y="0px"
	 width="150px" height="40px" viewBox="0 0 150 40" enable-background="new 0 0 150 40" xml:space="preserve">
<g>
	<g>
		<path fill="#FFFFFF" stroke="#040000" stroke-width="0.1" stroke-miterlimit="10" d="M77.219,15.407
			c-0.066,0.747-0.133,1.494-0.201,2.241c-0.02,0.191-0.074,0.381-0.066,0.568c0.023,0.55,0.352,0.755,0.801,0.436
			c0.533-0.377,0.998-0.85,1.484-1.287c0.473-0.425,0.936-0.865,1.41-1.289c0.137-0.121,0.299-0.21,0.613-0.425
			c-0.039,0.366-0.039,0.556-0.08,0.735c-0.098,0.413-0.234,0.818-0.314,1.234c-0.027,0.144,0.018,0.4,0.107,0.448
			c0.137,0.068,0.381,0.057,0.516-0.026c0.66-0.419,1.301-0.876,1.949-1.319c0.105-0.072,0.205-0.154,0.314-0.214
			c0.641-0.345,0.934-0.16,0.918,0.584c-0.02,1.188,0.627,1.896,1.736,1.889c0.779-0.002,1.428-0.563,1.359-1.282
			c-0.146-1.605,0.303-3.079,0.963-4.488c0.625-1.329,1.418-2.57,2.502-3.594c0.033-0.028,0.055-0.069,0.092-0.088
			c0.385-0.194,0.797-0.561,1.152-0.514c0.227,0.028,0.477,0.652,0.543,1.04c0.359,2.138-0.318,4.023-1.557,5.733
			c-0.486,0.668-1.059,1.274-1.539,1.945c-0.152,0.21-0.268,0.604-0.17,0.792c0.088,0.164,0.516,0.257,0.762,0.209
			c0.768-0.15,1.527-0.354,2.27-0.604c0.176-0.057,0.326-0.361,0.379-0.579c0.156-0.618,0.266-1.248,0.367-1.876
			c0.117-0.718,0.504-1.242,1.084-1.658c0.865-0.62,1.688-0.586,2.416,0.121c0.752,0.733,0.854,1.6,0.242,2.466
			c-0.32,0.45-0.703,0.851-1.045,1.284c-0.121,0.153-0.195,0.34-0.404,0.708c0.836-0.085,1.486-0.104,2.109-0.231
			c0.48-0.099,0.613-0.543,0.654-0.993c0.076-0.809,0.186-1.591,0.787-2.229c0.738-0.787,1.701-1.151,2.695-1.111
			c1.977,0.084,2.982-0.989,3.654-2.631c0.283-0.685,0.605-1.352,0.93-2.018c0.09-0.187,0.213-0.402,0.381-0.502
			c0.287-0.169,0.625-0.257,0.938-0.379c0.059,0.305,0.244,0.665,0.145,0.904c-0.373,0.898-0.813,1.775-1.277,2.63
			c-0.803,1.473-1.658,2.921-2.465,4.392c-0.299,0.543-0.609,1.191-0.16,1.729c0.469,0.565,1.135,0.233,1.721,0.063
			c1.072-0.313,1.695-0.96,1.928-2.116c0.316-1.568,1.369-2.593,2.852-3.172c0.75-0.29,1.514-0.128,2.043,0.338
			c0.518,0.456,0.598,1.238,0.324,1.907c-0.25,0.613-0.654,1.161-0.961,1.754c-0.109,0.215-0.133,0.473-0.193,0.713
			c0.268-0.04,0.584,0,0.795-0.132c0.691-0.424,0.703-1.221,0.91-1.895c0.426-1.424,1.072-2.684,2.375-3.506
			c0.547-0.344,1.098-0.699,1.77-0.335c0.734,0.399,0.813,1.112,0.766,1.829c-0.07,1.094-0.627,1.97-1.396,2.713
			c-0.588,0.571-1.215,1.106-1.768,1.759c1.217,0.643,2.332-0.367,3.459,0.015c-0.832,1.488-2.514,2.359-3.961,1.944
			c-0.432-0.126-0.871-0.507-1.131-0.89c-0.514-0.76-1.57-1.134-2.471-0.585c-0.689,0.422-1.271,1.035-1.863,1.598
			c-1.113,1.063-2.381,1.858-3.879,2.206c-0.404,0.095-1.02,0.028-1.27-0.223c-0.209-0.213-0.104-0.835,0.01-1.232
			c0.127-0.455,0.416-0.866,0.727-1.478c-0.559-0.03-1.004-0.092-1.439-0.071c-1.018,0.046-2.035,0.17-3.057,0.186
			c-0.32,0.005-0.707-0.16-0.947-0.377c-0.4-0.363-0.793-0.367-1.23-0.181c-0.529,0.224-1.039,0.496-1.57,0.709
			c-1.063,0.426-2.078,0.467-2.904-0.498c-0.318-0.37-0.648-0.172-0.988-0.064c-0.768,0.243-1.523,0.591-2.305,0.679
			c-0.611,0.068-1.285-0.121-1.889-0.32c-0.557-0.182-1.031-0.342-1.539,0.097c-0.811,0.703-1.453,0.747-2.389,0.233
			c-1.729-0.957-1.729-0.957-3.098,0.463c-0.721,0.745-1.484,0.814-2.24,0.119c-0.592-0.546-1.217-0.622-1.93-0.339
			c-0.295,0.12-0.59,0.24-0.893,0.344c-0.727,0.25-1.132,0.02-1.285-0.751c-0.077-0.375-0.094-0.76-0.146-1.141
			c-0.079-0.605-0.345-0.754-0.854-0.407c-0.615,0.42-1.174,0.917-1.771,1.36c-0.699,0.52-1.376,1.084-2.128,1.509
			c-1.462,0.831-1.97,0.366-2.39-0.739c-0.284-0.749-0.748-0.851-1.396-0.358c-0.372,0.277-0.702,0.613-1.037,0.94
			c-0.903,0.875-1.713,0.839-2.445-0.191c-0.392-0.549-0.68-1.174-0.997-1.774c-0.334-0.639-0.62-0.763-1.183-0.295
			c-0.75,0.619-1.422,1.334-2.123,2.012c-0.291,0.281-0.557,0.587-0.856,0.857c-0.128,0.112-0.315,0.162-0.474,0.239
			c-0.044-0.194-0.167-0.41-0.121-0.578c0.193-0.713,0.431-1.415,0.664-2.117c0.061-0.181,0.185-0.338,0.245-0.517
			c0.046-0.14,0.038-0.299,0.054-0.449c-0.159,0.044-0.361,0.042-0.467,0.142c-0.798,0.758-1.573,1.545-2.368,2.308
			c-1.417,1.36-3.053,1.936-4.962,1.206c-1.111-0.425-1.958-1.24-2.729-2.132c-0.541-0.624-1.065-1.265-1.65-1.846
			c-0.71-0.705-1.386-0.712-2.005,0.087c-0.618,0.798-1.075,1.72-1.612,2.581c-0.093,0.149-0.234,0.269-0.354,0.4
			c-0.108-0.16-0.28-0.309-0.315-0.485c-0.227-1.114,0.36-1.983,0.972-2.796c1.442-1.904,3.347-3.263,5.476-4.274
			c1.296-0.615,2.679-0.957,4.14-0.453c0.986,0.341,2.099,1.786,2.073,2.825c-0.019,0.688-0.41,1.207-1.043,1.372
			c-1.063,0.28-2.155,0.452-3.239,0.649c-0.564,0.1-1.143,0.116-1.702,0.237c-0.447,0.096-0.586,0.422-0.319,0.819
			c0.737,1.097,3.036,1.938,4.303,1.424c0.901-0.369,1.726-0.969,2.509-1.565c0.962-0.729,1.835-1.572,2.765-2.343
			c0.552-0.459,1.188-0.434,1.706,0c0.552,0.459,1.051,0.291,1.6,0.087c0.576-0.217,1.145-0.469,1.74-0.611
			c0.753-0.179,1.187,0.153,1.283,0.923c0.054,0.418,0.04,0.844,0.042,1.266c0.002,0.211-0.071,0.434-0.029,0.634
			c0.099,0.46,0.247,0.91,0.375,1.361c0.427-0.136,0.935-0.17,1.264-0.431c1.233-0.972,2.396-2.032,3.607-3.03
			c0.62-0.512,1.268-0.999,1.946-1.435c0.847-0.545,1.625-0.231,1.935,0.729c0.197,0.613,0.367,1.321,1.082,1.453
			c0.754,0.14,1.224-0.455,1.69-0.962c0.28-0.307,0.603-0.573,0.907-0.855C77.045,15.334,77.127,15.37,77.219,15.407z
			 M50.045,16.753c0.563-0.123,1.134-0.19,1.662-0.376c0.834-0.295,1.157-0.94,0.941-1.682c-0.188-0.64-0.829-0.96-1.644-0.867
			c-1.239,0.14-2.317,0.655-3.316,1.362c-0.62,0.436-0.614,0.789,0.115,1.051C48.509,16.496,49.273,16.584,50.045,16.753z
			 M92.428,11.279c-0.055-0.112-0.15-0.308-0.248-0.504c-0.27,0.132-0.625,0.196-0.791,0.409c-1.057,1.352-1.822,2.854-2.086,4.571
			c-0.033,0.229,0.121,0.488,0.188,0.733c0.24-0.101,0.549-0.138,0.705-0.313C91.418,14.819,92.084,13.189,92.428,11.279z
			 M109.877,16.914c0.99,0.007,1.918-0.877,1.971-1.873c0.021-0.492-0.484-1-0.967-0.967c-0.871,0.058-1.822,1-1.889,1.872
			C108.947,16.562,109.264,16.91,109.877,16.914z M68.883,19.17c0.126,0.949,0.59,1.306,1.375,0.904
			c0.513-0.261,0.96-0.679,1.376-1.091c0.105-0.104,0.07-0.549-0.054-0.652c-0.435-0.361-0.922-0.672-1.425-0.936
			c-0.133-0.069-0.505,0.045-0.575,0.176C69.306,18.082,69.109,18.634,68.883,19.17z M102.637,15.474
			c-0.754-0.045-1.307,0.247-1.744,0.746c-0.426,0.485-0.27,1.256,0.271,1.533c0.852,0.435,1.871-0.075,2.025-1.013
			c0.027-0.167,0.063-0.332,0.086-0.502C103.35,15.706,103.24,15.336,102.637,15.474z M108.396,18.297
			c-1.18,0.191-2.133,0.741-2.867,1.655c-0.086,0.106-0.121,0.351-0.059,0.458c0.082,0.136,0.311,0.297,0.441,0.272
			c1.174-0.236,2.227-0.692,2.854-1.796C108.979,18.515,108.811,18.284,108.396,18.297z M117.529,13.799
			c-0.074-0.124-0.133-0.338-0.24-0.366c-0.152-0.042-0.383,0.005-0.508,0.105c-0.811,0.643-1.268,1.513-1.51,2.498
			c-0.035,0.132,0.049,0.358,0.154,0.434c0.104,0.075,0.355,0.078,0.453,0C116.742,15.797,117.273,14.915,117.529,13.799z
			 M73.102,16.251c-0.029-0.115-0.021-0.32-0.121-0.433c-0.222-0.246-0.552-0.667-0.738-0.62c-0.426,0.11-0.793,0.459-1.184,0.708
			c0.181,0.271,0.345,0.561,0.551,0.81c0.1,0.121,0.283,0.176,0.435,0.25C72.716,17.292,73.105,17.045,73.102,16.251z
			 M96.527,15.282c-0.094-0.068-0.266-0.3-0.459-0.318c-0.484-0.045-0.969,0.622-0.924,1.293c0.014,0.178,0.23,0.458,0.396,0.491
			C95.973,16.834,96.518,16.085,96.527,15.282z"/>
		<path fill="#FFFFFF" stroke="#040000" stroke-width="0.1" stroke-miterlimit="10" d="M41.99,21.626
			c-0.795,0.967-1.494,1.808-2.687,1.981c-0.843,0.121-1.478-0.319-2.027-0.868c-0.524-0.521-0.995-1.099-1.47-1.67
			c-0.564-0.678-1.103-1.211-2.145-0.843c-0.949,0.338-1.983-0.315-2.62-1.455c-0.121-0.218-0.206-0.455-0.371-0.831
			c0.364,0.052,0.605,0.05,0.822,0.124c1.703,0.592,3.233,0.309,4.392-1.084c0.986-1.187,1.854-2.476,2.719-3.758
			c1.25-1.854,2.451-3.762,4.245-5.144c2.516-1.94,5.197-3.612,8.293-4.497c3.548-1.017,6.993-0.442,10.368,0.79
			c1.695,0.618,3.357,1.326,5.03,1.997c0.197,0.078,0.388,0.177,0.567,0.29c0.498,0.313,0.526,0.519,0.001,0.807
			c-2.494,1.362-4.958,2.854-7.848,3.182c-2.337,0.263-4.692,0.379-7.042,0.481c-2.86,0.124-5.697,0.352-8.334,1.578
			c-1.851,0.861-3.662,1.817-5.196,3.188c-0.827,0.738-1.373,1.688-1.195,2.852c0.225,1.498,1.367,2.1,2.651,2.492
			C40.685,21.399,41.256,21.474,41.99,21.626z M41.285,12.989c0.046,0.061,0.092,0.12,0.137,0.18
			c0.391-0.176,0.801-0.32,1.169-0.538c1.342-0.797,2.768-1.413,4.29-1.736c2.48-0.528,5.005-0.669,7.538-0.663
			c1.973,0.004,3.963,0.154,5.889-0.39c0.803-0.225,1.553-0.649,2.308-1.023c0.143-0.072,0.19-0.338,0.282-0.513
			c-0.166-0.064-0.327-0.171-0.494-0.181c-0.4-0.02-0.81,0.056-1.202,0.006c-3.712-0.472-7.403-0.379-11.067,0.393
			c-2.948,0.624-5.646,1.814-8.043,3.654C41.792,12.411,41.552,12.718,41.285,12.989z M58.921,5.972
			c-0.011-0.456-0.288-0.684-0.716-0.698c-0.475-0.015-0.722,0.24-0.745,0.734c-0.024,0.51,0.28,0.699,0.691,0.699
			C58.592,6.708,58.924,6.499,58.921,5.972z"/>
		<path fill="#FFFFFF" stroke="#040000" stroke-width="0.1" stroke-miterlimit="10" d="M121.328,5.066
			c0.02,1.69-1.322,3.048-2.953,3.149c-2.143,0.133-3.727-1.913-3.717-3.489c0.01-1.948,1.225-3.248,3.111-3.26
			C119.428,1.454,121.434,3.013,121.328,5.066z M120.383,6.399c0.139-0.13,0.348-0.233,0.41-0.395
			c0.707-1.776-0.678-3.888-2.627-4.122c-1.686-0.201-3.357,1.172-3.133,3.085c0.168,1.44,1.363,2.691,2.814,2.854
			c1.18,0.133,2.303-0.499,2.533-1.426v0.003H120.383z"/>
		<path fill="#FFFFFF" stroke="#040000" stroke-width="0.1" stroke-miterlimit="10" d="M120.383,6.397
			c-0.914,0.535-1.074,0.504-1.729-0.301c-0.252-0.31-0.525-0.602-0.807-0.926c-0.654,0.376-0.068,1.016-0.348,1.443
			c-1.078,0.248-1.127,0.201-1.156-0.852c-0.021-0.806-0.063-1.61-0.119-2.414c-0.031-0.423,0.121-0.583,0.543-0.54
			c0.631,0.067,1.283,0.032,1.891,0.178c1.049,0.251,1.26,1.004,0.609,1.84c-0.084,0.109-0.154,0.37-0.098,0.431
			c0.387,0.401,0.803,0.765,1.213,1.143V6.397z M117.799,4.699c0.092,0.002,0.186,0.006,0.277,0.011
			c0.184-0.214,0.5-0.415,0.52-0.643c0.043-0.464-0.408-0.564-0.748-0.538c-0.143,0.009-0.363,0.353-0.367,0.55
			C117.473,4.281,117.682,4.491,117.799,4.699z"/>
	</g>
	<g>
		<path fill="#FFFFFF" stroke="#231815" stroke-width="0.1" stroke-miterlimit="10" d="M28.523,26.731h1.352
			c0.407,0,0.61,0.199,0.61,0.601c0,0.094-0.029,0.222-0.087,0.381l-0.654,1.907c-0.029,0.088-0.044,0.187-0.044,0.296
			c0,0.114,0.041,0.231,0.12,0.348c0.298,0.516,0.495,0.927,0.589,1.231c0.08,0.312,0.12,0.625,0.12,0.937
			c0,0.531-0.153,0.961-0.458,1.287c-0.291,0.334-0.662,0.502-1.112,0.502c-0.174,0-0.378-0.015-0.611-0.043v2.048
			c0,0.291-0.145,0.438-0.436,0.438c-0.292,0-0.436-0.146-0.436-0.438V27.55c0-0.546,0.29-0.818,0.871-0.818H28.523z M28.349,33.283
			c0.262,0.043,0.437,0.065,0.524,0.065c0.247,0,0.439-0.099,0.577-0.295c0.138-0.188,0.207-0.411,0.207-0.665
			c0-0.211-0.033-0.442-0.098-0.697c-0.08-0.306-0.291-0.736-0.632-1.298c-0.058-0.117-0.087-0.235-0.087-0.358
			c0-0.132,0.01-0.248,0.033-0.349l0.653-1.963c0-0.116-0.058-0.174-0.174-0.174H28.61c-0.174,0-0.262,0.088-0.262,0.261V33.283z
			 M36.502,33.229c0.261,0,0.393,0.13,0.393,0.392c0,0.283-0.131,0.424-0.393,0.424h-2.311v1.451h3.02
			c0.284,0,0.425,0.142,0.425,0.424c0,0.291-0.142,0.438-0.425,0.438h-6.976c-0.298,0-0.447-0.146-0.447-0.438
			c0-0.282,0.149-0.424,0.447-0.424h3.041v-1.451h-2.268c-0.261,0-0.392-0.141-0.392-0.424c0-0.262,0.131-0.392,0.392-0.392h2.268
			v-0.753c0-0.292,0.145-0.436,0.436-0.436c0.319,0,0.479,0.144,0.479,0.436v0.753H36.502z M36.546,27.375
			c0.262,0,0.393,0.13,0.393,0.392c0,0.291-0.13,0.437-0.393,0.437h-2.311v1.09h3.009c0.261,0,0.392,0.131,0.392,0.394
			c0,0.289-0.131,0.435-0.392,0.435h-2.006v0.873c0,0.348,0.145,0.523,0.436,0.523h1.439c0.29,0,0.436,0.115,0.436,0.349
			c0,0.27-0.146,0.402-0.436,0.402h-1.439c-0.873,0-1.309-0.426-1.309-1.274v-0.873h-1.308c-0.051,0.437-0.127,0.811-0.229,1.124
			c-0.116,0.377-0.298,0.676-0.545,0.894c-0.24,0.231-0.574,0.432-1.003,0.6l-0.054,0.011c-0.32,0-0.48-0.175-0.48-0.523
			c0-0.167,0.087-0.287,0.261-0.359c0.298-0.109,0.534-0.253,0.709-0.425c0.13-0.146,0.236-0.341,0.316-0.59
			c0.065-0.181,0.117-0.426,0.153-0.73h-1.525c-0.263,0-0.394-0.146-0.394-0.435c0-0.263,0.131-0.394,0.394-0.394h2.702v-1.09H31.14
			c-0.262,0-0.393-0.146-0.393-0.437c0-0.262,0.13-0.392,0.393-0.392h2.223v-0.566c0-0.29,0.146-0.436,0.437-0.436
			c0.291,0,0.436,0.146,0.436,0.436v0.566H36.546z"/>
		<path fill="#FFFFFF" stroke="#231815" stroke-width="0.1" stroke-miterlimit="10" d="M46.313,29.118
			c0.349,0,0.522,0.161,0.522,0.479c-0.232,1.601-0.446,2.788-0.643,3.564c-0.175,0.654-0.392,1.356-0.654,2.104h2.693
			c0.291,0,0.436,0.145,0.436,0.437c0,0.319-0.145,0.479-0.436,0.479h-9.506c-0.291,0-0.436-0.16-0.436-0.479
			c0-0.292,0.145-0.437,0.436-0.437h5.898c0.007-0.038,0.018-0.08,0.033-0.131c0.261-0.784,0.475-1.511,0.642-2.179
			c0.175-0.734,0.367-1.868,0.578-3.402C45.899,29.265,46.044,29.118,46.313,29.118z M43.479,26.373c0.32,0,0.479,0.159,0.479,0.479
			v0.796h4.012c0.291,0,0.436,0.146,0.436,0.437c0,0.32-0.146,0.479-0.436,0.479h-8.981c-0.292,0-0.437-0.158-0.437-0.479
			c0-0.291,0.145-0.437,0.437-0.437H43v-0.796C43,26.532,43.159,26.373,43.479,26.373z M40.382,29.118
			c0.225,0,0.386,0.106,0.48,0.317c0.313,0.813,0.636,2.146,0.97,3.999c0.08,0.372,0.121,0.634,0.121,0.786
			c0,0.29-0.175,0.436-0.524,0.436c-0.269,0-0.414-0.146-0.436-0.436c-0.262-1.695-0.589-3.132-0.981-4.317l-0.109-0.381
			C39.904,29.253,40.063,29.118,40.382,29.118z"/>
		<path fill="#FFFFFF" stroke="#231815" stroke-width="0.1" stroke-miterlimit="10" d="M52.068,28.335
			c0.291,0,0.436,0.145,0.436,0.436c0,0.29-0.145,0.436-0.436,0.436h-0.611v2.05c0.153-0.073,0.313-0.161,0.48-0.262l0.174-0.044
			c0.298,0,0.447,0.16,0.447,0.479c0,0.08-0.055,0.164-0.164,0.252c-0.24,0.182-0.552,0.369-0.938,0.565v3.292
			c0,0.661-0.407,0.991-1.221,0.991c-0.152,0-0.356-0.039-0.61-0.119c-0.232-0.086-0.349-0.231-0.349-0.436
			c0.015-0.276,0.145-0.422,0.393-0.437c0.015,0,0.047,0.004,0.097,0.012c0.211,0.072,0.353,0.109,0.426,0.109
			c0.261,0,0.393-0.133,0.393-0.394v-2.638c-0.232,0.102-0.458,0.186-0.676,0.25c-0.073,0.022-0.139,0.033-0.197,0.033
			c-0.291,0-0.436-0.146-0.436-0.436c0-0.247,0.102-0.408,0.305-0.48c0.393-0.109,0.727-0.218,1.003-0.327v-2.463h-0.742
			c-0.291,0-0.436-0.146-0.436-0.436c0-0.291,0.145-0.436,0.436-0.436h0.742v-1.57c0-0.291,0.146-0.436,0.436-0.436
			c0.29,0,0.436,0.145,0.436,0.436v1.57H52.068z M59.132,27.124c0.268,0,0.402,0.128,0.402,0.381c0,0.262-0.134,0.394-0.402,0.394
			h-3.14v0.664h2.147c0.545,0,0.817,0.26,0.817,0.774v0.698h0.578c0.226,0,0.338,0.118,0.338,0.358c0,0.255-0.113,0.382-0.338,0.382
			h-0.578v0.699c0,0.529-0.272,0.794-0.817,0.794h-2.147v0.993h2.747c0.262,0,0.393,0.134,0.393,0.402
			c0,0.254-0.131,0.381-0.393,0.381h-2.747v1.32c0.582,0.146,1.773,0.218,3.576,0.218c0.261,0.028,0.392,0.185,0.392,0.47
			c-0.021,0.275-0.181,0.424-0.48,0.446c-2.129-0.022-3.502-0.146-4.12-0.371c-0.494-0.175-0.908-0.41-1.243-0.709
			c-0.152-0.122-0.293-0.283-0.425-0.479c-0.225,0.508-0.563,0.967-1.013,1.373c-0.103,0.123-0.219,0.186-0.349,0.186
			c-0.32,0-0.48-0.161-0.48-0.48c0-0.036,0.03-0.127,0.088-0.272c0.516-0.413,0.868-0.886,1.058-1.417
			c0.138-0.413,0.206-0.857,0.206-1.328c0-0.263,0.131-0.395,0.393-0.395c0.29,0,0.436,0.132,0.436,0.395
			c0,0.312-0.018,0.608-0.055,0.892c0.175,0.313,0.36,0.554,0.556,0.721c0.167,0.159,0.363,0.301,0.589,0.424v-2.769h-1.919
			c-0.29,0-0.435-0.133-0.435-0.402c0-0.263,0.145-0.392,0.435-0.392h1.919v-0.699h-2.562c-0.24,0-0.359-0.127-0.359-0.382
			c0-0.24,0.119-0.358,0.359-0.358h2.562v-0.698h-1.832c-0.29,0-0.436-0.131-0.436-0.393c0-0.255,0.146-0.382,0.436-0.382h1.832
			v-0.664h-2.354c-0.262,0-0.393-0.132-0.393-0.394c0-0.253,0.13-0.381,0.393-0.381h2.354v-0.359c0-0.291,0.145-0.436,0.436-0.436
			c0.29,0,0.436,0.145,0.436,0.436v0.359H59.132z M55.992,29.337v0.698h2.093v-0.349c0-0.233-0.102-0.35-0.305-0.35H55.992z
			 M55.992,30.775v0.699h1.788c0.203,0,0.305-0.117,0.305-0.35v-0.35H55.992z"/>
		<path fill="#FFFFFF" stroke="#231815" stroke-width="0.1" stroke-miterlimit="10" d="M66.021,26.284
			c0.247,0,0.552,0.189,0.916,0.567c0.472,0.493,1.017,0.944,1.635,1.352c0.582,0.356,1.344,0.704,2.289,1.047
			c0.146,0.109,0.218,0.24,0.218,0.393c-0.022,0.356-0.197,0.546-0.523,0.565c-0.094,0-0.2-0.02-0.315-0.064
			c-0.989-0.451-1.686-0.814-2.093-1.091c-0.625-0.45-1.235-0.974-1.832-1.568c-0.101-0.132-0.199-0.196-0.294-0.196
			c-0.08,0-0.153,0.036-0.218,0.109c-0.706,0.755-1.469,1.376-2.29,1.863c-0.625,0.399-1.366,0.77-2.223,1.112
			c-0.087,0.043-0.182,0.064-0.284,0.064c-0.275-0.021-0.421-0.197-0.436-0.521c0.007-0.189,0.094-0.335,0.261-0.438
			c1.003-0.363,1.843-0.753,2.518-1.166c0.712-0.422,1.374-0.971,1.984-1.646C65.552,26.412,65.78,26.284,66.021,26.284z
			 M65.977,28.944c0.32,0,0.479,0.145,0.479,0.437v2.049h3.184c0.29,0,0.435,0.146,0.435,0.437c0,0.299-0.146,0.446-0.435,0.446
			h-3.184v3.129h4.186c0.291,0,0.436,0.146,0.436,0.436s-0.146,0.437-0.436,0.437H61.05c-0.291,0-0.436-0.146-0.436-0.437
			s0.145-0.436,0.436-0.436h1.177v-3.924c0-0.29,0.146-0.437,0.436-0.437c0.32,0,0.48,0.146,0.48,0.437v3.924h2.397v-6.061
			C65.54,29.089,65.686,28.944,65.977,28.944z"/>
		<path fill="#FFFFFF" stroke="#231815" stroke-width="0.1" stroke-miterlimit="10" d="M75.83,26.415
			c0.299,0,0.449,0.146,0.449,0.437v1.352h1.254v-1.352c0-0.291,0.143-0.437,0.434-0.437s0.438,0.146,0.438,0.437v1.352h0.916
			c0.006-0.079,0.02-0.135,0.043-0.163c0.268-0.313,0.543-0.708,0.826-1.188c0.045-0.138,0.148-0.206,0.307-0.206
			c0.139,0,0.258,0.031,0.359,0.097c0.109,0.066,0.164,0.146,0.164,0.241c0,0.058-0.016,0.133-0.045,0.229
			c-0.209,0.363-0.439,0.693-0.686,0.991h1.34c0.262,0,0.395,0.136,0.395,0.404c0,0.261-0.133,0.392-0.395,0.392h-2.234l-0.5,1.08
			h2.299c0.262,0,0.393,0.129,0.393,0.392c0,0.269-0.131,0.403-0.393,0.403h-3.881v0.644h3.576c0.262,0,0.391,0.131,0.391,0.393
			c0,0.268-0.129,0.402-0.391,0.402h-3.576v0.645h4.273c0.262,0,0.393,0.13,0.393,0.392c0,0.291-0.131,0.436-0.393,0.436h-3.695
			c0.553,0.32,1.053,0.585,1.504,0.796c0.539,0.233,1.34,0.49,2.41,0.774c0.23,0.044,0.348,0.188,0.348,0.436
			c0,0.319-0.16,0.48-0.479,0.48c-0.176,0-0.416-0.033-0.721-0.1c-0.479-0.123-0.965-0.294-1.461-0.511
			c-0.58-0.255-1.307-0.669-2.18-1.243v1.854c0,0.289-0.145,0.435-0.436,0.435s-0.436-0.146-0.436-0.435v-1.799
			c-0.465,0.362-0.887,0.639-1.265,0.828c-0.479,0.275-1.061,0.52-1.744,0.73c-0.458,0.159-0.791,0.24-1.002,0.24
			c-0.379,0-0.567-0.176-0.567-0.524c0-0.231,0.145-0.377,0.436-0.437c1.032-0.26,1.876-0.555,2.529-0.883
			c0.327-0.153,0.689-0.366,1.09-0.643h-3.487c-0.262,0-0.393-0.145-0.393-0.436c0-0.262,0.131-0.392,0.393-0.392h4.011v-0.645
			h-3.27c-0.262,0-0.393-0.135-0.393-0.402c0-0.262,0.13-0.393,0.393-0.393h3.27v-0.644h-3.663c-0.262,0-0.392-0.135-0.392-0.403
			c0-0.263,0.13-0.392,0.392-0.392h2.071l-0.533-1.08h-2.018c-0.261,0-0.393-0.131-0.393-0.392c0-0.269,0.132-0.404,0.393-0.404
			h1.46c-0.232-0.283-0.472-0.56-0.719-0.828c-0.058-0.116-0.086-0.199-0.086-0.251c0-0.29,0.161-0.437,0.479-0.437
			c0.088,0,0.174,0.026,0.262,0.077c0.276,0.305,0.537,0.654,0.786,1.046c0.028,0.08,0.043,0.156,0.043,0.229
			c0,0.065-0.007,0.12-0.023,0.163h0.895v-1.352C75.395,26.561,75.541,26.415,75.83,26.415z M75.766,30.079h2.215l0.5-1.08h-3.25
			L75.766,30.079z"/>
		<path fill="#FFFFFF" stroke="#231815" stroke-width="0.1" stroke-miterlimit="10" d="M92.922,27.212
			c0.262,0,0.393,0.13,0.393,0.393c0,0.291-0.131,0.436-0.393,0.436h-5.525c-0.152,0.231-0.313,0.454-0.48,0.665
			c-0.131,0.174-0.266,0.341-0.402,0.501h5.275c0.609,0,0.916,0.292,0.916,0.873v5.23c0,0.763-0.553,1.146-1.656,1.146
			c-0.451,0-0.99-0.076-1.613-0.229c-0.205-0.08-0.307-0.21-0.307-0.393c0-0.348,0.117-0.523,0.35-0.523
			c0.102,0,0.221,0.016,0.359,0.045c0.479,0.124,0.854,0.185,1.123,0.185c0.553,0,0.828-0.174,0.828-0.521v-1.102h-5.623v2.179
			c0,0.292-0.162,0.436-0.48,0.436c-0.291,0-0.436-0.144-0.436-0.436v-5.679c-0.486,0.399-1.055,0.752-1.701,1.059
			c-0.096,0.027-0.191,0.043-0.295,0.043c-0.125,0-0.229-0.048-0.316-0.142c-0.086-0.104-0.131-0.216-0.131-0.338
			c0-0.131,0.045-0.247,0.131-0.35c0.654-0.313,1.225-0.653,1.711-1.025c0.568-0.457,1.066-0.951,1.494-1.481
			c0.043-0.05,0.082-0.098,0.119-0.142h-2.801c-0.262,0-0.393-0.145-0.393-0.436c0-0.263,0.131-0.393,0.393-0.393h3.346
			c0.152-0.269,0.289-0.549,0.404-0.839c0.066-0.205,0.211-0.306,0.436-0.306c0.109,0,0.211,0.028,0.307,0.088
			c0.086,0.064,0.129,0.137,0.129,0.218c0,0.115-0.012,0.236-0.043,0.358c-0.066,0.16-0.137,0.319-0.207,0.48H92.922z
			 M86.166,31.125h5.623v-0.688c0-0.269-0.117-0.402-0.348-0.402h-4.971c-0.205,0-0.305,0.134-0.305,0.402V31.125z M86.166,33.13
			h5.623v-1.22h-5.623V33.13z"/>
		<path fill="#FFFFFF" stroke="#231815" stroke-width="0.1" stroke-miterlimit="10" d="M95.627,26.59h1.35
			c0.408,0,0.611,0.207,0.611,0.622c0,0.094-0.027,0.226-0.088,0.393l-0.609,1.993c-0.029,0.095-0.043,0.201-0.043,0.318
			c0,0.123,0.039,0.249,0.119,0.381c0.291,0.538,0.486,0.974,0.588,1.307c0.08,0.328,0.121,0.662,0.121,1.003
			c0,0.502-0.156,0.909-0.471,1.221c-0.297,0.321-0.678,0.48-1.143,0.48c-0.227,0-0.486-0.063-0.785-0.186v2.148
			c0,0.289-0.146,0.435-0.438,0.435c-0.283,0-0.424-0.146-0.424-0.435v-8.938c0-0.495,0.258-0.742,0.773-0.742H95.627z
			 M95.277,33.196c0.355,0.16,0.588,0.238,0.697,0.238c0.26,0,0.465-0.086,0.611-0.262c0.145-0.18,0.217-0.385,0.217-0.608
			c0-0.218-0.033-0.462-0.098-0.731c-0.08-0.333-0.293-0.807-0.643-1.417c-0.059-0.123-0.088-0.251-0.088-0.381
			c0-0.146,0.014-0.272,0.043-0.382l0.611-2.104c0-0.117-0.059-0.175-0.174-0.175h-0.916c-0.174,0-0.262,0.102-0.262,0.305V33.196z
			 M99.025,26.646h4.057c0.523,0,0.785,0.242,0.785,0.729v3.456c0,0.516-0.262,0.772-0.785,0.772h-2.158
			c0.107,0.473,0.229,0.84,0.359,1.102c0.131,0.275,0.297,0.557,0.502,0.839c0.719-0.486,1.297-0.943,1.732-1.373
			c0.168-0.058,0.27-0.086,0.305-0.086c0.291,0,0.438,0.145,0.438,0.435c0,0.153-0.059,0.284-0.176,0.393
			c-0.502,0.421-1.1,0.836-1.797,1.242c0.225,0.24,0.475,0.473,0.75,0.698c0.322,0.254,0.656,0.457,1.004,0.609
			c0.246,0.104,0.406,0.227,0.479,0.371c0.059,0.074,0.09,0.16,0.09,0.262c0,0.292-0.145,0.436-0.426,0.436
			c-0.131,0-0.393-0.111-0.785-0.337c-0.459-0.26-0.865-0.552-1.221-0.873c-0.387-0.363-0.684-0.679-0.895-0.947
			c-0.277-0.377-0.506-0.767-0.688-1.166s-0.34-0.934-0.479-1.604h-1.002v3.651c0.537-0.122,1.002-0.264,1.395-0.424
			c0.086-0.059,0.158-0.087,0.217-0.087c0.246,0.015,0.379,0.144,0.393,0.392c0,0.233-0.088,0.382-0.262,0.447
			c-0.406,0.188-0.939,0.373-1.602,0.556c-0.51,0.139-1.123,0.269-1.842,0.392c-0.248-0.014-0.379-0.173-0.393-0.478
			c0-0.278,0.131-0.435,0.393-0.47c0.311-0.044,0.59-0.087,0.828-0.131v-8.077C98.242,26.888,98.504,26.646,99.025,26.646z
			 M99.115,28.64h3.879v-0.916c0-0.174-0.088-0.262-0.262-0.262h-3.357c-0.174,0-0.26,0.088-0.26,0.262V28.64z M102.732,30.775
			c0.174,0,0.262-0.101,0.262-0.305v-1.035h-3.879v1.035c0,0.204,0.086,0.305,0.26,0.305H102.732z"/>
		<path fill="#FFFFFF" stroke="#231815" stroke-width="0.1" stroke-miterlimit="10" d="M107.879,27.811
			c0.115,0,0.217,0.029,0.305,0.088c0.086,0.058,0.131,0.135,0.131,0.229c0,0.108-0.016,0.223-0.045,0.338
			c-0.152,0.575-0.338,1.069-0.557,1.482c-0.225,0.437-0.484,0.839-0.783,1.209c-0.248,0.32-0.543,0.601-0.883,0.84
			c-0.096,0.03-0.197,0.045-0.307,0.045c-0.123,0-0.229-0.048-0.314-0.142c-0.082-0.096-0.121-0.208-0.121-0.339
			s0.043-0.247,0.131-0.349c0.305-0.226,0.57-0.469,0.795-0.73c0.277-0.334,0.514-0.694,0.709-1.079
			c0.195-0.356,0.365-0.78,0.502-1.275C107.506,27.916,107.652,27.811,107.879,27.811z M109.797,30.297
			c0.145,0,0.275,0.039,0.393,0.119c0.113,0.081,0.174,0.172,0.174,0.272c0,0.073-0.029,0.159-0.088,0.262
			c-0.646,1.62-1.369,3.056-2.168,4.305c2.02-0.071,3.861-0.221,5.525-0.446c-0.531-0.893-1.084-1.642-1.656-2.244
			c-0.029-0.124-0.045-0.224-0.045-0.296c0-0.239,0.16-0.358,0.48-0.358c0.158,0,0.305,0.072,0.436,0.218
			c0.988,1.105,1.82,2.339,2.498,3.705c0.049,0.146,0.074,0.276,0.074,0.393c0,0.263-0.203,0.394-0.609,0.394
			c-0.176,0-0.305-0.117-0.393-0.349c-0.102-0.212-0.207-0.415-0.316-0.61c-0.021,0-0.047,0-0.076,0
			c-2.783,0.325-5.443,0.559-7.979,0.697c-0.314,0-0.471-0.19-0.471-0.567c0-0.305,0.156-0.465,0.471-0.48
			c0.332-0.007,0.66-0.013,0.98-0.021c0.008-0.03,0.016-0.052,0.021-0.065c0.77-1.215,1.557-2.769,2.355-4.666
			C109.463,30.384,109.592,30.297,109.797,30.297z M109.012,26.646h3.053c0.457,0,0.777,0.242,0.959,0.729
			c0.246,0.757,0.527,1.367,0.838,1.831c0.211,0.335,0.473,0.662,0.785,0.982c0.182,0.188,0.453,0.431,0.818,0.729
			c0.115,0.116,0.174,0.247,0.174,0.393c-0.016,0.298-0.174,0.457-0.479,0.479c-0.117,0-0.248-0.063-0.395-0.187
			c-0.398-0.29-0.715-0.563-0.947-0.817c-0.348-0.362-0.672-0.78-0.971-1.252c-0.277-0.494-0.508-1.055-0.697-1.68
			c-0.043-0.232-0.158-0.35-0.348-0.35h-2.791c-0.291,0-0.438-0.144-0.438-0.436C108.574,26.787,108.721,26.646,109.012,26.646z"/>
		<path fill="#FFFFFF" stroke="#231815" stroke-width="0.1" stroke-miterlimit="10" d="M117.164,26.765h8.199
			c0.639,0,0.957,0.319,0.957,0.959v7.456c0,0.93-0.582,1.396-1.742,1.396c-0.713,0-1.484-0.103-2.313-0.305
			c-0.291-0.06-0.436-0.205-0.436-0.438c0-0.318,0.145-0.479,0.436-0.479c0.975,0.202,1.744,0.306,2.313,0.306
			c0.551,0,0.828-0.215,0.828-0.643v-6.891c0-0.32-0.146-0.479-0.438-0.479h-7.805c-0.281,0-0.426-0.146-0.426-0.436
			C116.738,26.914,116.883,26.765,117.164,26.765z M123.924,28.465c0.291,0,0.436,0.146,0.436,0.436
			c0,0.292-0.145,0.437-0.436,0.437h-6.41c-0.291,0-0.436-0.145-0.436-0.437c0-0.29,0.145-0.436,0.436-0.436H123.924z
			 M118.561,30.297h4.316c0.639,0,0.959,0.305,0.959,0.915v2.311c0,0.64-0.32,0.96-0.959,0.96h-4.316
			c-0.641,0-0.959-0.32-0.959-0.96v-2.311C117.602,30.602,117.92,30.297,118.561,30.297z M122.572,33.664
			c0.26,0,0.393-0.145,0.393-0.435v-1.712c0-0.262-0.133-0.393-0.393-0.393h-3.707c-0.262,0-0.393,0.131-0.393,0.393v1.712
			c0,0.29,0.131,0.435,0.393,0.435H122.572z"/>
	</g>
</g>
</svg>
