<?xml version="1.0" encoding="utf-8"?>
<!-- Generator: Adobe Illustrator 16.0.0, SVG Export Plug-In . SVG Version: 6.00 Build 0)  -->
<!DOCTYPE svg PUBLIC "-//W3C//DTD SVG 1.1//EN" "http://www.w3.org/Graphics/SVG/1.1/DTD/svg11.dtd">
<svg version="1.1" id="圖層_1" xmlns="http://www.w3.org/2000/svg" xmlns:xlink="http://www.w3.org/1999/xlink" x="0px" y="0px"
	 width="425.197px" height="113.385px" viewBox="0 0 425.197 113.385" enable-background="new 0 0 425.197 113.385"
	 xml:space="preserve">
<g>
	<g>
		<path fill="#FFFFFF" d="M178.817,68.031h-54.64v-5.587h15.963c-1.962-11.215-4.584-20.875-7.857-28.981l4.359-3.033h-10.252v-5.65
			h22.807c-1.049-2.943-2.426-5.864-4.146-8.748l6.048-2.057c1.847,3.438,3.429,7.039,4.763,10.805h21.331v5.65h-11.203l4.604,2.974
			c-1.207,8.471-3.706,18.151-7.492,29.041h15.715V68.031z M165.254,30.43h-27.693c3.579,9.516,6.374,20.184,8.379,32.014h11.117
			C161.188,50.635,163.917,39.964,165.254,30.43z"/>
		<path fill="#FFFFFF" d="M242.179,65.634l-3.383,4.544c-12.42-7.921-20.493-18.457-24.219-31.618
			c-3.904,12.649-12.076,23.034-24.495,31.16l-3.345-4.881c12.834-8.369,20.646-18.623,23.452-30.759h-22.132l-0.063-5.646h22.933
			c0.447-4.401,0.706-8.884,0.764-13.449h5.648c-0.061,5.466-0.239,9.948-0.551,13.449h24.593v5.646h-22.777
			C221.669,47.586,229.532,58.108,242.179,65.634z"/>
		<path fill="#FFFFFF" d="M262.187,40.309c0,7.76-0.717,13.883-2.146,18.375c-1.435,4.495-3.446,8.365-6.048,11.618l-4.513-3.714
			c2.519-3.562,4.299-7.135,5.346-10.729c1.043-3.591,1.559-9.295,1.559-17.114V14.651h5.803V40.309z M280.793,65.573h-5.682V17.932
			h5.682V65.573z M301.02,69.933h-5.774V15.047h5.774V69.933z"/>
		<path fill="#FFFFFF" d="M145.539,85.902l-1.104,1.948c-4.236-1.74-7.408-4.068-9.523-6.996c-0.96,1.167-2.115,2.268-3.464,3.299
			c-1.348,1.035-3.409,2.196-6.166,3.498l-1.106-2.02c4.751-1.994,8.105-4.483,10.07-7.475l2.406,0.481l-0.435,0.597
			C138.39,82.17,141.497,84.392,145.539,85.902z M145.231,98.88h-20.891v-2.121h3.628v-8.512h2.219v8.512h4.014v-12.35l2.112,0.023
			v5.002h6.973v2.086h-6.973v5.238h8.918V98.88z"/>
		<path fill="#FFFFFF" d="M176.362,93.494h-9.422v5.76h-2.135v-5.76h-9.402v-1.807h9.402v-1.216h-8.264v-1.81h8.264v-1.179h-8.878
			V85.68h5.486c-0.256-0.383-0.539-0.729-0.833-1.034l1.611-0.894h-6.835V81.96h7.356v-3.579h2.092v3.579h2.158v-3.579h2.104v3.579
			h7.25v1.792h-6.63l1.418,0.752c-0.312,0.524-0.576,0.917-0.792,1.176h5.518v1.804h-8.89v1.179h8.319v1.81h-8.319v1.216h9.422
			V93.494z M163.055,95.512c-2.207,1.587-4.288,2.801-6.232,3.627l-1.397-1.68c1.893-0.723,3.884-1.841,5.958-3.346L163.055,95.512z
			 M160.978,80.632l-1.611,1.161c-0.697-0.827-1.409-1.539-2.135-2.124l1.61-1.244C159.693,79.148,160.405,79.88,160.978,80.632z
			 M168.957,83.752h-6.319c0.476,0.565,0.914,1.205,1.343,1.928h3.636C168.135,85.067,168.582,84.427,168.957,83.752z
			 M176.794,97.347l-1.17,1.724c-2.308-1.344-4.602-2.43-6.878-3.266l1.248-1.731C172.166,94.898,174.431,95.987,176.794,97.347z
			 M174.489,79.387c-0.45,0.648-1.141,1.395-2.069,2.233l-1.901-1.13c0.732-0.594,1.432-1.297,2.101-2.109L174.489,79.387z"/>
		<path fill="#FFFFFF" d="M207.879,82.582h-11.681c-0.312,0.631-0.732,1.32-1.256,2.063h11.286v12.886
			c0,0.533-0.146,0.939-0.435,1.233c-0.286,0.291-0.718,0.443-1.294,0.455c-0.579,0.015-1.15,0.022-1.717,0.022
			c-0.899,0-1.637-0.008-2.219-0.034l-0.925-2.138c1.017,0.052,2.322,0.072,3.91,0.072c0.332,0,0.504-0.182,0.504-0.551v-2.207
			h-10.719c-0.4,1.7-1.236,3.316-2.496,4.85l-2.042-1.156c1.729-1.89,2.59-3.659,2.59-5.31v-3.87
			c-1.063,1.124-2.106,2.006-3.144,2.671l-1.536-1.634c2.873-1.939,5.187-4.391,6.947-7.354h-6.688V80.49h7.814
			c0.51-0.898,0.876-1.691,1.104-2.38l2.218,0.36c-0.205,0.613-0.487,1.285-0.847,2.02h10.624V82.582z M204.052,88.587v-1.901
			h-10.471v1.901H204.052z M204.052,92.414v-1.873h-10.471v1.873H204.052z"/>
		<path fill="#FFFFFF" d="M223.602,85.585c1.34,1.934,2.009,3.757,2.009,5.48c0,2.241-1.106,3.365-3.314,3.365
			c-0.232,0-0.483-0.006-0.758-0.022l-0.599-2.147c0.308,0.055,0.659,0.078,1.069,0.078c0.564,0,0.944-0.075,1.149-0.228
			c0.201-0.164,0.306-0.473,0.306-0.937c0-1.772-0.712-3.562-2.139-5.368c0.455-1.115,1.009-2.786,1.657-4.999h-2.643v18.47h-2.065
			V78.658h6.938v2.149C224.694,82.56,224.156,84.153,223.602,85.585z M237.404,88.754h-8.604v7.723
			c1.104-0.337,2.279-0.804,3.532-1.395l0.121,2.236c-2.169,0.938-3.981,1.584-5.437,1.936l-0.772-1.795
			c0.303-0.193,0.455-0.504,0.455-0.937v-17.79h10.704V88.754z M235.258,82.802v-2.149h-6.457v2.149H235.258z M235.258,86.841
			v-2.149h-6.457v2.149H235.258z M238.744,97.647l-1.222,1.764c-3.411-2.063-5.645-5.115-6.702-9.143l1.937-0.597
			c0.291,1.02,0.648,1.928,1.072,2.726c1.037-0.758,2.057-1.718,3.048-2.893l1.533,1.397c-1.188,1.438-2.349,2.573-3.483,3.391
			C235.937,95.601,237.212,96.716,238.744,97.647z"/>
		<path fill="#FFFFFF" d="M258.128,78.883c-1.567,4.235-4.135,7.791-7.714,10.67l-1.368-1.83c3.21-2.42,5.526-5.61,6.946-9.566
			L258.128,78.883z M268.841,98.078l-1.913,1.332c-0.443-1.049-0.894-1.951-1.352-2.7c-3.697,0.867-8.224,1.662-13.577,2.383
			l-0.622-1.833c2.057-1.483,4.469-5.561,7.229-12.229l2.181,0.648c-1.947,4.559-3.95,8.197-6.005,10.912
			c3.604-0.415,6.844-0.979,9.716-1.703c-0.483-0.836-1.316-2.049-2.495-3.639l1.764-1.147
			C265.766,92.607,267.455,95.267,268.841,98.078z M270.411,87.826l-1.279,1.891c-2.974-2.106-5.189-5.175-6.65-9.2h-1.95v-2.046
			h3.483C265.248,82.571,267.377,85.689,270.411,87.826z"/>
		<path fill="#FFFFFF" d="M301.02,96.453c0,1.864-0.919,2.801-2.746,2.801c-1.619,0-2.807-0.012-3.556-0.046l-0.622-2.161
			c1.786,0.041,3.025,0.061,3.72,0.061c0.686,0,1.034-0.204,1.034-0.607V80.681h-17.982V78.71h20.152V96.453z M296.883,84.692
			h-15.511v-1.945h15.511V84.692z M295.344,95.031h-12.571v-8.094h12.571V95.031z M293.157,93.036v-4.138h-8.247v4.138H293.157z"/>
	</g>
</g>
</svg>
