<?xml version="1.0" encoding="utf-8"?>
<!-- Generator: Adobe Illustrator 16.0.0, SVG Export Plug-In . SVG Version: 6.00 Build 0)  -->
<!DOCTYPE svg PUBLIC "-//W3C//DTD SVG 1.1//EN" "http://www.w3.org/Graphics/SVG/1.1/DTD/svg11.dtd">
<svg version="1.1" id="圖層_1" xmlns="http://www.w3.org/2000/svg" xmlns:xlink="http://www.w3.org/1999/xlink" x="0px" y="0px"
	 width="150px" height="40px" viewBox="0 0 150 40" enable-background="new 0 0 150 40" xml:space="preserve">
<g>
	<g>
		<path fill="#189AD2" d="M9.641,26.172c-0.079,0.113-0.148,0.23-0.212,0.353c-0.004,0.009-0.009,0.016-0.014,0.024l0.003-0.003
			c-0.202,0.388-0.334,0.817-0.368,1.273c-0.15,1.95,1.434,3.662,3.538,3.823c1.724,0.134,3.261-0.817,3.842-2.235
			c0.181-0.284,0.34-0.615,0.475-0.998c2.58-7.3,8.447-8.59,8.447-8.59S14.112,18.792,9.641,26.172z"/>
		<g>
			<path fill="#060001" d="M11.793,27.577l1.004,1.711l1.142-0.677l0.108-2.246C13.056,27.623,11.793,27.577,11.793,27.577z"/>
			<path fill="#D51523" d="M11.203,26.514l-0.007,0.002l0.453,0.779c0,0,1.27,0.145,2.362-1.159l0.058-0.963
				C12.527,26.897,11.28,26.503,11.203,26.514z"/>
			
				<linearGradient id="SVGID_1_" gradientUnits="userSpaceOnUse" x1="32.9858" y1="105.2314" x2="40.8404" y2="112.9177" gradientTransform="matrix(0.9148 -0.4039 0.4039 0.9148 -66.2891 -65.6415)">
				<stop  offset="0" style="stop-color:#CCCDCE"/>
				<stop  offset="0.0329" style="stop-color:#C1C2C3"/>
				<stop  offset="0.2464" style="stop-color:#7D7C7C"/>
				<stop  offset="0.4003" style="stop-color:#525050"/>
				<stop  offset="0.478" style="stop-color:#423F3F"/>
				<stop  offset="0.6275" style="stop-color:#3D3939"/>
				<stop  offset="0.8322" style="stop-color:#302927"/>
				<stop  offset="0.9966" style="stop-color:#221714"/>
			</linearGradient>
			<path fill="url(#SVGID_1_)" d="M5.456,16.907l-0.009,0.004l5.664,9.379c0,0,1.231,0.479,2.951-1.359l1.026-11.588
				C10.392,17.21,5.554,16.894,5.456,16.907z"/>
			
				<radialGradient id="SVGID_2_" cx="16.292" cy="21.3008" r="12.7963" gradientTransform="matrix(0.9694 -0.0395 0.0407 0.9992 -9.9355 -7.6979)" gradientUnits="userSpaceOnUse">
				<stop  offset="0" style="stop-color:#CCCDCE"/>
				<stop  offset="0.0329" style="stop-color:#C1C2C3"/>
				<stop  offset="0.2464" style="stop-color:#7D7C7C"/>
				<stop  offset="0.4003" style="stop-color:#525050"/>
				<stop  offset="0.478" style="stop-color:#423F3F"/>
				<stop  offset="0.6275" style="stop-color:#3D3939"/>
				<stop  offset="0.8322" style="stop-color:#302927"/>
				<stop  offset="0.9966" style="stop-color:#221714"/>
			</radialGradient>
			<path fill="url(#SVGID_2_)" d="M5.193,16.439c0,0-2.473-5.471,3.373-7.848c3.862-1.145,6.718,1.959,6.448,4.167
				C15.014,12.758,10.763,16.682,5.193,16.439z"/>
		</g>
	</g>
	<g>
		<g>
			<path fill="#FFFFFF" d="M31.968,21.05c-0.506,0-0.989-0.059-1.451-0.177c-0.461-0.117-0.89-0.282-1.289-0.497
				c-0.398-0.213-0.76-0.469-1.088-0.767c-0.327-0.297-0.604-0.628-0.832-0.994c-0.227-0.365-0.405-0.756-0.531-1.173
				s-0.189-0.851-0.189-1.3c0-0.443,0.063-0.869,0.189-1.275s0.304-0.787,0.531-1.143c0.228-0.354,0.505-0.678,0.832-0.97
				c0.328-0.292,0.689-0.542,1.088-0.748c0.399-0.207,0.828-0.367,1.289-0.481c0.462-0.115,0.944-0.173,1.451-0.173
				c0.757,0,1.462,0.126,2.117,0.375c0.654,0.251,1.219,0.593,1.701,1.026c0.481,0.434,0.859,0.94,1.137,1.522
				c0.278,0.582,0.417,1.204,0.417,1.866c0,0.449-0.063,0.882-0.189,1.3c-0.127,0.417-0.304,0.808-0.531,1.173
				c-0.229,0.366-0.505,0.697-0.828,0.994c-0.325,0.298-0.686,0.554-1.083,0.767c-0.399,0.215-0.827,0.38-1.289,0.497
				C32.956,20.991,32.472,21.05,31.968,21.05z M31.968,20.588c0.554,0,1.046-0.111,1.475-0.333c0.428-0.223,0.789-0.531,1.083-0.928
				c0.293-0.396,0.516-0.866,0.667-1.409s0.227-1.135,0.227-1.777c0-0.636-0.076-1.219-0.227-1.749s-0.374-0.987-0.667-1.37
				c-0.294-0.384-0.655-0.682-1.083-0.896c-0.429-0.214-0.921-0.32-1.475-0.32c-0.572,0-1.073,0.106-1.504,0.32
				c-0.432,0.214-0.792,0.513-1.083,0.896c-0.291,0.383-0.509,0.84-0.655,1.37c-0.145,0.529-0.217,1.112-0.217,1.749
				c0,0.642,0.072,1.234,0.217,1.777c0.146,0.542,0.364,1.013,0.655,1.409c0.292,0.397,0.652,0.706,1.083,0.928
				C30.895,20.477,31.396,20.588,31.968,20.588z"/>
			<path fill="#FFFFFF" d="M39.049,11.564h3.37c0.588,0,1.104,0.06,1.545,0.18c0.442,0.12,0.811,0.287,1.108,0.501
				c0.296,0.214,0.519,0.47,0.667,0.767c0.148,0.298,0.222,0.621,0.222,0.971c0,0.287-0.057,0.556-0.173,0.806
				c-0.116,0.25-0.279,0.477-0.49,0.676c-0.212,0.201-0.464,0.376-0.757,0.524c-0.294,0.149-0.618,0.263-0.968,0.341l3.55,4.501
				H45.22l-3.385-4.36h-1.146v4.36h-1.639V11.564z M40.688,16.009h0.938c0.369,0,0.709-0.045,1.023-0.137
				c0.313-0.091,0.583-0.223,0.811-0.395c0.228-0.172,0.407-0.381,0.536-0.626c0.128-0.245,0.194-0.52,0.194-0.821
				c0-0.277-0.051-0.53-0.152-0.759c-0.103-0.23-0.244-0.429-0.425-0.595c-0.182-0.167-0.398-0.298-0.651-0.392
				c-0.252-0.093-0.53-0.14-0.832-0.14h-1.442V16.009z"/>
			<path fill="#FFFFFF" d="M48.188,11.564h1.64v9.267h-1.64V11.564z"/>
			<path fill="#FFFFFF" d="M57.505,12.018c-0.589,0-1.13,0.098-1.628,0.297c-0.496,0.199-0.925,0.482-1.284,0.853
				c-0.36,0.371-0.64,0.818-0.84,1.343c-0.2,0.524-0.302,1.11-0.302,1.757c0,0.652,0.109,1.239,0.33,1.761
				C54,18.551,54.3,18.996,54.68,19.366c0.379,0.371,0.823,0.656,1.334,0.853c0.51,0.199,1.059,0.299,1.647,0.299
				c0.429,0,0.816-0.056,1.162-0.168c0.345-0.112,0.656-0.27,0.931-0.475v-3.247h-1.846v-0.556h3.485v4.078
				c-0.286,0.146-0.575,0.275-0.865,0.388c-0.291,0.11-0.604,0.205-0.939,0.282c-0.335,0.074-0.704,0.133-1.104,0.172
				c-0.401,0.04-0.857,0.059-1.368,0.059c-0.808,0-1.552-0.127-2.237-0.381c-0.683-0.253-1.274-0.596-1.771-1.027
				c-0.497-0.435-0.884-0.941-1.161-1.524c-0.278-0.582-0.417-1.198-0.417-1.85s0.133-1.276,0.399-1.87
				c0.267-0.596,0.641-1.119,1.124-1.57c0.484-0.451,1.061-0.81,1.73-1.076c0.67-0.266,1.409-0.4,2.216-0.4
				c0.517,0,0.994,0.067,1.434,0.201c0.438,0.133,0.838,0.309,1.198,0.527c0.36,0.219,0.68,0.473,0.96,0.759
				c0.279,0.287,0.521,0.587,0.726,0.9l-0.71,0.455c-0.406-0.752-0.862-1.302-1.368-1.651
				C58.738,12.193,58.158,12.018,57.505,12.018z"/>
			<path fill="#FFFFFF" d="M63.295,11.564h1.639v9.267h-1.639V11.564z"/>
			<path fill="#FFFFFF" d="M66.976,11.564h0.914l6.393,6.769h0.066v-6.769h0.717v9.486h-0.38l-6.919-7.538h-0.059v7.319h-0.732
				V11.564z"/>
			<path fill="#FFFFFF" d="M81.266,11.352l4.588,9.479h-1.665l-1.491-3.092h-4.176l-1.54,3.092h-0.824l4.704-9.479H81.266z
				 M78.81,17.135h3.592l-1.771-3.662L78.81,17.135z"/>
			<path fill="#FFFFFF" d="M86.951,11.564h1.64v8.672h4.901v0.595h-6.541V11.564z"/>
			<path fill="#FFFFFF" d="M100.539,16.228c0,0.653,0.102,1.236,0.307,1.749c0.202,0.514,0.483,0.948,0.842,1.303
				c0.361,0.355,0.787,0.628,1.278,0.818c0.491,0.19,1.026,0.285,1.603,0.285c0.341,0,0.669-0.062,0.989-0.186
				c0.317-0.126,0.614-0.29,0.885-0.493c0.272-0.204,0.517-0.433,0.733-0.689c0.216-0.256,0.394-0.514,0.531-0.775l0.684,0.422
				c-0.198,0.314-0.435,0.614-0.708,0.902c-0.274,0.286-0.59,0.539-0.948,0.758c-0.357,0.22-0.762,0.395-1.215,0.529
				c-0.452,0.133-0.959,0.199-1.52,0.199c-0.808,0-1.542-0.13-2.205-0.388c-0.661-0.259-1.226-0.607-1.695-1.046
				c-0.471-0.437-0.833-0.949-1.093-1.533c-0.258-0.583-0.386-1.203-0.386-1.855c0-0.652,0.132-1.273,0.395-1.863
				c0.264-0.589,0.634-1.108,1.111-1.553c0.479-0.446,1.053-0.801,1.723-1.065c0.669-0.262,1.415-0.395,2.231-0.395
				c0.517,0,0.994,0.067,1.432,0.201c0.435,0.133,0.834,0.309,1.193,0.527c0.359,0.219,0.681,0.473,0.965,0.759
				c0.281,0.287,0.521,0.587,0.72,0.9l-0.708,0.455c-0.407-0.752-0.862-1.302-1.368-1.651c-0.505-0.35-1.085-0.524-1.738-0.524
				c-0.563,0-1.094,0.096-1.586,0.29c-0.49,0.193-0.918,0.472-1.282,0.837c-0.359,0.366-0.646,0.807-0.855,1.327
				C100.644,14.991,100.539,15.576,100.539,16.228z"/>
			<path fill="#FFFFFF" d="M115.147,21.05c-0.506,0-0.989-0.059-1.45-0.177c-0.462-0.117-0.892-0.282-1.29-0.497
				c-0.397-0.213-0.759-0.469-1.087-0.767c-0.328-0.297-0.604-0.628-0.832-0.994c-0.229-0.365-0.404-0.756-0.53-1.173
				c-0.128-0.417-0.19-0.851-0.19-1.3c0-0.443,0.063-0.869,0.19-1.275c0.126-0.407,0.302-0.787,0.53-1.143
				c0.228-0.354,0.504-0.678,0.832-0.97c0.328-0.292,0.689-0.542,1.087-0.748c0.398-0.207,0.828-0.367,1.29-0.481
				c0.461-0.115,0.944-0.173,1.45-0.173c0.758,0,1.464,0.126,2.115,0.375c0.655,0.251,1.222,0.593,1.702,1.026
				c0.48,0.434,0.86,0.94,1.137,1.522c0.277,0.582,0.417,1.204,0.417,1.866c0,0.449-0.064,0.882-0.189,1.3
				c-0.127,0.417-0.305,0.808-0.532,1.173c-0.228,0.366-0.503,0.697-0.827,0.994c-0.323,0.298-0.686,0.554-1.083,0.767
				c-0.398,0.215-0.828,0.38-1.289,0.497C116.136,20.991,115.653,21.05,115.147,21.05z M115.147,20.588
				c0.554,0,1.045-0.111,1.474-0.333c0.429-0.223,0.79-0.531,1.084-0.928c0.295-0.396,0.517-0.866,0.667-1.409
				s0.228-1.135,0.228-1.777c0-0.636-0.077-1.219-0.228-1.749s-0.372-0.987-0.667-1.37c-0.294-0.384-0.655-0.682-1.084-0.896
				c-0.429-0.214-0.92-0.32-1.474-0.32c-0.57,0-1.071,0.106-1.503,0.32c-0.433,0.214-0.793,0.513-1.083,0.896
				c-0.294,0.383-0.512,0.84-0.657,1.37c-0.145,0.529-0.218,1.112-0.218,1.749c0,0.642,0.073,1.234,0.218,1.777
				c0.146,0.542,0.363,1.013,0.657,1.409c0.29,0.397,0.65,0.706,1.083,0.928C114.076,20.477,114.577,20.588,115.147,20.588z"/>
			<path fill="#FFFFFF" d="M122.229,11.564h1.639v8.672h4.901v0.595h-6.54V11.564z"/>
			<path fill="#FFFFFF" d="M134.992,21.05c-0.505,0-0.989-0.059-1.45-0.177c-0.462-0.117-0.891-0.282-1.29-0.497
				c-0.399-0.213-0.76-0.469-1.088-0.767c-0.326-0.297-0.603-0.628-0.832-0.994c-0.227-0.365-0.405-0.756-0.53-1.173
				c-0.127-0.417-0.189-0.851-0.189-1.3c0-0.443,0.063-0.869,0.189-1.275c0.125-0.407,0.304-0.787,0.53-1.143
				c0.229-0.354,0.506-0.678,0.832-0.97c0.328-0.292,0.688-0.542,1.088-0.748c0.399-0.207,0.828-0.367,1.29-0.481
				c0.461-0.115,0.945-0.173,1.45-0.173c0.757,0,1.464,0.126,2.116,0.375c0.654,0.251,1.222,0.593,1.702,1.026
				c0.481,0.434,0.857,0.94,1.136,1.522s0.417,1.204,0.417,1.866c0,0.449-0.063,0.882-0.189,1.3s-0.303,0.808-0.531,1.173
				c-0.228,0.366-0.504,0.697-0.828,0.994c-0.324,0.298-0.686,0.554-1.083,0.767c-0.399,0.215-0.827,0.38-1.29,0.497
				C135.981,20.991,135.496,21.05,134.992,21.05z M134.992,20.588c0.554,0,1.047-0.111,1.475-0.333
				c0.428-0.223,0.79-0.531,1.084-0.928c0.292-0.396,0.516-0.866,0.667-1.409c0.148-0.542,0.227-1.135,0.227-1.777
				c0-0.636-0.078-1.219-0.227-1.749c-0.151-0.529-0.375-0.987-0.667-1.37c-0.294-0.384-0.656-0.682-1.084-0.896
				c-0.428-0.214-0.921-0.32-1.475-0.32c-0.572,0-1.072,0.106-1.504,0.32c-0.431,0.214-0.792,0.513-1.083,0.896
				c-0.291,0.383-0.51,0.84-0.655,1.37s-0.218,1.112-0.218,1.749c0,0.642,0.072,1.234,0.218,1.777s0.364,1.013,0.655,1.409
				c0.291,0.397,0.652,0.706,1.083,0.928C133.92,20.477,134.42,20.588,134.992,20.588z"/>
			<path fill="#FFFFFF" d="M142.073,11.564h3.37c0.588,0,1.103,0.06,1.545,0.18c0.441,0.12,0.813,0.287,1.107,0.501
				c0.297,0.214,0.52,0.47,0.668,0.767c0.147,0.298,0.222,0.621,0.222,0.971c0,0.287-0.057,0.556-0.173,0.806
				c-0.114,0.25-0.278,0.477-0.49,0.676c-0.211,0.201-0.464,0.376-0.757,0.524c-0.294,0.149-0.617,0.263-0.969,0.341l3.55,4.501
				h-1.902l-3.385-4.36h-1.146v4.36h-1.64V11.564z M143.713,16.009h0.939c0.369,0,0.709-0.045,1.021-0.137
				c0.312-0.091,0.583-0.223,0.811-0.395c0.229-0.172,0.408-0.381,0.537-0.626c0.127-0.245,0.193-0.52,0.193-0.821
				c0-0.277-0.051-0.53-0.152-0.759c-0.103-0.23-0.244-0.429-0.424-0.595c-0.183-0.167-0.399-0.298-0.653-0.392
				c-0.251-0.093-0.528-0.14-0.832-0.14h-1.44V16.009z"/>
		</g>
		<g>
			<path fill="#FFFFFF" d="M28.888,29.547c0.134,0,0.27-0.016,0.409-0.052c0.139-0.034,0.267-0.085,0.386-0.151
				c0.12-0.067,0.223-0.151,0.312-0.25c0.088-0.099,0.151-0.213,0.185-0.341c0.042-0.155,0.036-0.295-0.016-0.415
				c-0.052-0.123-0.133-0.234-0.242-0.335c-0.11-0.102-0.242-0.198-0.394-0.286c-0.154-0.09-0.311-0.179-0.472-0.269
				c-0.161-0.091-0.317-0.185-0.467-0.284c-0.15-0.1-0.277-0.209-0.382-0.329c-0.105-0.12-0.179-0.255-0.225-0.403
				c-0.044-0.148-0.041-0.321,0.012-0.517c0.052-0.195,0.139-0.376,0.26-0.542c0.122-0.166,0.273-0.311,0.457-0.432
				c0.182-0.125,0.39-0.222,0.626-0.29c0.235-0.067,0.494-0.104,0.775-0.104c0.506,0,0.88,0.103,1.12,0.305
				c0.24,0.201,0.374,0.494,0.401,0.875l-0.517,0.201c-0.011-0.157-0.042-0.301-0.09-0.43c-0.049-0.127-0.119-0.238-0.21-0.331
				c-0.091-0.092-0.205-0.163-0.343-0.212c-0.137-0.052-0.3-0.077-0.491-0.077c-0.169,0-0.323,0.023-0.461,0.067
				c-0.139,0.045-0.26,0.103-0.364,0.178c-0.104,0.072-0.189,0.155-0.257,0.248c-0.066,0.091-0.111,0.184-0.137,0.278
				c-0.037,0.134-0.027,0.257,0.03,0.368c0.056,0.108,0.143,0.213,0.26,0.312c0.117,0.101,0.254,0.195,0.41,0.286
				c0.156,0.091,0.315,0.185,0.479,0.281c0.163,0.094,0.321,0.192,0.475,0.295c0.153,0.104,0.285,0.216,0.396,0.34
				c0.111,0.119,0.19,0.253,0.238,0.397c0.047,0.146,0.046,0.306-0.001,0.483c-0.054,0.202-0.145,0.391-0.274,0.567
				c-0.129,0.179-0.292,0.332-0.487,0.465c-0.194,0.131-0.423,0.236-0.686,0.313c-0.263,0.076-0.551,0.116-0.869,0.116
				c-0.256,0-0.478-0.027-0.668-0.081c-0.189-0.055-0.347-0.133-0.473-0.235c-0.127-0.102-0.226-0.226-0.296-0.373
				c-0.071-0.147-0.117-0.315-0.138-0.507l0.534-0.188c0.021,0.336,0.138,0.595,0.35,0.781
				C28.253,29.454,28.536,29.547,28.888,29.547z"/>
			<path fill="#FFFFFF" d="M33.433,29.84c-0.271,0-0.511-0.053-0.719-0.153c-0.208-0.101-0.376-0.239-0.506-0.415
				c-0.129-0.178-0.212-0.384-0.25-0.617c-0.039-0.237-0.021-0.487,0.051-0.757c0.079-0.296,0.209-0.575,0.391-0.838
				c0.181-0.262,0.396-0.49,0.64-0.683s0.513-0.346,0.804-0.458c0.291-0.116,0.584-0.171,0.88-0.171c0.233,0,0.439,0.025,0.62,0.073
				s0.333,0.114,0.452,0.197c0.12,0.083,0.204,0.183,0.251,0.297c0.047,0.114,0.054,0.237,0.019,0.37
				c-0.017,0.06-0.046,0.114-0.093,0.166c-0.045,0.054-0.1,0.099-0.163,0.137c-0.063,0.038-0.131,0.068-0.201,0.093
				c-0.07,0.022-0.14,0.033-0.205,0.033c-0.073,0-0.136-0.012-0.19-0.036c-0.054-0.025-0.096-0.059-0.125-0.099
				c-0.03-0.041-0.049-0.089-0.058-0.14c-0.009-0.053-0.007-0.104,0.007-0.154c0.025-0.093,0.037-0.178,0.039-0.256
				c0.001-0.08-0.016-0.146-0.054-0.205c-0.038-0.058-0.097-0.104-0.176-0.135c-0.081-0.033-0.189-0.051-0.328-0.051
				c-0.187,0-0.364,0.038-0.531,0.107c-0.167,0.072-0.318,0.17-0.453,0.291c-0.136,0.122-0.252,0.265-0.351,0.431
				c-0.098,0.164-0.173,0.339-0.223,0.525c-0.066,0.25-0.096,0.485-0.088,0.712c0.008,0.226,0.052,0.421,0.134,0.589
				c0.083,0.167,0.198,0.301,0.35,0.399s0.335,0.148,0.554,0.148c0.193,0,0.366-0.03,0.523-0.086
				c0.155-0.058,0.298-0.135,0.428-0.231c0.131-0.098,0.25-0.211,0.358-0.34c0.108-0.13,0.21-0.267,0.306-0.409l0.225,0.096
				c-0.136,0.245-0.288,0.465-0.458,0.66c-0.17,0.191-0.352,0.355-0.548,0.491c-0.195,0.134-0.405,0.237-0.626,0.309
				C33.896,29.804,33.669,29.84,33.433,29.84z"/>
			<path fill="#FFFFFF" d="M37.245,25.829h0.815l-0.199,0.745c0.112-0.113,0.226-0.219,0.344-0.317
				c0.119-0.099,0.237-0.187,0.358-0.262c0.12-0.076,0.238-0.136,0.358-0.18c0.119-0.046,0.232-0.067,0.341-0.067
				c0.09,0,0.17,0.013,0.24,0.038c0.071,0.026,0.129,0.062,0.174,0.104c0.046,0.044,0.078,0.093,0.096,0.149
				c0.017,0.058,0.018,0.118,0.001,0.182c-0.034,0.129-0.102,0.225-0.201,0.288c-0.1,0.063-0.225,0.094-0.372,0.094
				c-0.09,0-0.161-0.008-0.212-0.027c-0.052-0.019-0.096-0.039-0.135-0.06c-0.04-0.021-0.08-0.042-0.121-0.061
				c-0.04-0.019-0.096-0.028-0.168-0.028c-0.108,0-0.233,0.057-0.375,0.171c-0.141,0.116-0.292,0.262-0.454,0.439l-0.729,2.717
				h-0.813L37.245,25.829z"/>
			<path fill="#FFFFFF" d="M42.874,29.754h-0.823l0.144-0.538c-0.115,0.071-0.23,0.146-0.343,0.218
				c-0.113,0.074-0.232,0.14-0.357,0.199c-0.125,0.061-0.259,0.109-0.403,0.148c-0.142,0.039-0.3,0.059-0.476,0.059
				c-0.163,0-0.304-0.025-0.421-0.076c-0.119-0.051-0.211-0.118-0.277-0.206c-0.068-0.088-0.11-0.191-0.127-0.313
				c-0.018-0.12-0.008-0.247,0.029-0.385c0.045-0.17,0.121-0.322,0.228-0.456c0.107-0.136,0.236-0.257,0.387-0.364
				c0.151-0.106,0.318-0.202,0.502-0.284c0.184-0.085,0.376-0.158,0.578-0.224c0.201-0.067,0.405-0.125,0.612-0.175
				s0.409-0.097,0.605-0.144l0.065-0.247c0.048-0.177,0.07-0.326,0.064-0.447c-0.005-0.123-0.031-0.222-0.081-0.297
				c-0.049-0.076-0.119-0.13-0.208-0.163c-0.089-0.032-0.195-0.049-0.319-0.049c-0.14,0-0.257,0.017-0.353,0.05
				c-0.098,0.036-0.178,0.08-0.242,0.137c-0.064,0.055-0.116,0.119-0.153,0.188c-0.036,0.071-0.064,0.143-0.085,0.217
				c-0.018,0.07-0.042,0.136-0.07,0.197c-0.029,0.064-0.065,0.12-0.108,0.167c-0.042,0.05-0.095,0.089-0.155,0.117
				c-0.06,0.028-0.132,0.043-0.212,0.043c-0.128,0-0.22-0.043-0.276-0.131c-0.056-0.087-0.067-0.197-0.031-0.328
				c0.034-0.129,0.111-0.251,0.23-0.364c0.12-0.112,0.267-0.21,0.441-0.291c0.174-0.083,0.369-0.146,0.583-0.193
				c0.215-0.048,0.434-0.071,0.657-0.071c0.272,0,0.494,0.026,0.668,0.075c0.173,0.05,0.306,0.12,0.398,0.211
				c0.092,0.09,0.146,0.199,0.163,0.329c0.017,0.127,0.003,0.271-0.039,0.429L42.874,29.754z M42.664,27.466
				c-0.192,0.054-0.396,0.118-0.61,0.197c-0.213,0.079-0.416,0.168-0.606,0.269c-0.189,0.1-0.354,0.211-0.492,0.333
				c-0.138,0.121-0.226,0.252-0.262,0.39c-0.027,0.094-0.031,0.185-0.017,0.271c0.014,0.086,0.043,0.16,0.089,0.225
				c0.044,0.063,0.102,0.116,0.171,0.154c0.069,0.04,0.148,0.059,0.235,0.059c0.094,0,0.186-0.011,0.274-0.034
				c0.09-0.023,0.178-0.053,0.268-0.093c0.087-0.038,0.179-0.085,0.272-0.138s0.187-0.106,0.284-0.165L42.664,27.466z"/>
			<path fill="#FFFFFF" d="M46.464,29.256c-0.156,0.181-0.34,0.32-0.55,0.427c-0.21,0.104-0.449,0.157-0.713,0.157
				c-0.139,0-0.254-0.022-0.345-0.067c-0.091-0.044-0.159-0.106-0.202-0.187c-0.045-0.08-0.069-0.177-0.07-0.288
				c-0.002-0.111,0.015-0.237,0.052-0.373l0.74-2.766h-0.714l0.051-0.192c0.229,0,0.43-0.04,0.6-0.118
				c0.17-0.079,0.322-0.187,0.452-0.323c0.132-0.135,0.25-0.293,0.353-0.473c0.102-0.179,0.199-0.366,0.292-0.564h0.234
				l-0.359,1.341h0.926l-0.087,0.33h-0.928l-0.74,2.766c-0.032,0.116-0.016,0.216,0.048,0.297c0.063,0.082,0.159,0.124,0.286,0.124
				c0.094,0,0.185-0.021,0.271-0.065c0.086-0.043,0.166-0.096,0.237-0.16L46.464,29.256z"/>
			<path fill="#FFFFFF" d="M49.009,29.84c-0.271,0-0.511-0.053-0.72-0.153c-0.208-0.101-0.376-0.239-0.506-0.415
				c-0.13-0.178-0.212-0.384-0.25-0.617c-0.038-0.237-0.021-0.487,0.051-0.757c0.079-0.296,0.209-0.575,0.392-0.838
				c0.181-0.262,0.394-0.49,0.64-0.683c0.245-0.192,0.513-0.346,0.804-0.458c0.291-0.116,0.584-0.171,0.88-0.171
				c0.233,0,0.439,0.025,0.62,0.073c0.183,0.048,0.333,0.114,0.452,0.197c0.12,0.083,0.203,0.183,0.25,0.297
				c0.048,0.114,0.054,0.237,0.019,0.37c-0.016,0.06-0.047,0.114-0.092,0.166c-0.045,0.054-0.1,0.099-0.163,0.137
				s-0.13,0.068-0.201,0.093c-0.07,0.022-0.14,0.033-0.206,0.033c-0.072,0-0.136-0.012-0.19-0.036
				c-0.053-0.025-0.094-0.059-0.125-0.099c-0.029-0.041-0.048-0.089-0.057-0.14c-0.009-0.053-0.007-0.104,0.007-0.154
				c0.025-0.093,0.038-0.178,0.039-0.256c0.001-0.08-0.018-0.146-0.054-0.205c-0.037-0.058-0.097-0.104-0.177-0.135
				c-0.08-0.033-0.189-0.051-0.328-0.051c-0.187,0-0.364,0.038-0.53,0.107c-0.167,0.072-0.319,0.17-0.454,0.291
				c-0.136,0.122-0.253,0.265-0.351,0.431c-0.099,0.164-0.173,0.339-0.223,0.525c-0.067,0.25-0.096,0.485-0.089,0.712
				c0.007,0.226,0.052,0.421,0.134,0.589c0.081,0.167,0.199,0.301,0.351,0.399c0.15,0.099,0.335,0.148,0.552,0.148
				c0.192,0,0.367-0.03,0.522-0.086c0.156-0.058,0.299-0.135,0.429-0.231c0.131-0.098,0.25-0.211,0.358-0.34
				c0.109-0.13,0.21-0.267,0.307-0.409l0.224,0.096c-0.137,0.245-0.29,0.465-0.458,0.66c-0.17,0.191-0.353,0.355-0.548,0.491
				c-0.196,0.134-0.405,0.237-0.625,0.309C49.472,29.804,49.245,29.84,49.009,29.84z"/>
			<path fill="#FFFFFF" d="M53.448,26.548c0.32-0.27,0.632-0.471,0.938-0.602c0.305-0.134,0.598-0.198,0.878-0.198
				c0.145,0,0.271,0.03,0.379,0.095c0.107,0.063,0.195,0.146,0.26,0.256c0.064,0.106,0.104,0.232,0.121,0.378
				c0.015,0.145,0.001,0.298-0.042,0.462l-0.756,2.815h-0.818l0.72-2.688c0.07-0.261,0.062-0.455-0.026-0.588
				c-0.088-0.132-0.228-0.197-0.425-0.197c-0.087,0-0.184,0.015-0.287,0.041c-0.104,0.027-0.212,0.064-0.324,0.114
				c-0.113,0.048-0.229,0.107-0.346,0.175c-0.118,0.07-0.235,0.147-0.353,0.233l-0.779,2.91h-0.819l1.529-5.712l0.644-0.221h0.235
				L53.448,26.548z"/>
			<path fill="#FFFFFF" d="M64.023,24.665l-0.087,0.325h-2.612l-0.488,1.823h1.887l-0.087,0.327h-1.887l-0.701,2.613h-0.9
				l1.363-5.089H64.023z"/>
			<path fill="#FFFFFF" d="M64.507,25.829h0.814l-0.199,0.745c0.112-0.113,0.227-0.219,0.345-0.317s0.237-0.187,0.358-0.262
				c0.119-0.076,0.239-0.136,0.359-0.18c0.119-0.046,0.232-0.067,0.341-0.067c0.089,0,0.171,0.013,0.241,0.038
				c0.069,0.026,0.128,0.062,0.173,0.104c0.046,0.044,0.079,0.093,0.096,0.149c0.018,0.058,0.018,0.118,0.002,0.182
				c-0.035,0.129-0.103,0.225-0.201,0.288c-0.1,0.063-0.225,0.094-0.373,0.094c-0.09,0-0.16-0.008-0.212-0.027
				c-0.05-0.019-0.096-0.039-0.135-0.06c-0.039-0.021-0.08-0.042-0.12-0.061c-0.041-0.019-0.097-0.028-0.168-0.028
				c-0.11,0-0.234,0.057-0.375,0.171c-0.141,0.116-0.293,0.262-0.455,0.439l-0.728,2.717h-0.815L64.507,25.829z"/>
			<path fill="#FFFFFF" d="M68.778,29.84c-0.281,0-0.529-0.049-0.748-0.147c-0.217-0.1-0.396-0.236-0.534-0.407
				c-0.137-0.172-0.228-0.373-0.271-0.604c-0.043-0.23-0.031-0.479,0.04-0.741c0.084-0.315,0.211-0.607,0.379-0.876
				c0.168-0.268,0.367-0.499,0.598-0.693s0.484-0.348,0.763-0.457c0.279-0.112,0.571-0.166,0.879-0.166
				c0.271,0,0.506,0.045,0.708,0.134c0.2,0.091,0.36,0.213,0.481,0.367c0.121,0.152,0.199,0.328,0.237,0.528
				c0.036,0.199,0.026,0.407-0.032,0.625h-3.082c-0.069,0.265-0.101,0.508-0.089,0.733c0.01,0.225,0.059,0.417,0.145,0.581
				c0.086,0.164,0.206,0.294,0.358,0.386c0.153,0.094,0.337,0.14,0.55,0.14c0.178,0,0.357-0.027,0.535-0.082
				c0.179-0.054,0.349-0.127,0.506-0.217c0.159-0.09,0.3-0.192,0.424-0.307c0.125-0.114,0.224-0.233,0.296-0.356l0.203,0.098
				c-0.114,0.2-0.26,0.39-0.437,0.568c-0.177,0.176-0.372,0.332-0.584,0.463c-0.212,0.132-0.432,0.236-0.66,0.313
				C69.214,29.8,68.993,29.84,68.778,29.84z M70.334,27.089c0.041-0.149,0.049-0.288,0.028-0.415
				c-0.022-0.128-0.068-0.238-0.139-0.332c-0.073-0.096-0.165-0.17-0.281-0.223c-0.116-0.053-0.248-0.08-0.395-0.08
				c-0.124,0-0.249,0.027-0.376,0.08c-0.127,0.053-0.248,0.127-0.36,0.223c-0.113,0.094-0.216,0.204-0.308,0.332
				c-0.094,0.127-0.166,0.266-0.218,0.415H70.334z"/>
			<path fill="#FFFFFF" d="M73.566,29.84c-0.28,0-0.53-0.049-0.748-0.147c-0.217-0.1-0.395-0.236-0.533-0.407
				c-0.138-0.172-0.229-0.373-0.272-0.604c-0.044-0.23-0.03-0.479,0.04-0.741c0.085-0.315,0.21-0.607,0.38-0.876
				c0.168-0.268,0.367-0.499,0.597-0.693s0.484-0.348,0.763-0.457c0.278-0.112,0.572-0.166,0.879-0.166
				c0.272,0,0.508,0.045,0.708,0.134c0.201,0.091,0.362,0.213,0.483,0.367c0.119,0.152,0.196,0.328,0.235,0.528
				c0.037,0.199,0.027,0.407-0.033,0.625h-3.081c-0.07,0.265-0.1,0.508-0.09,0.733c0.01,0.225,0.06,0.417,0.146,0.581
				c0.086,0.164,0.205,0.294,0.358,0.386c0.153,0.094,0.337,0.14,0.551,0.14c0.178,0,0.356-0.027,0.536-0.082
				c0.178-0.054,0.348-0.127,0.506-0.217c0.158-0.09,0.299-0.192,0.423-0.307c0.125-0.114,0.222-0.233,0.294-0.356l0.205,0.098
				c-0.114,0.2-0.261,0.39-0.438,0.568c-0.176,0.176-0.371,0.332-0.583,0.463c-0.211,0.132-0.433,0.236-0.662,0.313
				C74.002,29.8,73.779,29.84,73.566,29.84z M75.122,27.089c0.041-0.149,0.049-0.288,0.028-0.415
				c-0.023-0.128-0.069-0.238-0.139-0.332c-0.072-0.096-0.165-0.17-0.281-0.223s-0.247-0.08-0.396-0.08
				c-0.123,0-0.249,0.027-0.376,0.08c-0.126,0.053-0.246,0.127-0.36,0.223c-0.113,0.094-0.215,0.204-0.309,0.332
				c-0.093,0.127-0.165,0.266-0.217,0.415H75.122z"/>
		</g>
	</g>
</g>
</svg>
