<?xml version="1.0" encoding="utf-8"?>
<!-- Generator: Adobe Illustrator 16.0.0, SVG Export Plug-In . SVG Version: 6.00 Build 0)  -->
<!DOCTYPE svg PUBLIC "-//W3C//DTD SVG 1.1//EN" "http://www.w3.org/Graphics/SVG/1.1/DTD/svg11.dtd">
<svg version="1.1" id="圖層_1" xmlns="http://www.w3.org/2000/svg" xmlns:xlink="http://www.w3.org/1999/xlink" x="0px" y="0px"
	 width="425.197px" height="113.387px" viewBox="0 0 425.197 113.387" enable-background="new 0 0 425.197 113.387"
	 xml:space="preserve">
<g>
	<g>
		<g enable-background="new    ">
			<path fill="#0A07A1" d="M22.094,100.954l-2.153-8.113h1.102l1.234,5.318c0.132,0.558,0.247,1.111,0.343,1.66
				c0.207-0.866,0.328-1.367,0.365-1.5l1.544-5.479h1.294l1.163,4.107c0.291,1.018,0.501,1.974,0.63,2.871
				c0.104-0.513,0.238-1.101,0.404-1.766l1.273-5.213h1.079l-2.225,8.113h-1.034l-1.71-6.181c-0.144-0.518-0.229-0.834-0.254-0.952
				c-0.085,0.373-0.164,0.69-0.238,0.952l-1.721,6.181H22.094z"/>
			<path fill="#0A07A1" d="M32.271,100.954l3.115-8.113h1.156l3.32,8.113H38.64l-0.946-2.456h-3.393l-0.891,2.456H32.271z
				 M34.612,97.623h2.75l-0.846-2.247c-0.258-0.682-0.45-1.242-0.575-1.682c-0.104,0.52-0.25,1.036-0.437,1.55L34.612,97.623z"/>
			<path fill="#0A07A1" d="M44.375,100.954v-3.438l-3.126-4.676h1.306l1.599,2.446c0.295,0.459,0.57,0.915,0.824,1.374
				c0.244-0.426,0.539-0.903,0.885-1.435l1.571-2.386h1.251l-3.237,4.676v3.438H44.375z"/>
			<path fill="#0A07A1" d="M57.116,99.997c-0.328,0.365-0.687,0.64-1.074,0.822c-0.387,0.181-0.806,0.271-1.256,0.271
				c-0.83,0-1.488-0.278-1.976-0.84c-0.395-0.458-0.592-0.969-0.592-1.532c0-0.502,0.161-0.955,0.485-1.359
				c0.322-0.403,0.804-0.759,1.446-1.063c-0.365-0.421-0.608-0.763-0.73-1.024c-0.122-0.263-0.183-0.515-0.183-0.759
				c0-0.486,0.191-0.91,0.573-1.27c0.382-0.36,0.862-0.54,1.441-0.54c0.554,0,1.006,0.17,1.358,0.509
				c0.352,0.34,0.528,0.747,0.528,1.223c0,0.772-0.511,1.43-1.533,1.977l1.456,1.853c0.166-0.324,0.295-0.699,0.387-1.128
				l1.035,0.221c-0.176,0.709-0.417,1.292-0.719,1.748c0.372,0.495,0.794,0.912,1.267,1.246l-0.669,0.792
				C57.958,100.885,57.543,100.501,57.116,99.997z M56.49,99.211l-1.826-2.263c-0.539,0.32-0.902,0.619-1.089,0.893
				c-0.188,0.275-0.283,0.549-0.283,0.816c0,0.329,0.131,0.67,0.393,1.023c0.262,0.354,0.633,0.532,1.112,0.532
				c0.299,0,0.608-0.095,0.927-0.28C56.043,99.746,56.299,99.505,56.49,99.211z M55.091,95.769c0.431-0.254,0.711-0.477,0.838-0.669
				c0.127-0.192,0.191-0.403,0.191-0.638c0-0.275-0.088-0.501-0.263-0.677c-0.176-0.176-0.394-0.263-0.655-0.263
				c-0.27,0-0.494,0.087-0.673,0.26c-0.179,0.174-0.268,0.386-0.268,0.637c0,0.124,0.033,0.257,0.097,0.396
				c0.065,0.138,0.161,0.284,0.29,0.438L55.091,95.769z"/>
			<path fill="#0A07A1" d="M62.454,100.954l-2.152-8.113h1.101l1.234,5.318c0.132,0.558,0.248,1.111,0.343,1.66
				c0.207-0.866,0.329-1.367,0.366-1.5l1.543-5.479h1.294l1.163,4.107c0.292,1.018,0.501,1.974,0.63,2.871
				c0.104-0.513,0.238-1.101,0.404-1.766l1.272-5.213h1.079l-2.224,8.113h-1.035l-1.71-6.181c-0.144-0.518-0.229-0.834-0.254-0.952
				c-0.085,0.373-0.164,0.69-0.238,0.952l-1.721,6.181H62.454z"/>
			<path fill="#0A07A1" d="M72.36,100.954l3.115-8.113h1.157l3.32,8.113h-1.223l-0.946-2.456h-3.393l-0.891,2.456H72.36z
				 M74.701,97.623h2.75l-0.846-2.247c-0.259-0.682-0.45-1.242-0.575-1.682c-0.104,0.52-0.25,1.036-0.437,1.55L74.701,97.623z"/>
			<path fill="#0A07A1" d="M84.451,100.954v-3.438l-3.125-4.676h1.306l1.599,2.446c0.296,0.459,0.57,0.915,0.824,1.374
				c0.243-0.426,0.539-0.903,0.886-1.435l1.572-2.386h1.251l-3.238,4.676v3.438H84.451z"/>
		</g>
		<g>
			<g>
				<g>
					<path fill="#0A07A1" d="M37.12,58.971c0.374-1.549,0.745-3.117,1.11-4.66c5.04-21.242,7.568-31.905,15.828-31.905
						c8.252,0,11.207,10.408,17.676,36.055c0.054,0.211,0.106,0.424,0.161,0.636l8.995-33.956
						c-7.401-4.229-16.536-6.731-26.426-6.731c-10.223,0-19.638,2.675-27.167,7.165L37.12,58.971z"/>
				</g>
				<g>
					<path fill="#0A07A1" d="M91.633,33.869l-9.087,34.286c-2.787,9.06-7.271,11.012-10.542,11.056c-0.037,0-0.077,0-0.113,0
						c-6.978,0-9.7-8.119-10.73-11.184l-0.129-0.435c-0.501-1.947-1.014-3.979-1.533-6.045c-1.404-5.563-3.371-13.363-5.222-19.347
						c-1.326,4.742-2.693,10.505-3.764,15.021c-0.877,3.7-1.785,7.522-2.685,11.018L47.7,68.675
						c-1.021,3.042-3.723,11.092-10.519,11.092c-0.037,0-0.073,0-0.109,0c-6.861-0.089-9.354-8.191-10.292-11.239L16.772,34.504
						c-4.411,5.381-6.976,11.762-6.976,18.613c0,19.167,19.999,34.71,44.67,34.71c24.671,0,44.67-15.54,44.67-34.71
						C99.134,45.997,96.369,39.378,91.633,33.869z"/>
				</g>
			</g>
			<g>
				<path fill="#0A07A1" d="M37.169,74.2c-0.009,0-0.019,0-0.029,0c-2.513-0.03-4.081-4.188-5.043-7.308L21.277,29.506l1.426-0.41
					L33.52,66.465c1.73,5.619,3.121,6.243,3.638,6.249c0.56,0.034,1.943-0.591,3.853-6.279c0.868-3.381,1.767-7.172,2.637-10.838
					c4.063-17.128,6.739-27.623,10.41-27.623c3.948,0,7.424,12.608,12.277,31.849c0.517,2.054,1.026,4.073,1.526,6.011
					c1.92,5.721,3.417,6.375,4.054,6.322c1.213-0.015,2.777-2.458,3.889-6.075l14.213-53.361l1.436,0.383L77.232,66.49
					c-0.821,2.674-2.592,7.12-5.299,7.15c-0.01,0-0.021,0-0.031,0c-2.008,0-3.795-2.414-5.464-7.384
					c-0.514-1.99-1.025-4.014-1.543-6.068c-3.086-12.237-7.75-30.729-10.837-30.729c-2.685,0-6.314,15.305-8.965,26.482
					c-0.871,3.673-1.773,7.471-2.658,10.916C40.751,71.88,39.081,74.2,37.169,74.2z"/>
			</g>
			<defs>
				<filter id="Adobe_OpacityMaskFilter" filterUnits="userSpaceOnUse" x="79.674" y="12.698" width="17.861" height="21.694">
					<feColorMatrix  type="matrix" values="1 0 0 0 0  0 1 0 0 0  0 0 1 0 0  0 0 0 1 0"/>
				</filter>
			</defs>
			<mask maskUnits="userSpaceOnUse" x="79.674" y="12.698" width="17.861" height="21.694" id="SVGID_2_">
				<g filter="url(#Adobe_OpacityMaskFilter)">
					<g>
						<path fill="#FFFFFF" d="M9.79,11.279v41.845c0-19.163,20-34.701,44.673-34.701c24.673,0,44.673,15.538,44.673,34.701V11.279
							H9.79z"/>
						<path fill="#FFFFFF" d="M54.463,87.827C29.79,87.827,9.79,72.291,9.79,53.123v36.771h89.346V53.123
							C99.136,72.291,79.136,87.827,54.463,87.827z"/>
					</g>
				</g>
			</mask>
			<g mask="url(#SVGID_2_)">
				<g>
					
						<rect x="81.616" y="12.638" transform="matrix(-0.9618 -0.2738 0.2738 -0.9618 156.1366 61.4788)" fill="#0A07A1" width="1.485" height="14.411"/>
				</g>
				<g>
					
						<rect x="84.838" y="12.603" transform="matrix(-0.9606 -0.2778 0.2778 -0.9606 162.1263 63.7715)" fill="#0A07A1" width="1.485" height="15.594"/>
				</g>
				<g>
					
						<rect x="90.493" y="12.523" transform="matrix(-0.9614 -0.2752 0.2752 -0.9614 172.7894 68.9967)" fill="#0A07A1" width="1.485" height="19.707"/>
				</g>
				<g>
					
						<rect x="93.035" y="12.479" transform="matrix(-0.9614 -0.275 0.275 -0.9614 177.4649 71.9741)" fill="#0A07A1" width="1.484" height="22.136"/>
				</g>
			</g>
		</g>
	</g>
	<g>
		<g>
			<path fill="#353535" d="M137.829,43.564v-3.186h2.197v3.186h6.875c0.236,0,0.367-0.13,0.367-0.363v-2.098h2.117v3.47
				c0,0.544-0.261,0.88-0.732,0.985c1.019,1.216,1.831,2.33,2.379,3.288l-1.699,1.01l-0.967-1.424v0.778h-3.922
				c0.365,2.511,0.942,4.867,1.621,6.991c0.576-1.088,1.125-2.927,1.543-5.516l2.064,0.492c-0.522,2.797-1.411,5.283-2.693,7.354
				l1.072,2.176c0.34,0.596,0.575,0.908,0.708,0.908c0.287,0,0.287-0.959,0.287-1.477c0-0.52-0.052-1.089-0.104-1.735l2.064,0.491
				c0.026,0.932-0.026,1.864-0.13,2.771c-0.209,1.762-0.732,2.615-1.83,2.615c-1.386,0-2.721-2.434-3.425-3.857
				c-1.464,1.813-3.372,3.186-5.569,3.987l-1.28-1.708c3.582-1.218,5.255-3.341,5.985-4.272l-0.939-2.719h-2.38
				c-0.731,1.579-1.568,2.926-2.482,3.961l2.221,0.543l-1.124,1.763l-2.823-0.778c-2.249,1.58-4.341,2.641-6.171,3.134l-1.098-1.891
				c2.484-0.673,3.503-1.191,4.836-1.891l-3.791-1.062l-0.392-1.113c0.889-0.984,1.673-1.865,2.248-2.667h-2.482
				c-0.132,2.926-0.681,5.592-1.595,7.975l-1.961-0.647c1.176-3.159,1.542-5.077,1.595-9.736v-5.542c0-0.388,0.184-0.57,0.576-0.57
				h13.021l-0.184-1.631h-12.602c-0.626,0-0.967-0.336-0.967-0.985v-3.47h2.118v2.098c0,0.233,0.104,0.363,0.339,0.363H137.829z
				 M142.954,52.445l-0.652-3.235h-11.608c-0.183,0-0.261,0.052-0.261,0.232v4.376h3.608l0.678-1.424h-3.084v-1.916h9.829v1.916
				h-4.575l-0.602,1.424h6.981L142.954,52.445z M136.758,59.074c1.019-0.933,1.883-2.071,2.483-3.366h-4.052
				c-0.497,0.776-1.071,1.526-1.752,2.25c-0.052,0.054-0.078,0.105-0.078,0.156c0,0.053,0.052,0.078,0.13,0.104L136.758,59.074z
				 M147.817,45.558h-3.869l0.208,1.631h3.269l-0.733-0.88L147.817,45.558z"/>
			<path fill="#353535" d="M153.306,63.218c1.778-2.823,2.823-5.853,3.112-9.064l2.221,0.26c-0.548,3.936-1.621,7.147-3.164,9.582
				L153.306,63.218z M157.122,52.109c-1.411-1.45-2.639-2.485-3.686-3.133l1.413-1.734c1.15,0.75,2.43,1.838,3.816,3.21
				L157.122,52.109z M157.776,45.635c-1.489-1.424-2.771-2.46-3.817-3.107l1.386-1.76c1.203,0.75,2.511,1.813,3.896,3.184
				L157.776,45.635z M163.137,44.081c-0.812,1.787-1.83,3.185-2.929,4.248l-1.778-1.425c2.406-2.304,2.903-4.066,3.477-6.449
				l2.196,0.389l-0.289,1.14h13.675v2.098H163.137z M176.051,54.414l-0.575,4.272h2.041v2.098h-2.406
				c-0.889,3.599-2.275,3.729-3.894,3.729c-0.944,0-2.093-0.155-3.453-0.44l0.131-2.459c1.254,0.412,2.221,0.594,2.875,0.62
				c0.628-0.026,0.941-0.053,0.968-0.104c0.417-0.104,0.731-0.595,0.966-1.347h-11.137l-0.287,0.777l-2.066-0.544l2.066-6.603
				h-2.303v-2.099h2.877c0.157-0.464,0.628-2.744,0.836-5.645c0.052-0.467,0.289-0.777,0.758-0.725h12.208
				c0.656,0,0.917,0.414,0.864,0.984l-0.261,5.385h1.515v2.099H176.051z M173.803,54.414h-10.274l-1.204,4.272h10.877
				L173.803,54.414z M165.384,48.043c-0.626-0.076-0.705,0.388-0.73,0.699c-0.079,0.856-0.263,2.046-0.604,3.574h9.988
				c0.157-1.501,0.209-2.642,0.209-3.34c0-0.933,0-0.985-0.627-0.933H165.384z M168.756,58.48c-0.809-1.089-1.543-1.969-2.143-2.589
				l1.569-1.218c0.994,1.113,1.777,2.071,2.222,2.719L168.756,58.48z M168.965,52.187c-0.496-0.881-1.175-1.839-1.986-2.745
				l1.673-1.113c0.863,1.087,1.542,2.045,2.065,2.874L168.965,52.187z"/>
			<path fill="#353535" d="M182.22,54.388l-0.34,0.362l-1.882-1.087c1.673-1.839,2.822-3.859,3.425-6.009l2.04,0.596
				c-0.367,1.061-0.733,2.046-1.125,2.874v13.155h-2.118V54.388z M180.103,46.333c1.462-1.708,2.457-3.677,2.98-5.826l2.04,0.518
				c-0.706,2.694-1.778,4.816-3.111,6.319L180.103,46.333z M201.018,49.235h-2.667v-1.969H184.86v-1.994h4.001l0.313-1.449h-2.851
				v-1.995h3.216l0.209-1.373l2.066,0.415l-0.183,0.958h4.757c0.34,0,0.497,0.182,0.497,0.544v2.9h1.491v1.865h6.013v2.099h-1.255
				v12.764c0,0.778-0.392,2.436-2.508,2.436c-0.734,0-1.673-0.156-2.824-0.466l0.026-2.175l1.438,0.413
				c0.339,0.078,0.626,0.104,0.862,0.104c0.576,0,0.889-0.155,0.889-0.855V49.235z M191.5,61.119h-6.43v-1.993h1.542v-1.941h-1.019
				V55.19h5.906v-1.346h-5.333c-0.183,0-0.287-0.104-0.287-0.311v-4.739c0-0.181,0.104-0.284,0.287-0.284h11.452
				c0.208,0,0.287,0.104,0.287,0.284v4.739c0,0.207-0.079,0.311-0.287,0.311h-4v1.346h4.653v1.996h-4.653v1.941h5.071v1.993h-5.071
				v2.953H191.5V61.119z M195.685,50.504h-7.609c-0.078,0-0.078,0.026-0.078,0.076v1.167l0.078,0.104h7.609l0.104-0.104V50.58
				L195.685,50.504z M191.5,59.126v-1.941h-2.769v1.941H191.5z M191.03,45.272h3.738v-1.165c0-0.181-0.104-0.285-0.261-0.285h-3.216
				L191.03,45.272z M198.456,41.492h5.647v2.097h-5.647V41.492z"/>
			<path fill="#353535" d="M209.985,63.166v1.087h-2.223V41.854c0-0.467,0.262-0.725,0.731-0.725h21.046
				c0.498,0,0.759,0.258,0.759,0.725v22.399h-2.221v-1.087H209.985z M225.461,43.123l0.575,1.76h1.202v1.996h-4.863
				c0.367,2.769,0.734,4.868,1.074,6.188c0.652-1.529,1.203-3.186,1.646-4.999l1.96,0.518c-1.098,4.144-2.377,6.421-2.876,7.122
				l0.682,1.863c0.234,0.544,0.391,0.856,0.47,0.856c0.313,0,0.339-1.166,0.339-1.763c0-0.465-0.026-0.957-0.052-1.476l1.961,0.519
				c-0.054,2.044-0.314,3.547-0.731,4.478c-0.209,0.338-0.551,0.805-1.282,0.805c-1.438,0-2.221-2.021-2.719-3.29
				c-0.915,1.243-1.855,2.383-2.771,3.315l-1.725-1.294l1.464-1.425c-2.563,0.62-5.387,1.01-8.444,1.165l-0.445-2.072
				c3.896-0.284,6.902-0.726,8.942-1.295l0.365,1.762l1.882-2.409c-0.679-2.228-1.254-5.101-1.752-8.57h-9.176v-1.996h8.967
				l-0.13-1.76h-9.726c-0.261,0-0.339,0.129-0.313,0.311v17.712h18.092V43.434c0-0.208-0.106-0.311-0.315-0.311H225.461z
				 M219.579,55.087c0,0.182-0.104,0.284-0.287,0.284h-7.817c-0.157,0-0.237-0.102-0.237-0.284v-6.319
				c0-0.181,0.08-0.258,0.237-0.258h7.817c0.183,0,0.287,0.077,0.287,0.258V55.087z M217.46,50.296h-4.129
				c-0.078,0-0.104,0.026-0.078,0.078v3.107l0.078,0.077h4.129l0.106-0.077v-3.107L217.46,50.296z M223.893,44.883l-0.626-1.76
				h-1.257l0.156,1.76H223.893z"/>
			<path fill="#353535" d="M246.271,50.814c-0.942,0.88-2.039,1.709-3.269,2.512l-1.542-1.451c1.359-0.751,2.484-1.553,3.398-2.355
				l-2.772-2.511l-0.652,0.595l-1.047-1.063l-0.574,2.073c-0.052,0.207-0.104,0.388-0.104,0.518c0,0.155,0.053,0.285,0.104,0.389
				c1.334,1.993,2.038,3.781,2.038,5.827c0,1.061-0.234,1.888-0.704,2.511c-0.891,1.035-1.673,1.035-2.381,1.035
				c-0.653,0-1.41-0.076-2.222-0.337v5.723h-2.118V41.233l0.078-0.259l0.235-0.052h5.621l1.465,0.933l-1.2,3.961
				c1.408-1.269,2.194-2.02,3.319-5.309l1.908-0.102l-0.209,0.776h3.895l1.49,0.726l-0.183,0.595
				c0.626,1.657,1.306,3.03,1.987,4.117c0.913-1.087,1.726-2.175,2.482-3.236h-3.164v-1.891h5.02l0.786,1.321
				c-0.942,1.657-2.247,3.417-3.946,5.308c0.991,1.14,2.325,2.278,3.972,3.417l-1.673,1.373c-0.942-0.674-1.777-1.449-2.563-2.227
				v1.76h-7.476V50.814z M239.265,43.46c0.026-0.078,0.026-0.182,0.026-0.234c0-0.31-0.235-0.31-0.47-0.31h-2.094l-0.131,0.052
				l-0.052,0.129v13.18c0.603,0.415,1.281,0.596,1.935,0.596c1.151,0,1.282-1.062,1.282-1.657c0-1.321-0.732-3.289-2.223-5.878
				v-0.155L239.265,43.46z M239.918,61.845c1.96-1.062,3.633-2.485,4.941-4.222l1.699,1.27c-1.752,2.2-3.529,3.729-5.255,4.583
				L239.918,61.845z M249.121,56.485h-5.909V54.49h14.224v1.994h-6.171v5.413c0,0.725-0.34,2.46-2.59,2.46
				c-0.783,0-1.804-0.157-3.056-0.493l0.052-2.175c1.148,0.336,2.038,0.518,2.587,0.518c0.681,0,0.863-0.208,0.863-0.854V56.485z
				 M244.468,46.593l1.673,1.606l0.835-1.138l0.183-0.313c-1.044-0.698-2.143-1.321-3.265-1.838l-0.551,0.751L244.468,46.593z
				 M246.454,44.158l1.595,0.906l0.521-1.19c0.026-0.182,0.053-0.31,0.053-0.44c0-0.233-0.079-0.363-0.209-0.363h-3.477
				l-0.104,0.234L246.454,44.158z M253.486,50.426c-1.439-1.554-2.64-3.289-3.556-5.102c-1.1,2.538-2.352,4.324-3.269,5.102H253.486
				z M256.259,63.58c-1.334-2.02-2.537-3.574-3.581-4.609l1.673-1.321c1.174,1.167,2.378,2.719,3.633,4.662L256.259,63.58z"/>
			<path fill="#353535" d="M263.708,56.329c-0.157,2.642-0.548,5.18-1.151,7.562l-2.273-0.544c0.913-3.16,1.36-6.551,1.36-10.073
				V41.595c0-0.336,0.183-0.518,0.521-0.518h6.067c0.287,0,0.339,0.129,0.548,0.518v21.131c0,0.984-0.942,1.579-1.726,1.579
				c-0.47,0-1.386-0.052-2.799-0.207l-0.183-2.304c1.1,0.284,1.856,0.387,2.222,0.387c0.212,0,0.368-0.024,0.368-0.258v-5.594
				H263.708z M263.786,47.759h2.877v-4.351l-0.078-0.182l-0.183-0.051h-2.407c-0.157,0-0.209,0.077-0.209,0.233V47.759z
				 M263.786,54.232h2.877v-4.377h-2.877V54.232z M274.061,43.175c-0.183,0-0.287,0.104-0.287,0.285v1.916
				c0,1.968-0.864,3.496-3.111,4.66l-1.412-1.812c1.256-0.544,2.407-1.321,2.407-3.522v-3.159l0.13-0.336l0.34-0.129h7.818
				l0.313,0.129l0.157,0.336v4.921c0,0.828,0.313,0.932,0.965,0.982c0.473,0,0.525-0.024,1.1-0.154
				c0.209-0.051,0.156-0.647,0.13-0.776v-1.709l2.039,0.155l-0.078,3.005c-0.157,1.216-1.436,1.579-1.935,1.579h-2.195
				c-1.596-0.078-2.17-1.216-2.144-2.099v-3.935c-0.026-0.233-0.13-0.337-0.341-0.337H274.061z M283.187,64.563
				c-2.276-0.93-4.394-2.122-6.302-3.546c-2.381,1.657-4.393,2.798-5.987,3.341l-1.543-2.046c2.746-0.829,4.08-1.45,5.831-2.694
				c-1.412-1.319-2.851-2.976-4.341-5.023l1.777-1.294c1.517,2.123,2.929,3.781,4.236,4.972c2.64-2.381,3.557-4.946,3.557-5.205
				c0-0.286-0.262-0.362-0.522-0.336h-9.309V50.53h11.139l1.253,1.113c-0.836,2.874-1.856,4.972-3.005,6.344l-1.465,1.605
				c1.622,1.089,3.66,2.071,6.116,2.951L283.187,64.563z"/>
			<path fill="#353535" d="M289.851,51.462l-0.861,1.243l-2.094-0.933c2.537-3.393,4.185-7.225,4.89-11.446l2.198,0.389
				c-0.551,2.511-1.203,4.661-1.911,6.421v17.142h-2.222V51.462z M292.676,62.751c3.815-1.968,5.933-5.386,6.301-10.228h-3.007
				V50.58l-1.178,1.657l-2.091-1.009c2.091-2.589,3.425-5.439,4.025-8.494l2.169,0.466c-0.679,2.615-1.618,4.998-2.821,7.121h11.921
				c-1.021-1.657-1.855-3.989-2.433-6.914c-0.026-0.129-0.104-0.182-0.209-0.182h-4.968v-2.201h6.354
				c0.313,0,0.521,0.182,0.577,0.57c0.678,5.05,2.038,7.277,4.154,9.763l-2.116,0.984l-0.813-1.113v4.066
				c-0.104,3.729-0.47,6.085-1.069,6.991c-1.178,1.941-3.061,2.02-3.977,2.02c-1.07,0-2.378-0.181-3.895-0.569l-0.052-2.59
				c0.626,0.233,2.247,0.804,3.425,0.804c1.046,0,1.935-0.389,2.639-1.219c0.656-1.034,0.786-3.884,0.786-6.551
				c0-1.347-0.078-1.657-0.417-1.657h-4.786c-0.548,5.645-2.85,9.633-6.875,11.885L292.676,62.751z"/>
			<path fill="#353535" d="M321.563,59.41v4.843h-2.224V50.296l-0.626,0.465c-1.151,0.829-2.355,1.606-3.661,2.279l-1.438-1.942
				c3.528-1.735,6.433-3.962,8.705-6.655h-8.262v-2.2h9.831l1.256-2.02l1.985,1.216l-0.495,0.804h11.057v2.2h-12.547
				c-0.839,1.114-1.752,2.201-2.721,3.16h12.655c0.392,0,0.574,0.182,0.574,0.544V61.69c0,0.88-0.313,2.642-3.607,2.642
				c-1.021,0-2.251-0.181-3.66-0.493v-2.459c1.49,0.439,2.639,0.646,3.426,0.646c1.542,0,1.621-1.034,1.621-1.216V59.41H321.563z
				 M321.563,52.445h11.87v-2.459c0-0.13-0.079-0.182-0.209-0.182h-11.504c-0.131,0-0.157,0.051-0.157,0.182V52.445z
				 M321.563,57.209h11.87v-2.563h-11.87V57.209z"/>
			<path fill="#353535" d="M347.472,48.82c-0.053,0.182-0.104,0.311-0.104,0.466c0,0.13,0.052,0.26,0.131,0.362
				c0.6,0.778,2.299,3.031,2.299,5.749c0,1.581-0.812,3.651-3.633,3.651c-0.76,0-1.595-0.155-2.485-0.44v5.569h-2.223V41.492
				l0.079-0.233l0.234-0.078h6.354l1.543,1.009L347.472,48.82z M346.921,43.796c0.025-0.077,0.052-0.155,0.052-0.232
				c0-0.286-0.261-0.286-0.47-0.286h-2.642l-0.131,0.052l-0.052,0.13V56.2c0.708,0.465,1.412,0.699,2.12,0.699
				c0.548,0,1.174-0.078,1.435-0.57c0.212-0.362,0.343-0.75,0.343-1.19c0-1.217-0.864-3.056-2.512-5.491v-0.31L346.921,43.796z
				 M364.044,55.294c-1.148,1.061-2.612,2.149-4.416,3.288c1.018,1.398,2.798,2.771,5.229,4.144l-1.726,1.632
				c-3.06-1.996-6.693-4.559-8.341-11.834h-1.934v8.908l3.816-0.958l0.496,2.149c-2.431,0.803-5.49,1.397-9.071,1.76l-0.392-2.201
				l2.926-0.336V41.776c0-0.414,0.238-0.646,0.682-0.646h11.191c0.443,0,0.678,0.232,0.678,0.646v10.049
				c0,0.491-0.234,0.699-0.704,0.699h-5.466c0.287,1.476,0.784,2.874,1.438,4.168c1.83-1.164,3.216-2.227,4.237-3.158
				L364.044,55.294z M352.856,45.789h8.105v-1.941c0-0.336-0.183-0.518-0.577-0.518h-6.98c-0.365,0-0.548,0.182-0.548,0.518V45.789z
				 M360.962,47.99h-8.105v2.332h7.737c0.237,0,0.368-0.104,0.368-0.336V47.99z"/>
			<path fill="#353535" d="M367.26,51.875c2.326-2.33,4-4.996,4.994-8l2.195,0.777c-1.387,3.703-3.085,6.577-5.098,8.544
				L367.26,51.875z M387.6,61.741l-19.267,1.579l-0.63-2.253l2.956-0.206c2.195-3.6,4.207-7.536,5.962-11.86l2.143,0.933
				c-1.099,2.873-2.876,6.474-5.332,10.747l12.809-0.958c-1.517-2.332-2.953-4.274-4.261-5.828l1.909-1.269
				c3.138,4.091,5.515,7.561,7.188,10.41l-1.986,1.114L387.6,61.741z M375.235,41.025h9.805c0.287-0.026,0.495,0.104,0.574,0.44
				c0.913,5.256,2.902,7.82,5.984,10.409l-2.091,1.295c-2.769-2.874-3.946-4.402-5.515-9.605c-0.026-0.234-0.104-0.338-0.235-0.338
				h-8.522V41.025z"/>
			<path fill="#353535" d="M395.284,41.025h21.178c0.522,0.026,0.731,0.312,0.705,0.777v19.266c0,2.046-1.517,3.264-4.312,3.264
				c-1.699,0-3.374-0.181-4.994-0.569l-0.34-2.408c2.117,0.491,3.791,0.75,4.966,0.75c1.15,0,2.354-0.154,2.354-1.839V43.589
				c0-0.232-0.104-0.362-0.365-0.362h-19.192V41.025z M395.966,45.479h16.26v2.201h-16.26V45.479z M411.417,59.281
				c0,0.232-0.104,0.336-0.339,0.336h-14.042c-0.208,0-0.313-0.104-0.313-0.336v-9.038c0-0.208,0.104-0.31,0.313-0.31h14.042
				c0.234,0,0.339,0.102,0.339,0.31V59.281z M409.063,52.135h-10.014c-0.078,0-0.104,0.026-0.104,0.103v5.05
				c0,0.078,0.026,0.129,0.104,0.129h10.014c0.078,0,0.132-0.051,0.132-0.129v-5.05L409.063,52.135z"/>
		</g>
	</g>
	<g>
		<g enable-background="new    ">
			<path fill="#898989" d="M270.396,77.567l-2.619,10.226h-1.617l-1.108-4.934c-0.271-1.189-0.47-2.218-0.588-3.313h-0.042
				c-0.159,1.096-0.388,2.098-0.695,3.313l-1.215,4.934h-1.633l-2.393-10.226h1.645l1.018,4.864c0.252,1.257,0.481,2.513,0.652,3.57
				h0.029c0.159-1.097,0.452-2.301,0.748-3.596l1.163-4.839h1.552l1.066,4.864c0.255,1.204,0.496,2.379,0.645,3.556h0.037
				c0.175-1.203,0.414-2.352,0.682-3.595l1.096-4.825H270.396z"/>
			<path fill="#898989" d="M279.685,87.792h-1.634l-0.922-3.009h-3.127l-0.884,3.009h-1.589l3.126-10.226h1.899L279.685,87.792z
				 M276.877,83.593l-0.804-2.671c-0.186-0.669-0.359-1.391-0.507-2.019h-0.026c-0.148,0.628-0.309,1.376-0.481,2.003l-0.815,2.687
				H276.877z"/>
			<path fill="#898989" d="M288.528,77.567l-3.17,5.907v4.318h-1.548v-4.278l-3.008-5.947h1.749l1.203,2.672
				c0.333,0.749,0.629,1.391,0.896,2.112h0.026c0.255-0.682,0.562-1.363,0.896-2.125l1.218-2.659H288.528z"/>
			<path fill="#898989" d="M301.771,87.792h-1.807c-0.252-0.268-0.48-0.522-0.829-0.923c-0.76,0.722-1.682,1.069-2.766,1.069
				c-2.03,0-3.115-1.363-3.115-2.859c0-1.324,0.748-2.287,1.886-2.955l0.014-0.039c-0.495-0.643-0.814-1.404-0.814-2.139
				c0-1.271,0.896-2.541,2.607-2.541c1.281,0,2.296,0.829,2.296,2.205c0,1.057-0.574,1.911-2.085,2.728v0.054
				c0.696,0.842,1.537,1.883,2.167,2.605c0.454-0.723,0.722-1.75,0.87-2.833h1.389c-0.241,1.523-0.667,2.847-1.456,3.783
				L301.771,87.792z M298.402,85.973c-0.642-0.734-1.618-1.885-2.566-3.02c-0.496,0.346-1.096,0.948-1.096,1.885
				c0,1.068,0.747,1.937,1.885,1.937C297.562,86.775,298.121,86.295,298.402,85.973z M295.743,79.811
				c0,0.668,0.293,1.203,0.707,1.738c0.908-0.562,1.444-1.096,1.444-1.872c0-0.587-0.295-1.229-1.044-1.229
				C296.091,78.448,295.743,79.129,295.743,79.811z"/>
		</g>
		<g enable-background="new    ">
			<path fill="#898989" d="M320.384,77.567l-2.622,10.226h-1.614l-1.111-4.934c-0.267-1.189-0.467-2.218-0.589-3.313h-0.04
				c-0.16,1.096-0.386,2.098-0.694,3.313l-1.217,4.934h-1.63l-2.393-10.226h1.645l1.015,4.864c0.255,1.257,0.481,2.513,0.655,3.57
				h0.026c0.159-1.097,0.456-2.301,0.748-3.596l1.163-4.839h1.552l1.069,4.864c0.252,1.204,0.493,2.379,0.641,3.556h0.041
				c0.174-1.203,0.415-2.352,0.682-3.595l1.096-4.825H320.384z"/>
			<path fill="#898989" d="M329.721,87.792h-1.629l-0.923-3.009h-3.129l-0.881,3.009h-1.589l3.125-10.226h1.9L329.721,87.792z
				 M326.914,83.593l-0.801-2.671c-0.188-0.669-0.362-1.391-0.508-2.019h-0.028c-0.146,0.628-0.308,1.376-0.481,2.003l-0.814,2.687
				H326.914z"/>
			<path fill="#898989" d="M338.621,77.567l-3.167,5.907v4.318h-1.551v-4.278l-3.008-5.947h1.752l1.203,2.672
				c0.333,0.749,0.627,1.391,0.896,2.112h0.026c0.252-0.682,0.559-1.363,0.896-2.125l1.215-2.659H338.621z"/>
			<path fill="#898989" d="M344.073,77.567h1.548v10.226h-1.548V77.567z"/>
			<path fill="#898989" d="M355.754,87.792h-1.566l-2.686-4.786c-0.615-1.108-1.229-2.313-1.699-3.461l-0.052,0.013
				c0.081,1.296,0.107,2.619,0.107,4.41v3.824h-1.431V77.567h1.683l2.674,4.731c0.643,1.122,1.217,2.299,1.659,3.381l0.04-0.013
				c-0.122-1.392-0.163-2.7-0.163-4.331v-3.769h1.434V87.792z"/>
			<path fill="#898989" d="M364.65,78.889h-2.767v8.903h-1.548v-8.903h-2.756v-1.322h7.07V78.889z"/>
			<path fill="#898989" d="M371.975,87.792h-5.495V77.567h1.552v8.915h3.943V87.792z"/>
			<path fill="#898989" d="M384.32,87.51c-0.427,0.215-1.297,0.429-2.404,0.429c-2.847,0-4.759-1.884-4.759-5.146
				c0-3.476,2.192-5.373,5.026-5.373c1.174,0,1.896,0.253,2.177,0.401l-0.333,1.27c-0.429-0.201-1.03-0.375-1.792-0.375
				c-1.979,0-3.448,1.337-3.448,3.997c0,2.514,1.311,3.916,3.422,3.916c0.696,0,1.403-0.146,1.844-0.361L384.32,87.51z"/>
			<path fill="#898989" d="M394.664,82.578c0,3.556-1.911,5.36-4.396,5.36c-2.607,0-4.277-2.112-4.277-5.2
				c0-3.221,1.789-5.333,4.411-5.333C393.112,77.406,394.664,79.638,394.664,82.578z M387.62,82.699c0,2.071,0.937,3.971,2.7,3.971
				c1.792,0,2.714-1.86,2.714-4.037c0-1.952-0.855-3.957-2.688-3.957C388.461,78.676,387.62,80.694,387.62,82.699z"/>
			<path fill="#898989" d="M401.316,82.925c0.763,0.282,1.192,1.004,1.433,2.086c0.308,1.337,0.56,2.394,0.759,2.781h-1.603
				c-0.146-0.296-0.387-1.189-0.642-2.446c-0.281-1.363-0.773-1.886-1.858-1.886h-0.934v4.332h-1.537V77.7
				c0.653-0.121,1.563-0.215,2.485-0.215c1.337,0,2.273,0.24,2.914,0.815c0.534,0.468,0.814,1.177,0.814,2.006
				c0,1.31-0.803,2.206-1.832,2.592V82.925z M399.513,82.298c1.284,0,2.084-0.736,2.084-1.832c0-1.324-0.933-1.777-2.043-1.777
				c-0.523,0-0.896,0.041-1.082,0.094v3.516H399.513z"/>
			<path fill="#898989" d="M405.564,77.687c0.615-0.107,1.43-0.201,2.485-0.201c1.259,0,2.207,0.268,2.821,0.815
				c0.574,0.495,0.922,1.27,0.922,2.206c0,2.485-1.977,3.341-3.821,3.341c-0.322,0-0.614-0.014-0.87-0.066v4.011h-1.537V77.687z
				 M407.102,82.538c0.229,0.066,0.508,0.08,0.87,0.08c1.415,0,2.27-0.735,2.27-2.045c0-1.242-0.854-1.872-2.096-1.872
				c-0.481,0-0.844,0.055-1.044,0.095V82.538z"/>
			<path fill="#898989" d="M413.769,86.882c0-0.615,0.429-1.068,1.004-1.068c0.588,0,0.988,0.44,0.988,1.068
				c0,0.614-0.386,1.057-1.001,1.057S413.769,87.471,413.769,86.882z"/>
		</g>
	</g>
</g>
</svg>
