<?xml version="1.0" encoding="utf-8"?>
<!-- Generator: Adobe Illustrator 22.0.1, SVG Export Plug-In . SVG Version: 6.00 Build 0)  -->
<svg version="1.1" id="圖層_1" xmlns="http://www.w3.org/2000/svg" xmlns:xlink="http://www.w3.org/1999/xlink" x="0px" y="0px"
	 viewBox="0 0 425.2 113.4" style="enable-background:new 0 0 425.2 113.4;" xml:space="preserve">
<g>
	<path d="M13.7,53.7c4.1-4.1,9.5-6.2,16-6.2S41.3,49.3,45,53c3.9,3.9,6,8.9,6.2,15h-7.8c-0.4-4.6-1.9-8-4.2-10.4
		c-2.6-2.6-5.8-3.9-9.5-3.9c-3.9,0-7.4,1.5-10.4,4.6c-3.9,3.9-5.9,9.9-5.9,17.9c0,8,2,14,5.9,17.9c2.8,2.8,6.3,4.2,10.4,4.2
		c4.3,0,7.7-1.2,10.1-3.6c3-3,4.6-7.4,4.6-13h7.8C52,89.1,49.8,94.9,45.7,99c-3.7,3.7-9,5.5-16,5.5c-6.5,0-11.9-2.1-16-6.2
		c-5.4-5.4-8.2-12.8-8.2-22.2C5.6,66.6,8.3,59.1,13.7,53.7z"/>
	<path d="M53.3,103.9l22.2-56.4H82l22.2,56.4h-7.8l-6.8-17H67.9l-6.8,17H53.3z M78.7,58.2l-8.5,22.5h17L78.7,58.2z"/>
	<path d="M107.8,47.8h27.4c4.3,0,7.9,1.4,10.8,4.2c2.8,2.8,4.2,6.7,4.2,11.7c0,5-1.4,8.9-4.2,11.7c-1.5,1.5-3.7,2.5-6.5,2.9
		l12.7,25.1H144l-11.7-24.1h-17v24.1h-7.5V47.8z M115.3,54v19.2h19.2c2.2,0,4-0.8,5.5-2.3c1.5-1.5,2.3-3.9,2.3-7.2
		c0-3-0.9-5.4-2.6-7.2c-1.7-1.7-3.8-2.6-6.2-2.6H115.3z"/>
	<path d="M182.9,53.7c4.1-4.1,9.5-6.2,16-6.2s11.6,1.9,15.3,5.5c3.9,3.9,6,8.9,6.2,15h-7.8c-0.4-4.6-1.9-8-4.2-10.4
		c-2.6-2.6-5.8-3.9-9.5-3.9c-3.9,0-7.4,1.5-10.4,4.6c-3.9,3.9-5.9,9.9-5.9,17.9c0,8,2,14,5.9,17.9c2.8,2.8,6.3,4.2,10.4,4.2
		c4.3,0,7.7-1.2,10.1-3.6c3-3,4.6-7.4,4.6-13h7.8c-0.2,7.4-2.4,13.2-6.5,17.3c-3.7,3.7-9,5.5-16,5.5c-6.5,0-11.9-2.1-16-6.2
		c-5.4-5.4-8.2-12.8-8.2-22.2C174.8,66.6,177.5,59.1,182.9,53.7z"/>
	<path d="M234.2,54.3c4.6-4.6,10.1-6.8,16.6-6.8s12.1,2.3,16.6,6.8c5.2,5.2,7.8,12.4,7.8,21.5s-2.6,16.3-7.8,21.5
		c-4.6,4.6-10.1,6.8-16.6,6.8s-12.1-2.3-16.6-6.8c-5.2-5.2-7.8-12.4-7.8-21.5S229,59.6,234.2,54.3z M239.8,58.6
		c-3.7,3.7-5.5,9.5-5.5,17.3s1.8,13.6,5.5,17.3c3.3,3.3,7,4.9,11.1,4.9c4.1,0,7.8-1.6,11.1-4.9c3.7-3.7,5.5-9.5,5.5-17.3
		s-1.9-13.6-5.5-17.3c-3.3-3.3-7-4.9-11.1-4.9C246.7,53.7,243,55.3,239.8,58.6z"/>
	<path d="M282.9,48.1h7.5v49.6h30v6.2h-37.5V48.1z"/>
	<path d="M329.9,54.3c4.6-4.6,10.1-6.8,16.6-6.8s12.1,2.3,16.6,6.8c5.2,5.2,7.8,12.4,7.8,21.5s-2.6,16.3-7.8,21.5
		c-4.6,4.6-10.1,6.8-16.6,6.8s-12.1-2.3-16.6-6.8c-5.2-5.2-7.8-12.4-7.8-21.5S324.7,59.6,329.9,54.3z M335.5,58.6
		c-3.7,3.7-5.5,9.5-5.5,17.3s1.8,13.6,5.5,17.3c3.3,3.3,7,4.9,11.1,4.9c4.1,0,7.8-1.6,11.1-4.9c3.7-3.7,5.5-9.5,5.5-17.3
		s-1.9-13.6-5.5-17.3c-3.3-3.3-7-4.9-11.1-4.9C342.4,53.7,338.7,55.3,335.5,58.6z"/>
	<path d="M378.9,47.8h27.4c4.3,0,7.9,1.4,10.8,4.2c2.8,2.8,4.2,6.7,4.2,11.7c0,5-1.4,8.9-4.2,11.7c-1.5,1.5-3.7,2.5-6.5,2.9
		l12.7,25.1h-8.2l-11.7-24.1h-17v24.1h-7.5V47.8z M386.4,54v19.2h19.2c2.2,0,4-0.8,5.5-2.3c1.5-1.5,2.3-3.9,2.3-7.2
		c0-3-0.9-5.4-2.6-7.2c-1.7-1.7-3.8-2.6-6.2-2.6H386.4z"/>
</g>
<g>
	<path d="M13.5,8.6c1.6-1.6,4-2.3,7.2-2.3c3.5,0,6.1,0.9,7.9,2.7c1.6,1.6,2.3,3.4,2.3,5.5h-3.9c0-1.3-0.4-2.5-1.3-3.3
		c-1-1-2.6-1.5-4.7-1.5c-2.3,0-4,0.4-4.9,1.3c-0.8,0.8-1.2,1.7-1.2,2.7s0.2,1.7,0.7,2.2c0.6,0.6,1.6,1.1,3,1.7
		c2.6,1.1,5.5,2.4,8.7,3.9c0.9,0.3,1.7,0.9,2.5,1.7c1.2,1.2,1.8,2.7,1.8,4.4c0,2.2-0.8,4.1-2.3,5.7c-1.7,1.7-4.4,2.5-8.2,2.5
		c-3.7,0-6.5-1-8.5-3c-1.5-1.5-2.2-3.6-2.2-6.4h3.9c0,2,0.4,3.5,1.3,4.4c1.2,1.2,3.1,1.8,5.7,1.8c2.3,0,4.1-0.6,5.2-1.7
		c0.9-0.9,1.3-1.8,1.3-2.7c0-1-0.3-1.8-1-2.5c-0.6-0.6-1.5-1.1-2.7-1.7c-1.1-0.6-2.6-1.2-4.4-2c-2-0.9-3.6-1.6-4.9-2.2
		c-0.9-0.3-1.7-0.8-2.3-1.5c-1-1-1.5-2.3-1.5-4C11.2,12,12,10.2,13.5,8.6z"/>
	<path d="M36.5,18.5c1.6-1.6,3.6-2.3,6-2.3c2.3,0,4.4,0.8,6,2.5c1.6,1.6,2.3,4,2.3,7.2H37.3c0,2.3,0.6,4.1,1.7,5.2
		c1,1,2.3,1.5,3.9,1.5c1.6,0,2.7-0.3,3.3-1c0.8-0.8,1.2-1.7,1.2-2.7h3.7c-0.4,2-1.2,3.5-2.2,4.5c-1.5,1.5-3.5,2.2-6,2.2
		c-2.7,0-4.9-0.8-6.5-2.5c-1.8-1.8-2.7-4.2-2.7-7.2S34.6,20.4,36.5,18.5z M39,20.4c-0.8,0.8-1.3,1.7-1.5,2.8h9.5
		c0-1.1-0.4-2.1-1.3-3c-0.8-0.8-1.9-1.2-3.3-1.2C41,19,39.9,19.5,39,20.4z"/>
	<path d="M53.8,6.6h3.3v28.6h-3.3V6.6z"/>
	<path d="M62.7,18.5c1.6-1.6,3.6-2.3,6-2.3c2.3,0,4.4,0.8,6,2.5c1.6,1.6,2.3,4,2.3,7.2H63.5c0,2.3,0.6,4.1,1.7,5.2
		c1,1,2.3,1.5,3.9,1.5c1.6,0,2.7-0.3,3.3-1c0.8-0.8,1.2-1.7,1.2-2.7h3.7c-0.4,2-1.2,3.5-2.2,4.5c-1.5,1.5-3.5,2.2-6,2.2
		c-2.7,0-4.9-0.8-6.5-2.5c-1.8-1.8-2.7-4.2-2.7-7.2S60.8,20.4,62.7,18.5z M65.2,20.4c-0.8,0.8-1.3,1.7-1.5,2.8h9.5
		c0-1.1-0.4-2.1-1.3-3C71.1,19.4,70,19,68.6,19C67.2,19,66.1,19.5,65.2,20.4z"/>
	<path d="M81.8,18.9c1.7-1.7,3.7-2.5,6.2-2.5c2.7,0,4.7,0.7,6,2c1.2,1.2,2,2.7,2.2,4.5h-3.7c-0.1-0.9-0.6-1.7-1.3-2.5
		c-0.7-0.7-1.7-1-3-1s-2.5,0.4-3.3,1.3c-1.3,1.3-2,3.2-2,5.5c0,2.2,0.6,4,1.8,5.2c0.9,0.9,2,1.3,3.3,1.3c1.6,0,2.8-0.4,3.7-1.3
		c0.9-0.9,1.3-2.1,1.3-3.5h3.7c-0.1,2.3-0.9,4.2-2.3,5.7c-1.5,1.5-3.6,2.2-6.4,2.2c-2.3,0-4.3-0.8-5.9-2.3c-2-2-3-4.5-3-7.4
		C79.1,23,80,20.6,81.8,18.9z"/>
	<path d="M100.4,10h3.3v6.5h5.7v2.7h-5.7v10.9c0,0.7,0.3,1.3,0.8,1.8c0.4,0.4,1.2,0.7,2.2,0.7c1.6,0,3-0.4,4.2-1.2v3.2
		c-1.2,0.7-2.6,1-4,1c-2.2,0-3.9-0.5-4.9-1.5c-1.1-1.1-1.7-2.3-1.7-3.7V19.2h-4v-2.7h4V10z"/>
</g>
</svg>
