<?xml version="1.0" encoding="utf-8"?>
<!-- Generator: Adobe Illustrator 16.0.0, SVG Export Plug-In . SVG Version: 6.00 Build 0)  -->
<!DOCTYPE svg PUBLIC "-//W3C//DTD SVG 1.1//EN" "http://www.w3.org/Graphics/SVG/1.1/DTD/svg11.dtd">
<svg version="1.1" id="圖層_1" xmlns="http://www.w3.org/2000/svg" xmlns:xlink="http://www.w3.org/1999/xlink" x="0px" y="0px"
	 width="425.197px" height="113.387px" viewBox="0 0 425.197 113.387" enable-background="new 0 0 425.197 113.387"
	 xml:space="preserve">
<g>
	<g>
		<path fill="#231815" d="M72.406,95.536c0,0.515-0.017,0.964-0.048,1.349c-0.031,0.388-0.088,0.724-0.167,1.012
			c-0.082,0.288-0.188,0.546-0.314,0.771c-0.129,0.227-0.354,0.499-0.675,0.817c-0.322,0.321-0.995,0.812-2.021,1.471
			c-1.027,0.658-2.304,1.3-3.828,1.925c-1.525,0.625-3.273,1.157-5.247,1.59c-1.975,0.434-4.135,0.65-6.478,0.65
			c-4.045,0-7.697-0.677-10.954-2.023c-3.258-1.349-6.034-3.338-8.328-5.971c-2.297-2.632-4.063-5.883-5.298-9.75
			c-1.236-3.868-1.854-8.322-1.854-13.365c0-5.166,0.666-9.772,1.998-13.818c1.331-4.045,3.203-7.47,5.608-10.278
			c2.407-2.811,5.288-4.952,8.645-6.43c3.354-1.476,7.07-2.215,11.146-2.215c1.798,0,3.547,0.168,5.249,0.506
			c1.701,0.337,3.273,0.764,4.72,1.276c1.443,0.513,2.728,1.107,3.853,1.782c1.124,0.674,1.902,1.228,2.334,1.661
			c0.435,0.433,0.716,0.763,0.843,0.986c0.128,0.225,0.232,0.489,0.313,0.794c0.079,0.306,0.145,0.667,0.192,1.082
			c0.048,0.417,0.07,0.915,0.07,1.493c0,0.645-0.031,1.188-0.098,1.637c-0.064,0.451-0.16,0.827-0.29,1.134
			c-0.13,0.306-0.283,0.528-0.459,0.676c-0.179,0.143-0.396,0.217-0.654,0.217c-0.451,0-1.081-0.313-1.889-0.939
			c-0.809-0.625-1.85-1.315-3.123-2.07s-2.823-1.445-4.646-2.071s-4.009-0.939-6.56-0.939c-2.776,0-5.301,0.555-7.576,1.662
			c-2.273,1.108-4.22,2.737-5.833,4.887s-2.865,4.775-3.752,7.875c-0.888,3.097-1.33,6.636-1.33,10.616
			c0,3.947,0.427,7.438,1.283,10.473c0.854,3.032,2.08,5.569,3.679,7.607c1.598,2.039,3.559,3.578,5.881,4.622
			c2.324,1.045,4.954,1.564,7.893,1.564c2.483,0,4.654-0.305,6.51-0.915c1.855-0.609,3.438-1.291,4.744-2.045
			c1.307-0.755,2.379-1.438,3.22-2.047c0.838-0.611,1.499-0.915,1.983-0.915c0.227,0,0.421,0.048,0.582,0.144
			c0.162,0.097,0.29,0.283,0.388,0.557c0.096,0.271,0.17,0.648,0.217,1.132C72.382,94.189,72.406,94.799,72.406,95.536z"/>
		<path fill="#231815" d="M130.044,101.412c0.256,0.707,0.394,1.275,0.409,1.709c0.018,0.436-0.104,0.764-0.361,0.987
			c-0.257,0.227-0.682,0.368-1.275,0.434c-0.594,0.064-1.388,0.097-2.383,0.097c-0.996,0-1.79-0.025-2.384-0.073
			c-0.594-0.046-1.043-0.128-1.349-0.238c-0.305-0.113-0.528-0.268-0.675-0.459c-0.146-0.194-0.281-0.436-0.408-0.725l-5.345-15.167
			H90.368l-5.104,14.977c-0.097,0.289-0.226,0.538-0.386,0.744c-0.161,0.209-0.394,0.388-0.697,0.529
			c-0.306,0.146-0.738,0.249-1.302,0.313c-0.562,0.063-1.292,0.096-2.189,0.096c-0.932,0-1.693-0.04-2.287-0.119
			c-0.594-0.082-1.011-0.235-1.252-0.46c-0.242-0.224-0.354-0.555-0.338-0.986c0.016-0.434,0.151-1.003,0.409-1.71l20.896-57.876
			c0.129-0.354,0.297-0.643,0.506-0.866s0.514-0.402,0.915-0.53c0.402-0.128,0.914-0.217,1.542-0.266
			c0.625-0.048,1.42-0.071,2.382-0.071c1.028,0,1.878,0.023,2.554,0.071c0.674,0.049,1.219,0.136,1.638,0.266
			c0.416,0.128,0.737,0.313,0.963,0.554c0.224,0.242,0.401,0.537,0.53,0.892L130.044,101.412z M103.223,50.323h-0.049L92.438,81.382
			h21.668L103.223,50.323z"/>
		<path fill="#231815" d="M181.999,103.096c0,0.257-0.049,0.481-0.145,0.675c-0.097,0.194-0.308,0.354-0.626,0.482
			c-0.321,0.129-0.771,0.224-1.349,0.288c-0.576,0.064-1.348,0.097-2.311,0.097c-0.836,0-1.519-0.031-2.047-0.097
			c-0.529-0.064-0.955-0.168-1.275-0.313c-0.322-0.144-0.568-0.345-0.746-0.602c-0.177-0.258-0.33-0.578-0.458-0.964l-5.729-14.686
			c-0.675-1.669-1.372-3.202-2.095-4.599c-0.724-1.396-1.58-2.602-2.575-3.61c-0.996-1.013-2.167-1.798-3.517-2.359
			s-2.97-0.842-4.862-0.842h-5.538v26.529c0,0.258-0.073,0.482-0.218,0.676c-0.144,0.192-0.369,0.346-0.675,0.457
			c-0.305,0.113-0.723,0.21-1.252,0.292c-0.528,0.078-1.196,0.119-1.998,0.119c-0.803,0-1.47-0.041-1.999-0.119
			c-0.528-0.082-0.954-0.179-1.274-0.292c-0.321-0.111-0.546-0.265-0.675-0.457s-0.191-0.417-0.191-0.676V45.411
			c0-1.252,0.329-2.126,0.987-2.623c0.657-0.497,1.354-0.748,2.095-0.748h13.241c1.57,0,2.881,0.041,3.924,0.12
			c1.043,0.082,1.98,0.167,2.816,0.265c2.407,0.418,4.534,1.077,6.381,1.974c1.845,0.898,3.394,2.039,4.646,3.419
			c1.252,1.378,2.19,2.962,2.817,4.745c0.625,1.781,0.938,3.747,0.938,5.897c0,2.085-0.282,3.957-0.842,5.607
			c-0.563,1.653-1.373,3.114-2.432,4.38c-1.061,1.271-2.328,2.369-3.805,3.3c-1.477,0.934-3.131,1.718-4.961,2.359
			c1.028,0.45,1.958,1.021,2.794,1.71c0.835,0.689,1.613,1.518,2.334,2.479c0.724,0.962,1.404,2.069,2.048,3.323
			c0.643,1.251,1.281,2.663,1.925,4.235l5.587,13.725c0.448,1.156,0.738,1.97,0.866,2.433
			C181.934,102.48,181.999,102.842,181.999,103.096z M169.528,59.328c0-2.438-0.547-4.502-1.638-6.188
			c-1.093-1.686-2.921-2.895-5.489-3.635c-0.804-0.224-1.709-0.385-2.722-0.481c-1.011-0.096-2.334-0.145-3.974-0.145h-6.979v20.995
			h8.089c2.183,0,4.067-0.266,5.657-0.793c1.59-0.531,2.914-1.27,3.974-2.217c1.059-0.944,1.837-2.063,2.335-3.347
			C169.278,62.231,169.528,60.838,169.528,59.328z"/>
		<path fill="#231815" d="M255.332,45.605c0,0.609-0.029,1.14-0.095,1.589c-0.064,0.451-0.169,0.812-0.315,1.083
			c-0.141,0.272-0.319,0.475-0.525,0.602c-0.21,0.129-0.443,0.192-0.699,0.192H236.17v54.026c0,0.257-0.065,0.481-0.19,0.675
			c-0.131,0.191-0.354,0.346-0.676,0.458s-0.747,0.209-1.277,0.291c-0.525,0.079-1.193,0.119-1.997,0.119
			c-0.771,0-1.427-0.04-1.974-0.119c-0.547-0.082-0.979-0.179-1.3-0.291s-0.548-0.265-0.675-0.458
			c-0.13-0.191-0.192-0.416-0.192-0.675V49.072h-17.525c-0.258,0-0.489-0.063-0.698-0.191c-0.209-0.126-0.378-0.328-0.507-0.602
			c-0.128-0.271-0.231-0.632-0.313-1.083c-0.08-0.448-0.12-0.978-0.12-1.589c0-0.607,0.04-1.146,0.12-1.612
			c0.081-0.467,0.185-0.844,0.313-1.134c0.129-0.289,0.298-0.497,0.507-0.625s0.44-0.192,0.698-0.192h43.335
			c0.256,0,0.489,0.065,0.699,0.192c0.206,0.128,0.386,0.337,0.525,0.625c0.146,0.29,0.251,0.667,0.315,1.134
			C255.302,44.46,255.332,44.996,255.332,45.605z"/>
		<path fill="#231815" d="M284.177,80.129v22.968c0,0.257-0.065,0.481-0.191,0.675c-0.13,0.191-0.354,0.346-0.67,0.458
			c-0.319,0.112-0.753,0.209-1.293,0.291c-0.545,0.079-1.198,0.119-1.964,0.119c-0.8,0-1.461-0.04-1.987-0.119
			c-0.526-0.082-0.958-0.179-1.292-0.291c-0.336-0.112-0.566-0.265-0.694-0.458c-0.127-0.192-0.189-0.416-0.189-0.675V80.129
			l-17.624-35.151c-0.353-0.738-0.57-1.316-0.651-1.733c-0.081-0.416,0-0.737,0.244-0.964c0.24-0.223,0.675-0.367,1.3-0.434
			c0.625-0.063,1.469-0.095,2.529-0.095c0.96,0,1.738,0.032,2.334,0.095c0.593,0.066,1.067,0.153,1.422,0.266
			c0.354,0.113,0.615,0.272,0.793,0.482c0.177,0.209,0.346,0.474,0.507,0.794l8.619,17.913c0.799,1.702,1.599,3.484,2.396,5.344
			c0.798,1.864,1.61,3.74,2.443,5.634h0.092c0.735-1.829,1.492-3.648,2.273-5.466c0.785-1.811,1.575-3.601,2.378-5.367l8.667-18.009
			c0.097-0.319,0.233-0.594,0.408-0.817s0.416-0.394,0.724-0.507c0.304-0.11,0.731-0.198,1.273-0.266
			c0.547-0.063,1.235-0.095,2.07-0.095c1.156,0,2.063,0.039,2.724,0.12c0.657,0.08,1.113,0.232,1.372,0.457
			c0.256,0.224,0.346,0.546,0.266,0.963c-0.082,0.418-0.298,0.979-0.65,1.686L284.177,80.129z"/>
		<path fill="#231815" d="M350.673,60.292c0,3.112-0.515,5.922-1.542,8.425c-1.026,2.507-2.494,4.64-4.405,6.405
			c-1.909,1.767-4.252,3.132-7.029,4.095c-2.776,0.96-6.091,1.443-9.942,1.443h-7.078v22.438c0,0.258-0.074,0.481-0.216,0.676
			c-0.146,0.191-0.369,0.346-0.677,0.457c-0.305,0.113-0.723,0.209-1.251,0.292c-0.531,0.078-1.196,0.119-1.998,0.119
			c-0.804,0-1.471-0.041-2-0.119c-0.527-0.083-0.954-0.179-1.273-0.292c-0.319-0.111-0.547-0.265-0.676-0.457
			c-0.132-0.193-0.191-0.417-0.191-0.676V45.605c0-1.284,0.337-2.199,1.012-2.745c0.674-0.545,1.428-0.817,2.263-0.817h13.337
			c1.351,0,2.641,0.057,3.877,0.168c1.232,0.112,2.696,0.354,4.38,0.722c1.688,0.37,3.403,1.059,5.153,2.072
			c1.749,1.01,3.234,2.255,4.454,3.729c1.222,1.478,2.159,3.188,2.816,5.128C350.344,55.805,350.673,57.947,350.673,60.292z
			 M341.957,60.965c0-2.536-0.475-4.654-1.422-6.356c-0.945-1.702-2.118-2.968-3.513-3.804c-1.396-0.835-2.843-1.364-4.336-1.589
			c-1.492-0.223-2.944-0.338-4.356-0.338h-7.655V73.87h7.466c2.502,0,4.58-0.321,6.235-0.965c1.651-0.642,3.041-1.531,4.164-2.673
			c1.124-1.139,1.974-2.504,2.554-4.092C341.669,64.552,341.957,62.827,341.957,60.965z"/>
		<path fill="#231815" d="M398.005,100.93c0,0.578-0.03,1.085-0.096,1.517c-0.063,0.435-0.176,0.796-0.336,1.084
			c-0.162,0.29-0.349,0.499-0.555,0.626c-0.211,0.129-0.442,0.191-0.699,0.191H366.42c-0.739,0-1.438-0.247-2.097-0.745
			c-0.659-0.498-0.988-1.374-0.988-2.624V45.411c0-1.252,0.329-2.126,0.988-2.623c0.658-0.497,1.356-0.748,2.097-0.748h29.563
			c0.257,0,0.489,0.065,0.698,0.191c0.208,0.128,0.378,0.337,0.509,0.625c0.126,0.289,0.23,0.65,0.312,1.083
			c0.078,0.434,0.119,0.972,0.119,1.613c0,0.578-0.041,1.083-0.119,1.517c-0.08,0.434-0.187,0.787-0.312,1.06
			c-0.131,0.271-0.3,0.473-0.509,0.601s-0.441,0.191-0.698,0.191h-24.365v19.55h20.899c0.257,0,0.488,0.07,0.697,0.217
			c0.208,0.144,0.386,0.346,0.529,0.602c0.144,0.257,0.247,0.609,0.313,1.061c0.063,0.448,0.097,0.979,0.097,1.588
			c0,0.577-0.032,1.075-0.097,1.492c-0.065,0.417-0.17,0.756-0.313,1.012c-0.145,0.256-0.321,0.441-0.529,0.555
			c-0.209,0.112-0.44,0.168-0.697,0.168h-20.899V97.46h24.703c0.257,0,0.488,0.063,0.699,0.191c0.206,0.129,0.393,0.33,0.555,0.604
			c0.16,0.271,0.271,0.623,0.336,1.057C397.975,99.746,398.005,100.287,398.005,100.93z"/>
	</g>
	<g>
		<path fill="#231815" d="M41.403,35.453c-3.706,0-6.479-0.83-8.313-2.491s-2.8-3.795-2.896-6.4h3.354
			c0.182,1.959,0.996,3.41,2.448,4.347c1.452,0.938,3.207,1.407,5.266,1.407c1.947,0,3.517-0.399,4.705-1.202
			c1.19-0.802,1.784-1.889,1.784-3.263c0-1.448-0.614-2.5-1.847-3.158c-1.232-0.657-3.35-1.305-6.356-1.945
			s-5.164-1.526-6.474-2.661c-1.31-1.136-1.963-2.648-1.963-4.538c0-2.127,0.851-3.874,2.555-5.236
			c1.704-1.363,3.965-2.046,6.786-2.046c2.965,0,5.355,0.689,7.173,2.063c1.816,1.376,2.78,3.318,2.889,5.827h-3.391
			c-0.348-3.181-2.521-4.77-6.527-4.77c-1.937,0-3.438,0.365-4.501,1.092c-1.064,0.731-1.596,1.698-1.596,2.906
			c0,1.099,0.427,1.926,1.282,2.476c0.855,0.549,2.45,1.081,4.788,1.595c2.337,0.515,4.192,1.021,5.567,1.523
			c1.376,0.502,2.553,1.283,3.531,2.341c0.981,1.059,1.473,2.478,1.473,4.258c0,2.261-0.899,4.138-2.699,5.631
			C46.642,34.706,44.296,35.453,41.403,35.453z"/>
		<path fill="#231815" d="M63.62,35.453c-2.798,0-5.045-0.875-6.742-2.627c-1.696-1.751-2.546-4.193-2.546-7.324
			c0-3.108,0.822-5.543,2.466-7.309c1.644-1.764,3.793-2.645,6.446-2.645c2.713,0,4.88,0.867,6.499,2.6
			c1.621,1.732,2.431,4.184,2.431,7.354v0.806H57.846c0.145,2.2,0.75,3.832,1.82,4.896c1.07,1.062,2.389,1.594,3.953,1.594
			c1.185,0,2.25-0.3,3.2-0.907c0.951-0.603,1.45-1.46,1.497-2.572h3.497c-0.265,1.961-1.151,3.474-2.664,4.538
			C67.638,34.921,65.796,35.453,63.62,35.453z M68.605,23.654c-0.275-1.828-0.893-3.196-1.849-4.106
			c-0.957-0.909-2.128-1.362-3.514-1.362c-1.353,0-2.511,0.451-3.479,1.355c-0.969,0.901-1.583,2.273-1.847,4.113H68.605z"/>
		<path fill="#231815" d="M79.349,35.005h-3.391V8.716h3.391V35.005z"/>
		<path fill="#231815" d="M92.42,35.453c-2.797,0-5.045-0.875-6.741-2.627c-1.697-1.751-2.546-4.193-2.546-7.324
			c0-3.108,0.82-5.543,2.466-7.309c1.645-1.764,3.793-2.645,6.445-2.645c2.715,0,4.88,0.867,6.5,2.6s2.431,4.184,2.431,7.354v0.806
			H86.646c0.143,2.2,0.749,3.832,1.819,4.896c1.068,1.062,2.388,1.594,3.953,1.594c1.185,0,2.25-0.3,3.201-0.907
			c0.95-0.603,1.449-1.46,1.498-2.572h3.496c-0.264,1.961-1.15,3.474-2.663,4.538C96.438,34.921,94.597,35.453,92.42,35.453z
			 M97.405,23.654c-0.275-1.828-0.89-3.196-1.848-4.106c-0.956-0.909-2.128-1.362-3.515-1.362c-1.353,0-2.511,0.451-3.479,1.355
			c-0.967,0.901-1.584,2.273-1.847,4.113H97.405z"/>
		<path fill="#231815" d="M112.469,35.453c-2.702,0-4.863-0.868-6.483-2.609c-1.62-1.739-2.43-4.188-2.43-7.342
			c0-3.17,0.81-5.621,2.43-7.354s3.781-2.601,6.483-2.601c2.079,0,3.815,0.525,5.21,1.577c1.393,1.054,2.215,2.57,2.466,4.555
			h-3.479c-0.048-1.135-0.475-2.002-1.28-2.6c-0.809-0.598-1.778-0.896-2.913-0.896c-1.616,0-2.925,0.613-3.929,1.839
			c-1.004,1.224-1.507,3.05-1.507,5.479c0,2.415,0.503,4.232,1.507,5.46c1.004,1.224,2.313,1.837,3.929,1.837
			c1.135,0,2.106-0.297,2.913-0.897c0.807-0.598,1.233-1.458,1.28-2.583h3.479c-0.251,1.984-1.073,3.505-2.466,4.557
			C116.285,34.927,114.548,35.453,112.469,35.453z"/>
		<path fill="#231815" d="M130.508,35.042c-0.739,0.142-1.548,0.217-2.421,0.217c-1.388,0-2.402-0.25-3.048-0.747
			c-0.646-0.496-1.046-1.131-1.202-1.911c-0.153-0.777-0.232-1.835-0.232-3.173V18.632h-2.35V15.98h2.35v-4.733h3.371v4.733h3.085
			v2.652h-3.085v10.975c0,1.305,0.165,2.131,0.492,2.484c0.328,0.352,0.78,0.529,1.354,0.529c0.585,0,1.146-0.049,1.686-0.145
			V35.042L130.508,35.042z"/>
	</g>
</g>
</svg>
