<?xml version="1.0" encoding="utf-8"?>
<!-- Generator: Adobe Illustrator 16.0.0, SVG Export Plug-In . SVG Version: 6.00 Build 0)  -->
<!DOCTYPE svg PUBLIC "-//W3C//DTD SVG 1.1//EN" "http://www.w3.org/Graphics/SVG/1.1/DTD/svg11.dtd">
<svg version="1.1" id="圖層_1" xmlns="http://www.w3.org/2000/svg" xmlns:xlink="http://www.w3.org/1999/xlink" x="0px" y="0px"
	 width="425.197px" height="113.387px" viewBox="0 0 425.197 113.387" enable-background="new 0 0 425.197 113.387"
	 xml:space="preserve">
<g>
	<g>
		<path fill="#231815" d="M47.982,93.405c0,0.47-0.017,0.88-0.044,1.23c-0.029,0.352-0.081,0.66-0.154,0.924
			s-0.169,0.498-0.285,0.703c-0.117,0.205-0.323,0.453-0.615,0.746c-0.293,0.293-0.907,0.74-1.846,1.342
			c-0.938,0.601-2.103,1.187-3.494,1.758c-1.392,0.57-2.987,1.056-4.79,1.449c-1.802,0.396-3.771,0.594-5.909,0.594
			c-3.691,0-7.024-0.614-9.998-1.846c-2.975-1.23-5.509-3.047-7.604-5.449c-2.095-2.401-3.706-5.369-4.834-8.897
			c-1.128-3.531-1.691-7.597-1.691-12.195c0-4.717,0.607-8.922,1.823-12.613c1.216-3.69,2.923-6.817,5.12-9.382
			c2.197-2.563,4.826-4.519,7.888-5.867c3.063-1.347,6.453-2.021,10.175-2.021c1.641,0,3.235,0.154,4.79,0.461
			c1.553,0.308,2.987,0.696,4.307,1.165c1.318,0.469,2.489,1.011,3.516,1.626c1.025,0.615,1.735,1.121,2.131,1.516
			c0.396,0.396,0.652,0.696,0.771,0.901c0.116,0.205,0.212,0.447,0.285,0.725c0.073,0.279,0.132,0.608,0.176,0.989
			s0.066,0.835,0.066,1.362c0,0.586-0.029,1.084-0.09,1.494c-0.059,0.41-0.146,0.754-0.265,1.032
			c-0.118,0.279-0.258,0.483-0.42,0.615s-0.361,0.198-0.597,0.198c-0.412,0-0.986-0.286-1.724-0.857
			c-0.736-0.57-1.688-1.2-2.851-1.89c-1.163-0.688-2.577-1.318-4.24-1.89c-1.665-0.571-3.66-0.857-5.986-0.857
			c-2.533,0-4.838,0.505-6.914,1.516c-2.076,1.012-3.852,2.498-5.323,4.46c-1.474,1.964-2.614,4.358-3.424,7.187
			c-0.812,2.826-1.216,6.057-1.216,9.688c0,3.604,0.391,6.789,1.172,9.56c0.778,2.768,1.897,5.082,3.356,6.943
			c1.458,1.858,3.247,3.266,5.367,4.219c2.12,0.951,4.521,1.428,7.202,1.428c2.267,0,4.248-0.279,5.94-0.836
			c1.693-0.557,3.138-1.178,4.329-1.867c1.192-0.688,2.172-1.311,2.938-1.867c0.766-0.557,1.369-0.836,1.811-0.836
			c0.206,0,0.384,0.045,0.53,0.134c0.146,0.088,0.266,0.256,0.354,0.506c0.089,0.248,0.155,0.592,0.199,1.03
			C47.959,92.174,47.982,92.731,47.982,93.405z"/>
		<path fill="#231815" d="M96.085,98.766c0.234,0.646,0.358,1.166,0.373,1.562c0.016,0.396-0.095,0.694-0.329,0.899
			s-0.623,0.338-1.165,0.396c-0.542,0.058-1.268,0.088-2.175,0.088c-0.908,0-1.634-0.021-2.176-0.066
			c-0.542-0.043-0.952-0.117-1.23-0.219c-0.277-0.104-0.482-0.242-0.614-0.418s-0.257-0.396-0.373-0.66l-4.878-13.842H59.874
			l-4.658,13.666c-0.088,0.264-0.204,0.492-0.352,0.682c-0.147,0.191-0.359,0.353-0.638,0.484c-0.278,0.131-0.674,0.227-1.188,0.285
			c-0.513,0.058-1.18,0.088-1.999,0.088c-0.851,0-1.546-0.037-2.088-0.109c-0.542-0.074-0.923-0.213-1.143-0.418
			c-0.221-0.205-0.322-0.506-0.309-0.899c0.016-0.396,0.14-0.916,0.374-1.562L66.949,45.9c0.116-0.321,0.271-0.586,0.461-0.791
			c0.19-0.205,0.469-0.365,0.835-0.482s0.835-0.198,1.406-0.242s1.297-0.066,2.176-0.066c0.938,0,1.714,0.022,2.329,0.066
			s1.113,0.125,1.494,0.242c0.38,0.117,0.674,0.286,0.879,0.505c0.204,0.22,0.366,0.491,0.483,0.813L96.085,98.766z M71.607,52.14
			h-0.044l-9.8,28.344h19.774L71.607,52.14z"/>
		<path fill="#231815" d="M139.002,100.305c0,0.234-0.044,0.439-0.132,0.615s-0.279,0.322-0.571,0.438
			c-0.293,0.117-0.702,0.205-1.229,0.265c-0.527,0.059-1.23,0.088-2.109,0.088c-0.763,0-1.385-0.029-1.868-0.088
			c-0.482-0.06-0.871-0.154-1.163-0.285c-0.293-0.133-0.521-0.316-0.683-0.551c-0.161-0.235-0.301-0.527-0.417-0.879L125.6,86.506
			c-0.615-1.523-1.253-2.922-1.912-4.197c-0.659-1.272-1.443-2.373-2.352-3.295c-0.907-0.924-1.978-1.641-3.208-2.154
			c-1.229-0.512-2.71-0.77-4.438-0.77h-5.054v24.215c0,0.234-0.066,0.439-0.198,0.615s-0.337,0.313-0.615,0.418
			c-0.278,0.102-0.659,0.188-1.143,0.264c-0.483,0.072-1.093,0.109-1.823,0.109c-0.732,0-1.341-0.037-1.824-0.109
			c-0.483-0.074-0.872-0.162-1.164-0.264c-0.293-0.104-0.499-0.242-0.615-0.418s-0.176-0.381-0.176-0.615V47.658
			c0-1.144,0.3-1.94,0.9-2.396c0.601-0.454,1.236-0.681,1.912-0.681h12.085c1.435,0,2.629,0.037,3.581,0.109
			c0.951,0.073,1.809,0.154,2.57,0.242c2.197,0.381,4.139,0.982,5.822,1.802c1.685,0.82,3.099,1.861,4.241,3.12
			c1.143,1.26,1.999,2.703,2.57,4.329c0.57,1.626,0.856,3.42,0.856,5.383c0,1.904-0.257,3.611-0.77,5.121
			c-0.514,1.508-1.252,2.842-2.22,3.998c-0.967,1.158-2.125,2.16-3.472,3.01c-1.348,0.851-2.856,1.568-4.526,2.154
			c0.938,0.41,1.786,0.93,2.55,1.562c0.762,0.629,1.472,1.383,2.131,2.262s1.28,1.891,1.868,3.033
			c0.586,1.143,1.171,2.432,1.758,3.866l5.098,12.523c0.41,1.055,0.674,1.795,0.791,2.221
			C138.942,99.74,139.002,100.071,139.002,100.305z M127.62,60.358c0-2.227-0.499-4.107-1.494-5.646
			c-0.996-1.538-2.666-2.645-5.01-3.318c-0.732-0.205-1.561-0.352-2.483-0.438c-0.922-0.087-2.131-0.133-3.625-0.133h-6.371v19.161
			h7.383c1.992,0,3.713-0.241,5.163-0.725c1.449-0.484,2.658-1.158,3.626-2.021c0.967-0.864,1.677-1.883,2.131-3.055
			S127.62,61.735,127.62,60.358z"/>
		<path fill="#231815" d="M239.008,100.305c0,0.234-0.057,0.439-0.17,0.615c-0.112,0.176-0.312,0.313-0.595,0.418
			c-0.281,0.102-0.642,0.188-1.081,0.264c-0.438,0.072-1.01,0.109-1.716,0.109c-0.649,0-1.207-0.037-1.674-0.109
			c-0.467-0.074-0.834-0.162-1.104-0.264c-0.27-0.104-0.46-0.242-0.572-0.418c-0.113-0.176-0.168-0.381-0.168-0.615V50.778h-0.082
			l-18.77,49.746c-0.082,0.205-0.199,0.381-0.351,0.527c-0.15,0.146-0.37,0.271-0.659,0.375c-0.287,0.102-0.631,0.176-1.028,0.219
			c-0.398,0.045-0.871,0.066-1.419,0.066c-0.576,0-1.07-0.029-1.481-0.088c-0.411-0.06-0.756-0.142-1.029-0.242
			c-0.274-0.103-0.487-0.228-0.638-0.373c-0.151-0.146-0.253-0.309-0.31-0.484l-17.945-49.746h-0.04v49.527
			c0,0.234-0.058,0.439-0.171,0.615s-0.31,0.313-0.594,0.418c-0.283,0.102-0.649,0.188-1.102,0.264
			c-0.452,0.072-1.032,0.109-1.738,0.109c-0.679,0-1.244-0.037-1.696-0.109c-0.452-0.074-0.812-0.162-1.081-0.264
			c-0.269-0.104-0.451-0.242-0.551-0.418c-0.099-0.176-0.146-0.381-0.146-0.615V48.01c0-1.23,0.306-2.109,0.919-2.637
			c0.612-0.528,1.295-0.791,2.048-0.791h4.347c0.893,0,1.672,0.088,2.34,0.264s1.253,0.455,1.755,0.835
			c0.501,0.381,0.92,0.864,1.255,1.45c0.334,0.586,0.627,1.273,0.878,2.064l15.229,41.178h0.206l15.846-41.045
			c0.306-0.88,0.641-1.626,1.002-2.241c0.362-0.615,0.762-1.105,1.192-1.473c0.432-0.365,0.913-0.63,1.443-0.791
			c0.528-0.16,1.142-0.241,1.839-0.241h4.559c0.417,0,0.815,0.065,1.19,0.197c0.377,0.133,0.696,0.338,0.962,0.615
			c0.266,0.279,0.48,0.63,0.648,1.056c0.167,0.425,0.251,0.944,0.251,1.56v52.295H239.008z"/>
		<path fill="#231815" d="M296.223,72.356c0,4.601-0.542,8.744-1.626,12.437c-1.084,3.691-2.702,6.834-4.856,9.428
			c-2.152,2.592-4.854,4.584-8.107,5.977c-3.252,1.392-7.046,2.087-11.382,2.087c-4.276,0-7.976-0.638-11.097-1.91
			c-3.119-1.275-5.698-3.129-7.734-5.562c-2.035-2.432-3.552-5.449-4.548-9.053c-0.996-3.604-1.494-7.748-1.494-12.437
			c0-4.481,0.542-8.555,1.626-12.217s2.71-6.774,4.879-9.339c2.168-2.563,4.878-4.541,8.13-5.933s7.046-2.087,11.382-2.087
			c4.188,0,7.837,0.63,10.941,1.89c3.105,1.26,5.691,3.098,7.757,5.515s3.604,5.405,4.614,8.967
			C295.717,63.676,296.223,67.756,296.223,72.356z M288.225,72.883c0-3.223-0.285-6.219-0.856-8.986
			c-0.57-2.77-1.521-5.172-2.853-7.208s-3.109-3.625-5.333-4.768c-2.224-1.144-4.975-1.714-8.251-1.714
			c-3.277,0-6.027,0.614-8.251,1.846c-2.225,1.231-4.03,2.872-5.42,4.922c-1.392,2.051-2.386,4.446-2.985,7.187
			c-0.601,2.737-0.899,5.616-0.899,8.635c0,3.34,0.277,6.416,0.834,9.229c0.557,2.813,1.491,5.236,2.81,7.273
			c1.316,2.035,3.08,3.617,5.289,4.746c2.209,1.127,4.98,1.69,8.316,1.69c3.307,0,6.085-0.614,8.339-1.846
			c2.253-1.229,4.067-2.893,5.442-4.988c1.375-2.094,2.355-4.52,2.94-7.272S288.225,75.959,288.225,72.883z"/>
		<path fill="#231815" d="M346.401,72.18c0,4.922-0.63,9.221-1.89,12.898c-1.261,3.676-3.099,6.723-5.517,9.141
			c-2.416,2.416-5.383,4.225-8.897,5.426c-3.516,1.201-7.705,1.803-12.568,1.803h-12.041c-0.674,0-1.312-0.227-1.912-0.682
			c-0.601-0.453-0.899-1.252-0.899-2.395V47.658c0-1.144,0.3-1.94,0.899-2.396c0.602-0.454,1.238-0.681,1.912-0.681h12.876
			c4.922,0,9.082,0.637,12.48,1.912c3.397,1.274,6.247,3.104,8.548,5.492c2.299,2.389,4.043,5.281,5.229,8.681
			C345.809,64.065,346.401,67.903,346.401,72.18z M338.447,72.487c0-3.075-0.381-5.938-1.143-8.59
			c-0.763-2.651-1.955-4.944-3.582-6.878c-1.625-1.934-3.685-3.441-6.174-4.525c-2.49-1.083-5.698-1.626-9.624-1.626h-7.69V95.12
			h7.778c3.633,0,6.693-0.455,9.185-1.363s4.57-2.299,6.24-4.174s2.922-4.228,3.758-7.054
			C338.029,79.701,338.447,76.354,338.447,72.487z"/>
		<path fill="#231815" d="M384.188,98.326c0,0.526-0.029,0.989-0.088,1.385c-0.06,0.396-0.161,0.725-0.309,0.987
			c-0.146,0.264-0.314,0.455-0.505,0.572s-0.402,0.176-0.638,0.176h-27.29c-0.674,0-1.312-0.227-1.912-0.682
			c-0.601-0.453-0.899-1.252-0.899-2.395V47.658c0-1.144,0.3-1.94,0.899-2.396c0.602-0.454,1.238-0.681,1.912-0.681h26.982
			c0.233,0,0.445,0.059,0.637,0.176c0.189,0.117,0.345,0.308,0.462,0.571c0.117,0.263,0.212,0.593,0.286,0.988
			c0.072,0.396,0.108,0.887,0.108,1.473c0,0.526-0.036,0.988-0.108,1.384c-0.074,0.396-0.169,0.718-0.286,0.967
			s-0.271,0.433-0.462,0.549c-0.19,0.117-0.402,0.176-0.637,0.176h-22.236v17.842h19.072c0.233,0,0.445,0.065,0.637,0.198
			c0.19,0.132,0.352,0.314,0.484,0.55c0.131,0.233,0.227,0.557,0.284,0.967c0.059,0.41,0.089,0.893,0.089,1.449
			c0,0.526-0.029,0.981-0.089,1.362c-0.059,0.381-0.153,0.688-0.284,0.922c-0.134,0.234-0.294,0.404-0.484,0.507
			c-0.19,0.104-0.402,0.153-0.637,0.153h-19.072v20.347h22.544c0.234,0,0.446,0.059,0.638,0.176
			c0.189,0.117,0.358,0.301,0.505,0.551c0.146,0.248,0.249,0.57,0.309,0.967C384.158,97.25,384.188,97.74,384.188,98.326z"/>
		<path fill="#231815" d="M419.479,98.151c0,0.586-0.029,1.078-0.088,1.474s-0.153,0.731-0.286,1.012
			c-0.131,0.277-0.293,0.482-0.482,0.615c-0.19,0.131-0.418,0.196-0.682,0.196h-25.137c-0.674,0-1.313-0.227-1.912-0.682
			c-0.602-0.453-0.9-1.252-0.9-2.395V45.724c0-0.234,0.06-0.438,0.177-0.615c0.116-0.176,0.321-0.313,0.614-0.417
			c0.293-0.103,0.688-0.189,1.188-0.264c0.498-0.073,1.099-0.11,1.802-0.11c0.732,0,1.34,0.037,1.824,0.11
			c0.481,0.073,0.871,0.161,1.164,0.264c0.293,0.104,0.498,0.242,0.615,0.417c0.116,0.176,0.176,0.381,0.176,0.615v49.174h20.391
			c0.264,0,0.49,0.066,0.682,0.199c0.189,0.131,0.353,0.322,0.482,0.57c0.133,0.25,0.229,0.578,0.286,0.987
			C419.45,97.065,419.479,97.565,419.479,98.151z"/>
	</g>
	<g>
		<path fill="#231815" d="M23.295,35.732c-1.676,0-3.141-0.198-4.396-0.598c-1.254-0.398-2.3-0.955-3.138-1.67
			c-0.839-0.715-1.475-1.567-1.907-2.559c-0.434-0.99-0.668-2.076-0.703-3.261h3.022c0.082,0.902,0.322,1.686,0.722,2.348
			c0.398,0.661,0.908,1.21,1.528,1.644c0.621,0.434,1.333,0.753,2.137,0.958c0.803,0.205,1.662,0.308,2.576,0.308
			c0.891,0,1.698-0.094,2.426-0.28c0.727-0.188,1.348-0.457,1.862-0.81c0.516-0.352,0.914-0.775,1.195-1.273
			s0.422-1.063,0.422-1.696c0-0.656-0.129-1.21-0.387-1.661s-0.678-0.847-1.258-1.187c-0.58-0.341-1.344-0.646-2.293-0.914
			c-0.949-0.27-2.109-0.545-3.48-0.826c-1.336-0.306-2.487-0.65-3.455-1.037c-0.967-0.387-1.761-0.841-2.382-1.362
			c-0.621-0.521-1.081-1.122-1.38-1.802s-0.448-1.459-0.448-2.338c0-0.961,0.205-1.846,0.615-2.654
			c0.41-0.808,0.987-1.506,1.731-2.092c0.743-0.586,1.635-1.043,2.672-1.371s2.188-0.492,3.455-0.492
			c1.336,0,2.551,0.164,3.646,0.492s2.043,0.8,2.84,1.415s1.424,1.365,1.881,2.25s0.703,1.884,0.738,2.997H28.48
			c-0.316-2.871-2.285-4.307-5.906-4.307c-1.77,0-3.133,0.327-4.088,0.983s-1.433,1.541-1.433,2.654
			c0,0.504,0.088,0.935,0.264,1.292c0.176,0.356,0.475,0.671,0.896,0.939c0.421,0.27,0.984,0.514,1.688,0.729
			c0.703,0.217,1.576,0.437,2.619,0.659c0.715,0.151,1.446,0.313,2.196,0.482s1.479,0.378,2.188,0.624s1.381,0.542,2.014,0.889
			c0.634,0.346,1.187,0.765,1.66,1.257c0.475,0.492,0.851,1.075,1.125,1.749c0.275,0.674,0.414,1.462,0.414,2.364
			c0,1.043-0.221,2.001-0.66,2.874c-0.438,0.872-1.051,1.626-1.836,2.259s-1.717,1.128-2.795,1.484
			C25.749,35.551,24.572,35.732,23.295,35.732z"/>
		<path fill="#231815" d="M43.404,35.732c-1.254,0-2.396-0.202-3.428-0.605c-1.032-0.404-1.916-0.993-2.654-1.768
			c-0.738-0.773-1.31-1.72-1.714-2.839s-0.606-2.394-0.606-3.823c0-1.405,0.196-2.666,0.589-3.778
			c0.394-1.113,0.946-2.058,1.661-2.83c0.715-0.773,1.567-1.368,2.559-1.784c0.99-0.416,2.083-0.624,3.277-0.624
			c1.242,0,2.361,0.205,3.357,0.615s1.846,1.002,2.549,1.774c0.703,0.773,1.242,1.718,1.617,2.83
			c0.375,1.113,0.563,2.379,0.563,3.797v0.738H38.201c0.07,0.996,0.249,1.863,0.536,2.603c0.287,0.738,0.659,1.348,1.116,1.827
			c0.457,0.48,0.986,0.842,1.591,1.081c0.604,0.24,1.257,0.36,1.96,0.36c0.504,0,1.008-0.067,1.512-0.202s0.958-0.334,1.362-0.598
			s0.731-0.592,0.984-0.984c0.252-0.392,0.384-0.841,0.396-1.345h3.217c-0.129,0.891-0.407,1.682-0.835,2.373
			s-0.97,1.271-1.626,1.74c-0.656,0.469-1.412,0.826-2.268,1.071C45.29,35.608,44.377,35.732,43.404,35.732z M47.939,25.027
			c-0.129-0.819-0.334-1.538-0.615-2.152c-0.281-0.615-0.633-1.128-1.055-1.538s-0.902-0.722-1.441-0.933s-1.119-0.315-1.74-0.315
			s-1.197,0.1-1.73,0.299s-1.011,0.504-1.434,0.914c-0.422,0.41-0.778,0.926-1.071,1.547s-0.498,1.348-0.615,2.18L47.939,25.027
			L47.939,25.027z"/>
		<path fill="#231815" d="M57.643,35.31h-3.041V11.527h3.041V35.31z"/>
		<path fill="#231815" d="M69.455,35.732c-1.254,0-2.396-0.202-3.428-0.605c-1.032-0.404-1.916-0.993-2.654-1.768
			c-0.737-0.773-1.31-1.72-1.714-2.839s-0.605-2.394-0.605-3.823c0-1.405,0.195-2.666,0.589-3.778
			c0.393-1.113,0.945-2.058,1.661-2.83c0.715-0.773,1.566-1.368,2.558-1.784s2.083-0.624,3.278-0.624
			c1.241,0,2.36,0.205,3.356,0.615s1.846,1.002,2.549,1.774c0.703,0.773,1.242,1.718,1.617,2.83
			c0.375,1.113,0.563,2.379,0.563,3.797v0.738H64.252c0.07,0.996,0.249,1.863,0.536,2.603c0.287,0.738,0.659,1.348,1.116,1.827
			c0.457,0.48,0.987,0.842,1.591,1.081c0.604,0.24,1.257,0.36,1.96,0.36c0.504,0,1.008-0.067,1.512-0.202
			c0.505-0.135,0.958-0.334,1.362-0.598s0.732-0.592,0.984-0.984c0.252-0.392,0.384-0.841,0.396-1.345h3.217
			c-0.129,0.891-0.406,1.682-0.835,2.373c-0.428,0.691-0.97,1.271-1.626,1.74c-0.655,0.469-1.411,0.826-2.268,1.071
			C71.341,35.608,70.428,35.732,69.455,35.732z M73.99,25.027c-0.129-0.819-0.334-1.538-0.615-2.152
			c-0.28-0.615-0.633-1.128-1.055-1.538s-0.902-0.722-1.441-0.933s-1.119-0.315-1.739-0.315c-0.621,0-1.198,0.1-1.731,0.299
			s-1.011,0.504-1.433,0.914s-0.779,0.926-1.072,1.547s-0.498,1.348-0.615,2.18L73.99,25.027L73.99,25.027z"/>
		<path fill="#231815" d="M87.631,35.732c-1.207,0-2.306-0.198-3.296-0.598c-0.989-0.399-1.84-0.984-2.549-1.758
			c-0.709-0.774-1.26-1.721-1.652-2.839c-0.392-1.119-0.589-2.399-0.589-3.842c0-1.418,0.193-2.687,0.58-3.806
			c0.388-1.119,0.933-2.064,1.636-2.839c0.702-0.774,1.553-1.362,2.549-1.767c0.996-0.405,2.104-0.606,3.321-0.606
			c0.927,0,1.784,0.12,2.575,0.36c0.791,0.239,1.488,0.595,2.092,1.063c0.604,0.468,1.103,1.052,1.494,1.749
			c0.393,0.697,0.647,1.497,0.766,2.399H91.41c-0.022-0.517-0.135-0.974-0.334-1.371c-0.199-0.398-0.469-0.729-0.809-0.993
			s-0.735-0.463-1.188-0.598c-0.452-0.136-0.935-0.202-1.45-0.202c-0.727,0-1.392,0.138-1.994,0.413
			c-0.604,0.274-1.122,0.69-1.557,1.248c-0.434,0.557-0.771,1.248-1.011,2.073c-0.24,0.826-0.36,1.784-0.36,2.874
			c0,1.091,0.12,2.049,0.36,2.874c0.24,0.826,0.577,1.519,1.011,2.074c0.435,0.556,0.952,0.973,1.557,1.248
			c0.604,0.275,1.269,0.413,1.994,0.413c0.492,0,0.961-0.064,1.406-0.193s0.841-0.324,1.188-0.589
			c0.346-0.264,0.624-0.589,0.835-0.976s0.328-0.844,0.352-1.371h3.146c-0.117,0.914-0.372,1.717-0.766,2.408
			c-0.393,0.69-0.894,1.269-1.503,1.73c-0.608,0.462-1.31,0.814-2.101,1.056C89.396,35.609,88.545,35.732,87.631,35.732z"/>
		<path fill="#231815" d="M103.961,35.328c-0.645,0.151-1.377,0.229-2.196,0.229c-0.914,0-1.639-0.111-2.172-0.334
			C99.06,35,98.653,34.669,98.371,34.23c-0.282-0.438-0.463-0.99-0.545-1.651c-0.082-0.662-0.123-1.434-0.123-2.313v-9.791h-2.127
			v-2.373h2.127v-4.289h3.06v4.289h2.813v2.373h-2.813v9.932c0,0.609,0.037,1.094,0.113,1.45c0.076,0.357,0.188,0.633,0.334,0.826
			c0.146,0.193,0.322,0.319,0.527,0.378c0.205,0.06,0.437,0.088,0.694,0.088c0.27,0,0.532-0.012,0.791-0.035
			c0.258-0.022,0.504-0.053,0.737-0.088L103.961,35.328L103.961,35.328z"/>
	</g>
</g>
</svg>
