<?xml version="1.0" encoding="utf-8"?>
<!-- Generator: Adobe Illustrator 16.0.0, SVG Export Plug-In . SVG Version: 6.00 Build 0)  -->
<!DOCTYPE svg PUBLIC "-//W3C//DTD SVG 1.1//EN" "http://www.w3.org/Graphics/SVG/1.1/DTD/svg11.dtd">
<svg version="1.1" id="圖層_1" xmlns="http://www.w3.org/2000/svg" xmlns:xlink="http://www.w3.org/1999/xlink" x="0px" y="0px"
	 width="210px" height="140px" viewBox="-30 -20 210 140" enable-background="new -30 -20 210 140" xml:space="preserve">
<g>
	<path d="M37.771,50c0,25.286-4.162,47.627-10.525,61.186C34.917,99.307,40.119,76.363,40.119,50
		c0-26.366-5.201-49.307-12.874-61.186C33.609,2.371,37.771,24.713,37.771,50z"/>
	<polygon points="92.545,3.167 90.544,0.401 54.496,26.469 53.509,21.199 46.793,34.148 61.188,31.817 56.498,29.234 	"/>
	<g>
		<path d="M125.537-2.41L65.813,36.16c0.764,2.701,2.016,5.503,3.769,8.214c1.748,2.712,3.791,5.007,5.935,6.813l59.724-38.57
			L125.537-2.41z"/>
		<path d="M73.558,52.453c-2.141-1.809-4.178-4.106-5.929-6.819c-1.76-2.725-3.02-5.541-3.791-8.247l-12.71,8.209
			c-0.157,0.62-0.231,1.296-0.245,1.991l-4.517,2.917c-0.344,1.334-0.071,2.801,0.531,4.322l-0.103,0.064
			c-6.748,4.359-7.317,6.605-6.259,8.242c1.057,1.635,3.34,2.043,10.088-2.316l0.11-0.07c1.132,1.156,2.351,1.996,3.696,2.225
			l4.513-2.918c0.642,0.273,1.289,0.484,1.922,0.594L73.558,52.453z"/>
	</g>
</g>
</svg>
