<?xml version="1.0" encoding="utf-8"?>
<!-- Generator: Adobe Illustrator 16.0.0, SVG Export Plug-In . SVG Version: 6.00 Build 0)  -->
<!DOCTYPE svg PUBLIC "-//W3C//DTD SVG 1.1//EN" "http://www.w3.org/Graphics/SVG/1.1/DTD/svg11.dtd">
<svg version="1.1" id="圖層_1" xmlns="http://www.w3.org/2000/svg" xmlns:xlink="http://www.w3.org/1999/xlink" x="0px" y="0px"
	 width="20px" height="20px" viewBox="0 0 20 20" enable-background="new 0 0 20 20" xml:space="preserve">
<g>
	<path fill="#FFFFFF" d="M9.794,14.099c-0.504,0-0.864-0.224-1.081-0.671c-0.115-0.216-0.173-0.541-0.173-0.974
		c0-1.239,0.591-2.451,1.773-3.633c0.721-0.707,1.125-1.103,1.211-1.189c0.39-0.49,0.584-0.958,0.584-1.406
		c0-0.533-0.18-1.016-0.54-1.449c-0.375-0.447-0.858-0.67-1.449-0.67c-0.722,0-1.276,0.259-1.666,0.778
		c-0.23,0.317-0.446,0.829-0.648,1.536C7.689,6.752,7.566,7.012,7.438,7.199C7.206,7.517,6.882,7.675,6.464,7.675
		c-0.375,0-0.692-0.137-0.951-0.411C5.268,6.961,5.145,6.63,5.145,6.27c0-0.879,0.339-1.752,1.017-2.617
		c0.923-1.226,2.256-1.838,4.001-1.838c1.398,0,2.545,0.44,3.438,1.319c0.836,0.836,1.255,1.845,1.255,3.027
		c0,0.822-0.202,1.55-0.605,2.185c-0.303,0.447-1.024,1.24-2.163,2.379c-0.39,0.418-0.656,0.764-0.8,1.038
		c-0.102,0.202-0.202,0.591-0.304,1.168c-0.043,0.288-0.122,0.519-0.237,0.691C10.529,13.939,10.213,14.099,9.794,14.099z
		 M8.713,15.417c0.317-0.316,0.699-0.476,1.146-0.476c0.446,0,0.821,0.159,1.124,0.476c0.332,0.317,0.498,0.707,0.498,1.168
		c0,0.433-0.166,0.814-0.498,1.146c-0.303,0.303-0.678,0.454-1.124,0.454c-0.447,0-0.829-0.151-1.146-0.454
		c-0.331-0.332-0.497-0.714-0.497-1.146C8.216,16.124,8.382,15.734,8.713,15.417z"/>
</g>
</svg>
