<?xml version="1.0" encoding="utf-8"?>
<!-- Generator: Adobe Illustrator 16.0.0, SVG Export Plug-In . SVG Version: 6.00 Build 0)  -->
<!DOCTYPE svg PUBLIC "-//W3C//DTD SVG 1.1//EN" "http://www.w3.org/Graphics/SVG/1.1/DTD/svg11.dtd">
<svg version="1.1" id="圖層_1" xmlns="http://www.w3.org/2000/svg" xmlns:xlink="http://www.w3.org/1999/xlink" x="0px" y="0px"
	 width="28.347px" height="28.346px" viewBox="0 1.309 28.347 28.346" enable-background="new 0 1.309 28.347 28.346"
	 xml:space="preserve">
<g>
	<path d="M5.371,15.454c0.097-5.064,4.054-8.851,9.143-8.745c4.671,0.097,8.548,4.152,8.46,8.849
		c-0.093,4.946-4.116,8.841-9.037,8.695C9.094,24.108,5.405,20.229,5.371,15.454z M21.198,11.705
		c-0.198-0.375-0.372-0.707-0.553-1.051c-0.372,0.156-0.264-0.422-0.511-0.529c0.008,0.16,0.015,0.289,0.021,0.418
		c-0.032,0.003-0.063,0.006-0.096,0.009c-0.141-0.335-0.28-0.669-0.422-1.005c0.028-0.003,0.079-0.009,0.159-0.018
		c-0.829-0.793-1.752-1.361-2.698-1.702c-0.071,0.229-0.084,0.446-0.193,0.588c-0.23,0.298-0.257,0.596-0.142,0.933
		c0.015,0.041-0.015,0.096-0.024,0.148c-0.877-0.351-1.374-0.879-1.249-1.314c-0.085-0.013-0.206,0.004-0.25-0.045
		c-0.129-0.147-0.213-0.333-0.341-0.482c-0.241-0.283-0.981-0.432-1.237-0.3c-0.211,0.109-0.447,0.166-0.767,0.279
		c-0.183,0.498-0.183,0.498,0.029,0.818c0.046-0.142,0.096-0.246,0.109-0.354c0.018-0.128-0.016-0.37,0.008-0.375
		c0.216-0.04,0.495-0.128,0.65-0.032c0.416,0.258,0.78,0.601,1.179,0.92c-0.099,0.086-0.253,0.154-0.273,0.249
		c-0.078,0.367-0.198,0.429-0.509,0.229c-0.169-0.11-0.353-0.199-0.493-0.276c0.095-0.08,0.244-0.205,0.463-0.39
		c-0.297-0.151-0.497-0.253-0.646-0.329c-0.148,0.273-0.252,0.465-0.367,0.677c0.039,0.042,0.109,0.117,0.18,0.192
		c-0.19,0.031-0.351-0.02-0.514-0.063c-0.226-0.059-0.885,0.464-0.855,0.694c0.014,0.11,0.074,0.261,0.16,0.306
		c0.271,0.144,0.563,0.248,0.822,0.355c0.079,0.208,0.153,0.403,0.228,0.597c0.039-0.01,0.079-0.02,0.117-0.029
		c0.169-0.525,0.373-1.042,0.331-1.672c0.274,0.071,0.621,0.133,0.692,0.309c0.175,0.425,0.319,0.368,0.568,0.053
		c0.169,0.228,0.306,0.466,0.495,0.65c0.182,0.177,0.419,0.299,0.675,0.473c-0.35,0.192-0.591,0.325-0.865,0.475
		c-0.203-0.263-0.427-0.138-0.684,0.091c0.195-0.022,0.349-0.039,0.51-0.057c-0.028,0.453,0.147,0.571,0.57,0.474
		c-0.212,0.116-0.425,0.232-0.657,0.359c-0.013-0.104-0.021-0.165-0.043-0.339c-0.402,0.369-0.751,0.688-1.098,1.007
		c-0.077,0.07-0.228,0.176-0.214,0.214c0.179,0.455-0.285,0.468-0.438,0.691c-0.123,0.177-0.175,0.418-0.203,0.638
		c-0.02,0.151,0.054,0.313,0.086,0.471c-0.034,0.011-0.069,0.023-0.104,0.035c-0.075-0.106-0.2-0.205-0.217-0.319
		c-0.048-0.337-0.31-0.42-0.551-0.426c-0.349-0.008-0.7,0.072-1.05,0.116c-0.012,0.001-0.022,0.018-0.035,0.021
		c-0.445,0.113-0.34,0.533-0.367,0.804c-0.023,0.24,0.158,0.531,0.323,0.74c0.05,0.062,0.443-0.018,0.519-0.135
		c0.147-0.23,0.277-0.288,0.512-0.205c-0.066,0.255-0.127,0.487-0.189,0.725c0.623,0.044,0.6,0.048,0.689,0.61
		c0.021,0.138,0.242,0.267,0.398,0.354c0.104,0.059,0.256,0.035,0.386,0.049c-0.707,0.129-0.89,0.012-1.16-0.241
		c-0.333-0.311-0.735-0.691-1.144-0.739c-0.426-0.051-0.726-0.255-1.068-0.415c-0.121-0.056-0.227-0.191-0.29-0.315
		c-0.284-0.56-0.55-1.129-0.822-1.694c-0.04,0.017-0.079,0.034-0.119,0.051c0.152,0.391,0.305,0.783,0.457,1.174
		c-0.356-0.317-0.532-0.721-0.603-1.181c-0.018-0.118-0.03-0.266-0.104-0.342c-0.5-0.509-0.348-1.06-0.145-1.628
		c0.104-0.292,0.173-0.599,0.25-0.873c0.019,0.035,0.077,0.138,0.081,0.146c0-0.396,0-0.875,0-1.382
		c-2.209,1.835-3.48,5.765-1.836,9.323c1.728,3.737,5.991,5.619,9.952,4.372c2.767-0.871,5.808-4.318,5.452-6.176
		c-0.228,0.082-0.456,0.165-0.681,0.245c-0.439-0.737-0.488-0.921-0.475-1.71c0.003-0.12-0.031-0.239-0.035-0.359
		c-0.006-0.187-0.034-0.381,0.006-0.56c0.093-0.415,0.221-0.821,0.336-1.23c0.056-0.2,0.053-0.481,0.186-0.582
		c0.438-0.335,0.472-0.438,0.096-0.868c-0.027,0.225-0.057,0.468-0.089,0.737c-0.6-0.181-0.453-0.697-0.743-1.029
		C20.935,11.73,21.053,11.719,21.198,11.705z M11.744,8.389c0.226-0.088,0.45-0.156,0.645-0.275
		c0.026-0.016-0.103-0.286-0.178-0.487C12.037,7.911,11.919,8.104,11.744,8.389z"/>
	<path fill="#FFFFFF" d="M21.198,11.705c-0.146,0.014-0.264,0.026-0.473,0.046c0.289,0.333,0.143,0.848,0.743,1.029
		c0.032-0.269,0.062-0.512,0.088-0.737c0.376,0.43,0.344,0.533-0.096,0.868c-0.132,0.101-0.129,0.382-0.186,0.582
		c-0.114,0.41-0.242,0.816-0.335,1.23c-0.041,0.179-0.013,0.373-0.006,0.56c0.004,0.12,0.037,0.24,0.035,0.359
		c-0.014,0.789,0.034,0.973,0.474,1.71c0.225-0.081,0.454-0.163,0.682-0.245c0.355,1.858-2.686,5.305-5.452,6.176
		c-3.962,1.248-8.225-0.634-9.953-4.372c-1.645-3.558-0.373-7.488,1.836-9.323c0,0.507,0,0.986,0,1.382
		c-0.004-0.008-0.062-0.112-0.081-0.146c-0.078,0.275-0.146,0.581-0.25,0.874c-0.203,0.569-0.355,1.119,0.146,1.628
		c0.074,0.076,0.086,0.224,0.104,0.342c0.071,0.459,0.247,0.864,0.603,1.181c-0.152-0.392-0.304-0.783-0.456-1.174
		c0.039-0.017,0.078-0.034,0.118-0.051c0.272,0.566,0.539,1.135,0.823,1.695c0.063,0.124,0.169,0.258,0.289,0.314
		c0.343,0.16,0.643,0.364,1.068,0.415c0.408,0.048,0.811,0.428,1.144,0.738c0.271,0.253,0.454,0.371,1.16,0.241
		c-0.13-0.014-0.28,0.01-0.385-0.049c-0.156-0.086-0.377-0.215-0.399-0.353c-0.09-0.562-0.065-0.565-0.688-0.61
		c0.062-0.238,0.122-0.47,0.188-0.725c-0.233-0.083-0.364-0.025-0.512,0.205c-0.075,0.117-0.469,0.196-0.518,0.134
		c-0.166-0.208-0.347-0.5-0.323-0.739c0.026-0.271-0.079-0.691,0.367-0.805c0.013-0.003,0.021-0.02,0.034-0.021
		c0.351-0.044,0.702-0.124,1.051-0.116c0.241,0.005,0.502,0.088,0.551,0.425c0.016,0.115,0.141,0.213,0.216,0.319
		c0.034-0.011,0.069-0.023,0.104-0.034c-0.032-0.158-0.106-0.32-0.087-0.471c0.028-0.22,0.08-0.462,0.203-0.639
		c0.154-0.223,0.617-0.236,0.439-0.691c-0.015-0.038,0.137-0.143,0.214-0.214c0.347-0.319,0.694-0.637,1.098-1.006
		c0.021,0.175,0.029,0.236,0.043,0.339c0.232-0.127,0.444-0.243,0.656-0.359c-0.422,0.097-0.598-0.021-0.57-0.474
		c-0.161,0.018-0.313,0.035-0.509,0.058c0.256-0.229,0.479-0.354,0.684-0.091c0.273-0.15,0.515-0.283,0.864-0.475
		c-0.256-0.174-0.492-0.295-0.675-0.473c-0.189-0.184-0.325-0.423-0.495-0.65c-0.249,0.314-0.394,0.372-0.568-0.053
		c-0.072-0.175-0.418-0.238-0.691-0.309c0.042,0.63-0.162,1.147-0.331,1.672c-0.04,0.01-0.079,0.02-0.118,0.03
		c-0.073-0.195-0.147-0.389-0.228-0.597c-0.258-0.108-0.551-0.211-0.822-0.355c-0.085-0.045-0.146-0.196-0.16-0.306
		c-0.028-0.23,0.631-0.753,0.856-0.694c0.162,0.042,0.323,0.093,0.514,0.063c-0.07-0.076-0.141-0.151-0.18-0.192
		c0.114-0.211,0.218-0.403,0.366-0.677c0.148,0.076,0.35,0.178,0.646,0.329c-0.218,0.184-0.367,0.31-0.462,0.39
		c0.14,0.078,0.323,0.166,0.493,0.276c0.31,0.201,0.431,0.139,0.508-0.228c0.021-0.096,0.174-0.163,0.273-0.249
		c-0.398-0.32-0.763-0.662-1.179-0.92c-0.155-0.096-0.435-0.008-0.65,0.032c-0.022,0.004,0.01,0.246-0.007,0.375
		c-0.015,0.109-0.064,0.213-0.11,0.355c-0.211-0.321-0.211-0.321-0.028-0.819c0.318-0.113,0.556-0.17,0.766-0.279
		c0.256-0.132,0.996,0.017,1.238,0.3c0.127,0.149,0.211,0.335,0.341,0.482c0.043,0.05,0.164,0.032,0.249,0.045
		c-0.125,0.435,0.372,0.963,1.249,1.314c0.01-0.053,0.039-0.108,0.024-0.148c-0.115-0.337-0.089-0.635,0.143-0.933
		c0.109-0.142,0.122-0.359,0.192-0.588c0.946,0.341,1.87,0.909,2.698,1.702c-0.08,0.009-0.13,0.015-0.158,0.018
		c0.141,0.336,0.281,0.67,0.422,1.005c0.031-0.003,0.063-0.006,0.095-0.009c-0.007-0.129-0.013-0.259-0.021-0.418
		c0.247,0.108,0.139,0.686,0.511,0.53C20.826,10.998,21.001,11.329,21.198,11.705z M14.097,23.602
		c0.186-0.529,0.41-0.916,0.808-1.172c0.337-0.216,0.699-0.394,1.038-0.607c0.182-0.115,0.416-0.239,0.488-0.415
		c0.129-0.317,0.38-0.39,0.641-0.508c0.226-0.103,0.468-0.229,0.622-0.414c0.334-0.4,0.621-0.839,0.916-1.271
		c0.127-0.185,0.19-0.376-0.109-0.48c-0.397-0.139-0.79-0.292-1.188-0.424c-0.186-0.063-0.338-0.126-0.354-0.359
		c-0.021-0.337-0.267-0.424-0.55-0.495c-0.194-0.047-0.378-0.154-0.554-0.255c-0.197-0.113-0.365-0.307-0.573-0.361
		c-0.298-0.076-0.62-0.058-0.933-0.079c-0.002-0.032-0.003-0.063-0.005-0.094c-0.086,0.081-0.172,0.161-0.259,0.243
		c0-0.091,0-0.191,0-0.288c-0.123,0.047-0.273,0.063-0.361,0.146c-0.178,0.167-0.476,0.398-0.448,0.554
		c0.063,0.358-0.087,0.566-0.282,0.795c-0.284,0.333-0.266,0.753,0.037,1.073c0.063,0.067,0.102,0.159,0.163,0.229
		c0.237,0.27,0.462,0.554,0.726,0.796c0.184,0.167,0.319,0.305,0.253,0.582c-0.117,0.483-0.213,0.972-0.3,1.461
		c-0.054,0.306-0.11,0.621-0.092,0.927C13.788,23.322,13.975,23.45,14.097,23.602z M13.574,15.505
		c0.013-0.049,0.024-0.099,0.036-0.148c-0.456-0.043-0.815-0.502-1.442-0.245C12.701,15.262,13.138,15.384,13.574,15.505z
		 M15.877,10.878c-0.085,0.144-0.169,0.288-0.27,0.46c0.242,0.044,0.44,0.079,0.639,0.115c0.022-0.024,0.043-0.048,0.065-0.071
		C16.17,11.218,16.029,11.053,15.877,10.878z M17.738,8.489c-0.022,0.065-0.046,0.13-0.068,0.195
		c0.189,0.056,0.378,0.113,0.569,0.16c0.005,0.001,0.038-0.111,0.059-0.171C18.111,8.612,17.924,8.551,17.738,8.489z"/>
	<path fill="#FFFFFF" d="M11.744,8.389c0.175-0.285,0.293-0.478,0.467-0.762c0.075,0.201,0.204,0.471,0.178,0.487
		C12.195,8.232,11.97,8.301,11.744,8.389z"/>
	<path d="M14.097,23.602c-0.122-0.152-0.309-0.279-0.316-0.417c-0.019-0.306,0.038-0.621,0.092-0.927
		c0.086-0.49,0.183-0.979,0.3-1.461c0.066-0.277-0.069-0.414-0.253-0.582c-0.264-0.242-0.488-0.526-0.726-0.795
		c-0.062-0.07-0.1-0.162-0.163-0.229c-0.303-0.319-0.321-0.741-0.037-1.073c0.195-0.229,0.346-0.437,0.282-0.795
		c-0.027-0.156,0.271-0.386,0.448-0.553c0.088-0.083,0.238-0.1,0.361-0.147c0,0.097,0,0.198,0,0.288
		c0.087-0.082,0.173-0.162,0.259-0.243c0.002,0.032,0.003,0.063,0.005,0.094c0.313,0.022,0.635,0.003,0.933,0.079
		c0.208,0.054,0.376,0.248,0.573,0.361c0.176,0.101,0.359,0.208,0.554,0.255c0.283,0.071,0.528,0.158,0.55,0.495
		c0.016,0.232,0.168,0.296,0.354,0.358c0.399,0.133,0.791,0.286,1.188,0.424c0.3,0.104,0.236,0.296,0.109,0.48
		c-0.295,0.431-0.582,0.871-0.916,1.271c-0.154,0.185-0.396,0.312-0.622,0.414c-0.261,0.119-0.512,0.191-0.641,0.509
		c-0.072,0.176-0.307,0.299-0.488,0.415c-0.339,0.214-0.701,0.391-1.038,0.607C14.507,22.686,14.281,23.072,14.097,23.602z"/>
	<path d="M13.574,15.505c-0.437-0.122-0.873-0.244-1.406-0.393c0.627-0.258,0.986,0.202,1.442,0.245
		C13.599,15.407,13.587,15.456,13.574,15.505z"/>
	<path d="M15.877,10.878c0.151,0.175,0.293,0.339,0.434,0.503c-0.021,0.024-0.043,0.047-0.064,0.072
		c-0.198-0.036-0.397-0.072-0.64-0.116C15.708,11.166,15.793,11.022,15.877,10.878z"/>
	<path d="M17.738,8.489c0.186,0.062,0.373,0.123,0.56,0.184c-0.021,0.06-0.054,0.172-0.06,0.171c-0.19-0.047-0.38-0.104-0.568-0.16
		C17.693,8.619,17.715,8.554,17.738,8.489z"/>
</g>
</svg>
